999
FreeCAD v1.0 38806 (Git)
  0
SECTION
  2
HEADER
  9
$ACADVER
  1
AC1014
  9
$ACADMAINTVER
 70
     9
  9
$DWGCODEPAGE
  3
ANSI_1252
  9
$TEXTSTYLE
  7
STANDARD
  9
$DIMSTYLE
  2
STANDARD
  9
$DIMTXSTY
  7
STANDARD
  9
$CMLSTYLE
  2
STANDARD
  9
$LUNITS
 70
2
  9
$INSUNITS
 70
4
  9
$PEXTMAX
 10
50
 20
50
 30
50
  9
$PEXTMIN
 10
0
 20
0
 30
0
  9
$HANDSEED
  5
FFFF
  0
ENDSEC
  0
SECTION
  2
CLASSES
  0
CLASS
  1
ACDBDICTIONARYWDFLT
  2
AcDbDictionaryWithDefault
  3
ObjectDBX Classes
 90
        0
280
     0
281
     0
  0
CLASS
  1
XRECORD
  2
AcDbXrecord
  3
ObjectDBX Classes
 90
        0
280
     0
281
     0
  0
CLASS
  1
LWPOLYLINE
  2
AcDbPolyline
  3
ObjectDBX Classes
 90
        0
280
     0
281
     1
  0
ENDSEC
  0
SECTION
  2
TABLES
  0
TABLE
  2
VPORT
  5
20
330
0
100
AcDbSymbolTable
 70
     1
  0
VPORT
  5
21
330
20
100
AcDbSymbolTableRecord
100
AcDbViewportTableRecord
  2
*ACTIVE
 70
     0
  0
ENDTAB
  0
TABLE
  2
LTYPE
  5
22
330
0
100
AcDbSymbolTable
 70
     1
  0
LTYPE
  5
23
330
21
100
AcDbSymbolTableRecord
100
AcDbLinetypeTableRecord
  2
BYBLOCK
 70
     0
  3

 72
    65
 73
     0
 40
0.0
  0
LTYPE
  5
24
330
21
100
AcDbSymbolTableRecord
100
AcDbLinetypeTableRecord
  2
BYLAYER
 70
     0
  3

 72
    65
 73
     0
 40
0.0
  0
LTYPE
  5
25
330
21
100
AcDbSymbolTableRecord
100
AcDbLinetypeTableRecord
  2
CONTINUOUS
 70
     0
  3
Solid line
 72
    65
 73
     0
 40
0.0
  0
ENDTAB
  0
TABLE
  2
LAYER
  5
B06
330
0
100
AcDbSymbolTable
 70
3
  0
LAYER
  5
B07
330
B06
100
AcDbSymbolTableRecord
100
AcDbLayerTableRecord
  2
0
 70
   0
 62
   7
  6
CONTINUOUS
  0
LAYER
  5
B08
330
B06
100
AcDbSymbolTableRecord
100
AcDbLayerTableRecord
  2
none
 70
    0
 62
    7
  6
CONTINUOUS
  0
LAYER
  5
B09
330
B06
100
AcDbSymbolTableRecord
100
AcDbLayerTableRecord
  2
Body
 70
    0
 62
    7
  6
CONTINUOUS
  0
ENDTAB
  0
TABLE
  2
STYLE
  5
70
330
0
100
AcDbSymbolTable
 70
     2
  0
STYLE
  5
71
330
70
100
AcDbSymbolTableRecord
100
AcDbTextStyleTableRecord
  2
STANDARD
 70
     0
 40
0.0
 41
1.0
 50
0.0
 71
     0
 42
2.5
  3
arial.ttf
  4

  0
STYLE
  5
72
330
70
100
AcDbSymbolTableRecord
100
AcDbTextStyleTableRecord
  2
ANNOTATIVE
 70
     0
 40
0.0
 41
1.0
 50
0.0
 71
     0
 42
2.5
  3
arial.ttf
  4

  0
ENDTAB
  0
TABLE
  2
VIEW
  5
73
330
0
100
AcDbSymbolTable
 70
     0
  0
ENDTAB
  0
TABLE
  2
UCS
  5
74
330
0
100
AcDbSymbolTable
 70
     0
  0
ENDTAB
  0
TABLE
  2
APPID
  5
75
330
0
100
AcDbSymbolTable
 70
     2
  0
APPID
  5
76
330
75
100
AcDbSymbolTableRecord
100
AcDbRegAppTableRecord
  2
ACAD
 70
     0
  0
APPID
  5
77
330
75
100
AcDbSymbolTableRecord
100
AcDbRegAppTableRecord
  2
ACADANNOTATIVE
 70
     0
  0
ENDTAB
  0
TABLE
  2
DIMSTYLE
  5
78
330
0
100
AcDbSymbolTable
 70
     2
  0
DIMSTYLE
105
79
330
78
100
AcDbSymbolTableRecord
100
AcDbDimStyleTableRecord
  2
STANDARD
 70
     0
  3

  4

  5

  6

  7

 40
0.0
 41
2.5
 42
0.625
 43
3.75
 44
1.25
 45
0.0
 46
0.0
 47
0.0
 48
0.0
140
2.5
141
2.5
142
0.0
143
0.03937007874016
144
1.0
145
0.0
146
1.0
147
0.625
 71
     0
 72
     0
 73
     0
 74
     0
 75
     0
 76
     0
 77
     1
 78
     8
170
     0
171
     3
172
     1
173
     0
174
     0
175
     0
176
     0
177
     0
178
     0
270
     2
271
     2
272
     2
273
     2
274
     3
340
71
275
     0
280
     0
281
     0
282
     0
283
     0
284
     8
285
     0
286
     0
287
     3
288
     0
  0
ENDTAB
  0
TABLE
  2
BLOCK_RECORD
  5
A01
330
0
100
AcDbSymbolTable
  70
5
  0
BLOCK_RECORD
  5
A02
330
A01
100
AcDbSymbolTableRecord
100
AcDbBlockTableRecord
  2
*MODEL_SPACE
  0
BLOCK_RECORD
  5
A03
330
A01
100
AcDbSymbolTableRecord
100
AcDbBlockTableRecord
  2
*PAPER_SPACE
  0
ENDTAB
  0
ENDSEC
  0
SECTION
  2
BLOCKS
  0
BLOCK
  5
A04
330
A02
100
AcDbEntity
  8
0
100
AcDbBlockBegin
  2
*MODEL_SPACE
 70
   0
 10
0
 20
0
 30
0
  3
*MODEL_SPACE
  1
 
  0
ENDBLK
  5
A05
330
A02
100
AcDbEntity
  8
0
100
AcDbBlockEnd
  0
BLOCK
  5
A06
330
A03
100
AcDbEntity
 67
1
  8
0
100
AcDbBlockBegin
  2
*PAPER_SPACE
 70
   0
 10
0
 20
0
 30
0
  3
*PAPER_SPACE
  1
 
  0
ENDBLK
  5
A07
330
A03
100
AcDbEntity
 67
    1
  8
0
100
AcDbBlockEnd
  0
ENDSEC
  0
SECTION
  2
ENTITIES
  0
CIRCLE
  5
A08
330
A02
100
AcDbEntity
  8
Body
100
AcDbCircle
 10
0.000000000
 20
0.000000000
 30
6.400000000
 40
2.900000000
  0
ARC
  5
A09
330
A02
100
AcDbEntity
  8
Body
100
AcDbCircle
 10
0.000000000
 20
0.000000000
 30
6.400000000
 40
1.400000000
100
AcDbArc
 50
0.000000000
 51
-9.999645850
  0
ARC
  5
A0A
330
A02
100
AcDbEntity
  8
Body
100
AcDbCircle
 10
0.000000000
 20
0.000000000
 30
6.400000000
 40
1.400000000
100
AcDbArc
 50
-9.999645850
 51
-0.000000000
  0
ARC
  5
A0B
330
A02
100
AcDbEntity
  8
Body
100
AcDbCircle
 10
2.900000000
 20
0.000000000
 30
6.300000000
 40
0.000000000
100
AcDbArc
 50
0.000000000
 51
0.000000000
  0
CIRCLE
  5
A0C
330
A02
100
AcDbEntity
  8
Body
100
AcDbCircle
 10
0.000000000
 20
0.000000000
 30
6.400000000
 40
2.900000000
  0
CIRCLE
  5
A0D
330
A02
100
AcDbEntity
  8
Body
100
AcDbCircle
 10
0.000000000
 20
0.000000000
 30
6.300000000
 40
3.000000000
  0
ARC
  5
A0E
330
A02
100
AcDbEntity
  8
Body
100
AcDbCircle
 10
2.900000000
 20
0.000000000
 30
6.300000000
 40
0.000000000
100
AcDbArc
 50
0.000000000
 51
0.000000000
  0
LINE
  5
A0F
330
A02
100
AcDbEntity
  8
Body
100
AcDbLine
 10
1.400000000
 20
0.000000000
 30
6.400000000
 11
1.122638173
 21
0.000000000
 31
6.122638173
  0
SPLINE
  5
A10
330
A02
100
AcDbEntity
  8
Body
100
AcDbSpline
210
0
220
0
230
1
 70
8
 71
3
 72
26
 73
22
 74
0
 40
0.000000000
 40
0.000000000
 40
0.000000000
 40
0.000000000
 40
0.152442076
 40
0.152442076
 40
0.152442076
 40
0.334288889
 40
0.334288889
 40
0.334288889
 40
0.445416972
 40
0.445416972
 40
0.445416972
 40
0.573563337
 40
0.573563337
 40
0.573563337
 40
0.742257636
 40
0.742257636
 40
0.742257636
 40
0.848606753
 40
0.848606753
 40
0.848606753
 40
1.000000000
 40
1.000000000
 40
1.000000000
 40
1.000000000
 10
1.122638173
 20
-0.000000000
 30
6.122638173
 10
1.134925454
 20
0.279313506
 30
6.133928089
 10
1.037391638
 20
0.564181451
 30
6.145145385
 10
0.852784256
 20
0.780888936
 30
6.156299493
 10
0.634706056
 20
1.041621694
 30
6.169605927
 10
0.294201096
 20
1.198768633
 30
6.182826526
 10
-0.052582376
 20
1.194797986
 30
6.195954486
 10
-0.264069273
 20
1.193796909
 30
6.203975958
 10
-0.476161052
 20
1.135116132
 30
6.211962651
 10
-0.660116100
 20
1.025887662
 30
6.219917522
 10
-0.872680992
 20
0.900588110
 30
6.229090536
 10
-1.046609043
 20
0.708043777
 30
6.238222487
 10
-1.150860332
 20
0.480939691
 30
6.247310102
 10
-1.290025019
 20
0.182527626
 30
6.259274891
 10
-1.304112860
 20
-0.173994284
 30
6.271155362
 10
-1.186839899
 20
-0.487246547
 30
6.282964591
 10
-1.114007142
 20
-0.684835604
 30
6.290408874
 10
-0.991096631
 20
-0.864742134
 30
6.297828061
 10
-0.831979124
 20
-1.005689047
 30
6.305220182
 10
-0.606097639
 20
-1.207345891
 30
6.315745570
 10
-0.306536180
 20
-1.327048404
 30
6.326201227
 10
0.000000000
 20
-1.336602228
 30
6.336602228
  0
SPLINE
  5
A11
330
A02
100
AcDbEntity
  8
Body
100
AcDbSpline
210
0
220
0
230
1
 70
8
 71
3
 72
11
 73
7
 74
0
 40
0.000000000
 40
0.000000000
 40
0.000000000
 40
0.000000000
 40
0.586798422
 40
0.586798422
 40
0.586798422
 40
1.000000000
 40
1.000000000
 40
1.000000000
 40
1.000000000
 10
0.000000000
 20
-1.336602228
 30
6.336602228
 10
0.369712976
 20
-1.350906026
 30
6.349144761
 10
0.744541901
 20
-1.202099440
 30
6.361603644
 10
1.007469328
 20
-0.934240474
 30
6.373972238
 10
1.193554422
 20
-0.747024905
 30
6.382683608
 10
1.324390638
 20
-0.504009358
 30
6.391360529
 10
1.378731393
 20
-0.243103126
 30
6.399999780
  0
ARC
  5
A12
330
A02
100
AcDbEntity
  8
Body
100
AcDbCircle
 10
0.000000000
 20
0.000000000
 30
6.400000000
 40
1.400000000
100
AcDbArc
 50
0.000000000
 51
-9.999645850
  0
ARC
  5
A13
330
A02
100
AcDbEntity
  8
Body
100
AcDbCircle
 10
0.000000000
 20
0.000000000
 30
6.400000000
 40
1.400000000
100
AcDbArc
 50
-9.999645850
 51
-0.000000000
  0
SPLINE
  5
A14
330
A02
100
AcDbEntity
  8
Body
100
AcDbSpline
210
0
220
0
230
1
 70
8
 71
3
 72
11
 73
7
 74
0
 40
0.000000000
 40
0.000000000
 40
0.000000000
 40
0.000000000
 40
0.473210535
 40
0.473210535
 40
0.473210535
 40
1.000000000
 40
1.000000000
 40
1.000000000
 40
1.000000000
 10
0.000000000
 20
-1.163396292
 30
6.163396292
 10
0.266765224
 20
-1.203077795
 30
6.202232201
 10
0.554753417
 20
-1.145483433
 30
6.240307439
 10
0.798052198
 20
-0.997827878
 30
6.277711933
 10
1.070013849
 20
-0.835149007
 30
6.319352696
 10
1.283111198
 20
-0.561724300
 30
6.360091987
 10
1.378731393
 20
-0.243103126
 30
6.399999780
  0
SPLINE
  5
A15
330
A02
100
AcDbEntity
  8
Body
100
AcDbSpline
210
0
220
0
230
1
 70
8
 71
2
 72
6
 73
3
 74
0
 40
0.000000000
 40
0.000000000
 40
0.000000000
 40
1.000000000
 40
1.000000000
 40
1.000000000
 10
-0.401953062
 20
-1.023930533
 30
6.100000000
 10
-0.217782527
 20
-1.130976526
 30
6.132030182
 10
0.000000000
 20
-1.163396292
 30
6.163396292
  0
ARC
  5
A16
330
A02
100
AcDbEntity
  8
Body
100
AcDbCircle
 10
0.000000000
 20
0.000000000
 30
6.100000000
 40
1.100000000
100
AcDbArc
 50
-111.432932337
 51
-28.559371677
  0
SPLINE
  5
A17
330
A02
100
AcDbEntity
  8
Body
100
AcDbSpline
210
0
220
0
230
1
 70
8
 71
3
 72
8
 73
4
 74
0
 40
0.000000000
 40
0.000000000
 40
0.000000000
 40
0.000000000
 40
1.000000000
 40
1.000000000
 40
1.000000000
 40
1.000000000
 10
0.966154414
 20
-0.525876078
 30
6.100000000
 10
1.060714141
 20
-0.368417341
 30
6.107573761
 10
1.115319068
 20
-0.185862768
 30
6.115121390
 10
1.122638173
 20
0.000000000
 30
6.122638173
  0
LINE
  5
A18
330
A02
100
AcDbEntity
  8
Body
100
AcDbLine
 10
1.400000000
 20
0.000000000
 30
6.400000000
 11
1.122638173
 21
0.000000000
 31
6.122638173
  0
LINE
  5
A19
330
A02
100
AcDbEntity
  8
Body
100
AcDbLine
 10
3.000000000
 20
0.000000000
 30
1.500000000
 11
3.000000000
 21
0.000000000
 31
6.300000000
  0
CIRCLE
  5
A1A
330
A02
100
AcDbEntity
  8
Body
100
AcDbCircle
 10
0.000000000
 20
0.000000000
 30
1.500000000
 40
3.000000000
  0
CIRCLE
  5
A1B
330
A02
100
AcDbEntity
  8
Body
100
AcDbCircle
 10
0.000000000
 20
0.000000000
 30
6.300000000
 40
3.000000000
  0
LINE
  5
A1C
330
A02
100
AcDbEntity
  8
Body
100
AcDbLine
 10
3.000000000
 20
0.000000000
 30
1.500000000
 11
3.000000000
 21
0.000000000
 31
6.300000000
  0
SPLINE
  5
A1D
330
A02
100
AcDbEntity
  8
Body
100
AcDbSpline
210
0
220
0
230
1
 70
8
 71
3
 72
8
 73
4
 74
0
 40
0.000000000
 40
0.000000000
 40
0.000000000
 40
0.000000000
 40
0.999992188
 40
0.999992188
 40
0.999992188
 40
0.999992188
 10
0.000000000
 20
-1.100000000
 30
6.023204622
 10
0.395062729
 20
-1.103825742
 30
6.048813471
 10
0.780653944
 20
-0.874688328
 30
6.074402756
 10
0.966154414
 20
-0.525876078
 30
6.100000000
  0
SPLINE
  5
A1E
330
A02
100
AcDbEntity
  8
Body
100
AcDbSpline
210
0
220
0
230
1
 70
8
 71
3
 72
8
 73
4
 74
0
 40
0.000000000
 40
0.000000000
 40
0.000000000
 40
0.000000000
 40
1.000000000
 40
1.000000000
 40
1.000000000
 40
1.000000000
 10
0.966154414
 20
-0.525876078
 30
6.100000000
 10
1.060714141
 20
-0.368417341
 30
6.107573761
 10
1.115319068
 20
-0.185862768
 30
6.115121390
 10
1.122638173
 20
0.000000000
 30
6.122638173
  0
SPLINE
  5
A1F
330
A02
100
AcDbEntity
  8
Body
100
AcDbSpline
210
0
220
0
230
1
 70
8
 71
3
 72
26
 73
22
 74
0
 40
0.000000000
 40
0.000000000
 40
0.000000000
 40
0.000000000
 40
0.152442076
 40
0.152442076
 40
0.152442076
 40
0.334288889
 40
0.334288889
 40
0.334288889
 40
0.445416972
 40
0.445416972
 40
0.445416972
 40
0.573563337
 40
0.573563337
 40
0.573563337
 40
0.742257636
 40
0.742257636
 40
0.742257636
 40
0.848606753
 40
0.848606753
 40
0.848606753
 40
1.000000000
 40
1.000000000
 40
1.000000000
 40
1.000000000
 10
1.122638173
 20
-0.000000000
 30
6.122638173
 10
1.134925454
 20
0.279313506
 30
6.133928089
 10
1.037391638
 20
0.564181451
 30
6.145145385
 10
0.852784256
 20
0.780888936
 30
6.156299493
 10
0.634706056
 20
1.041621694
 30
6.169605927
 10
0.294201096
 20
1.198768633
 30
6.182826526
 10
-0.052582376
 20
1.194797986
 30
6.195954486
 10
-0.264069273
 20
1.193796909
 30
6.203975958
 10
-0.476161052
 20
1.135116132
 30
6.211962651
 10
-0.660116100
 20
1.025887662
 30
6.219917522
 10
-0.872680992
 20
0.900588110
 30
6.229090536
 10
-1.046609043
 20
0.708043777
 30
6.238222487
 10
-1.150860332
 20
0.480939691
 30
6.247310102
 10
-1.290025019
 20
0.182527626
 30
6.259274891
 10
-1.304112860
 20
-0.173994284
 30
6.271155362
 10
-1.186839899
 20
-0.487246547
 30
6.282964591
 10
-1.114007142
 20
-0.684835604
 30
6.290408874
 10
-0.991096631
 20
-0.864742134
 30
6.297828061
 10
-0.831979124
 20
-1.005689047
 30
6.305220182
 10
-0.606097639
 20
-1.207345891
 30
6.315745570
 10
-0.306536180
 20
-1.327048404
 30
6.326201227
 10
0.000000000
 20
-1.336602228
 30
6.336602228
  0
SPLINE
  5
A20
330
A02
100
AcDbEntity
  8
Body
100
AcDbSpline
210
0
220
0
230
1
 70
8
 71
1
 72
4
 73
2
 74
0
 40
-0.073205441
 40
-0.073205441
 40
-0.000000000
 40
-0.000000000
 10
0.000000000
 20
-1.336602228
 30
6.336602228
 10
0.000000000
 20
-1.400000000
 30
6.299999508
  0
SPLINE
  5
A21
330
A02
100
AcDbEntity
  8
Body
100
AcDbSpline
210
0
220
0
230
1
 70
8
 71
3
 72
29
 73
25
 74
0
 40
0.000000000
 40
0.000000000
 40
0.000000000
 40
0.000000000
 40
0.785403199
 40
0.785403199
 40
0.785403199
 40
1.570806398
 40
1.570806398
 40
1.570806398
 40
2.356209597
 40
2.356209597
 40
2.356209597
 40
3.141612797
 40
3.141612797
 40
3.141612797
 40
3.927015996
 40
3.927015996
 40
3.927015996
 40
4.712419195
 40
4.712419195
 40
4.712419195
 40
5.497822394
 40
5.497822394
 40
5.497822394
 40
6.283225593
 40
6.283225593
 40
6.283225593
 40
6.283225593
 10
0.000000000
 20
-1.400000000
 30
5.849999543
 10
0.367058091
 20
-1.401490846
 30
5.868749440
 10
0.731490213
 20
-1.250530170
 30
5.887499548
 10
0.989942767
 20
-0.989947790
 30
5.906249536
 10
1.250503934
 20
-0.731467556
 30
5.924999542
 10
1.401482445
 20
-0.367032809
 30
5.943749521
 10
1.400007887
 20
-0.000001616
 30
5.962499519
 10
1.401505679
 20
0.367029241
 30
5.981249515
 10
1.250536431
 20
0.731472194
 30
5.999999525
 10
0.989944621
 20
0.989951011
 30
6.018749530
 10
0.731453282
 20
1.250531136
 30
6.037499536
 10
0.367018226
 20
1.401484062
 30
6.056249532
 10
-0.000000000
 20
1.399998497
 30
6.074999526
 10
-0.367018227
 20
1.401484062
 30
6.093749519
 10
-0.731453282
 20
1.250531136
 30
6.112499516
 10
-0.989944621
 20
0.989951011
 30
6.131249522
 10
-1.250536431
 20
0.731472193
 30
6.149999527
 10
-1.401505680
 20
0.367029240
 30
6.168749537
 10
-1.400007887
 20
-0.000001617
 30
6.187499533
 10
-1.401482444
 20
-0.367032809
 30
6.206249531
 10
-1.250503934
 20
-0.731467557
 30
6.224999510
 10
-0.989942766
 20
-0.989947790
 30
6.243749515
 10
-0.731490213
 20
-1.250530170
 30
6.262499504
 10
-0.367058091
 20
-1.401490846
 30
6.281249611
 10
0.000000000
 20
-1.400000000
 30
6.299999508
  0
SPLINE
  5
A22
330
A02
100
AcDbEntity
  8
Body
100
AcDbSpline
210
0
220
0
230
1
 70
8
 71
1
 72
4
 73
2
 74
0
 40
-0.346410161
 40
-0.346410161
 40
-0.000000000
 40
-0.000000000
 10
0.000000000
 20
-1.100000000
 30
6.023204622
 10
0.000000000
 20
-1.400000000
 30
5.849999543
  0
SPLINE
  5
A23
330
A02
100
AcDbEntity
  8
Body
100
AcDbSpline
210
0
220
0
230
1
 70
8
 71
3
 72
11
 73
7
 74
0
 40
0.000000000
 40
0.000000000
 40
0.000000000
 40
0.000000000
 40
0.586798422
 40
0.586798422
 40
0.586798422
 40
1.000000000
 40
1.000000000
 40
1.000000000
 40
1.000000000
 10
0.000000000
 20
-1.336602228
 30
6.336602228
 10
0.369712976
 20
-1.350906026
 30
6.349144761
 10
0.744541901
 20
-1.202099440
 30
6.361603644
 10
1.007469328
 20
-0.934240474
 30
6.373972238
 10
1.193554422
 20
-0.747024905
 30
6.382683608
 10
1.324390638
 20
-0.504009358
 30
6.391360529
 10
1.378731393
 20
-0.243103126
 30
6.399999780
  0
SPLINE
  5
A24
330
A02
100
AcDbEntity
  8
Body
100
AcDbSpline
210
0
220
0
230
1
 70
8
 71
3
 72
11
 73
7
 74
0
 40
0.000000000
 40
0.000000000
 40
0.000000000
 40
0.000000000
 40
0.698139757
 40
0.698139757
 40
0.698139757
 40
1.396279514
 40
1.396279514
 40
1.396279514
 40
1.396279514
 10
0.000000000
 20
-1.400000000
 30
6.299999508
 10
0.326102654
 20
-1.400944539
 30
6.316666163
 10
0.650745423
 20
-1.282783723
 30
6.333333003
 10
0.899905882
 20
-1.072457818
 30
6.349999754
 10
1.150282009
 20
-0.863573730
 30
6.366666518
 10
1.323022702
 20
-0.564389603
 30
6.383333255
 10
1.378732140
 20
-0.243098889
 30
6.400000000
  0
SPLINE
  5
A25
330
A02
100
AcDbEntity
  8
Body
100
AcDbSpline
210
0
220
0
230
1
 70
8
 71
1
 72
4
 73
2
 74
0
 40
-0.073205441
 40
-0.073205441
 40
-0.000000000
 40
-0.000000000
 10
0.000000000
 20
-1.336602228
 30
6.336602228
 10
0.000000000
 20
-1.400000000
 30
6.299999508
  0
SPLINE
  5
A26
330
A02
100
AcDbEntity
  8
Body
100
AcDbSpline
210
0
220
0
230
1
 70
8
 71
3
 72
11
 73
7
 74
0
 40
0.000000000
 40
0.000000000
 40
0.000000000
 40
0.000000000
 40
0.698139757
 40
0.698139757
 40
0.698139757
 40
1.396279514
 40
1.396279514
 40
1.396279514
 40
1.396279514
 10
0.000000000
 20
-1.400000000
 30
6.299999508
 10
0.326102654
 20
-1.400944539
 30
6.316666163
 10
0.650745423
 20
-1.282783723
 30
6.333333003
 10
0.899905882
 20
-1.072457818
 30
6.349999754
 10
1.150282009
 20
-0.863573730
 30
6.366666518
 10
1.323022702
 20
-0.564389603
 30
6.383333255
 10
1.378732140
 20
-0.243098889
 30
6.400000000
  0
SPLINE
  5
A27
330
A02
100
AcDbEntity
  8
Body
100
AcDbSpline
210
0
220
0
230
1
 70
8
 71
3
 72
11
 73
7
 74
0
 40
0.000000000
 40
0.000000000
 40
0.000000000
 40
0.000000000
 40
0.473210535
 40
0.473210535
 40
0.473210535
 40
1.000000000
 40
1.000000000
 40
1.000000000
 40
1.000000000
 10
0.000000000
 20
-1.163396292
 30
6.163396292
 10
0.266765224
 20
-1.203077795
 30
6.202232201
 10
0.554753417
 20
-1.145483433
 30
6.240307439
 10
0.798052198
 20
-0.997827878
 30
6.277711933
 10
1.070013849
 20
-0.835149007
 30
6.319352696
 10
1.283111198
 20
-0.561724300
 30
6.360091987
 10
1.378731393
 20
-0.243103126
 30
6.399999780
  0
SPLINE
  5
A28
330
A02
100
AcDbEntity
  8
Body
100
AcDbSpline
210
0
220
0
230
1
 70
8
 71
1
 72
4
 73
2
 74
0
 40
-1.000000000
 40
-1.000000000
 40
-0.726793570
 40
-0.726793570
 10
0.000000000
 20
-1.400000000
 30
6.299999508
 10
0.000000000
 20
-1.163396292
 30
6.163396292
  0
SPLINE
  5
A29
330
A02
100
AcDbEntity
  8
Body
100
AcDbSpline
210
0
220
0
230
1
 70
8
 71
3
 72
29
 73
25
 74
0
 40
0.000000000
 40
0.000000000
 40
0.000000000
 40
0.000000000
 40
0.785403199
 40
0.785403199
 40
0.785403199
 40
1.570806398
 40
1.570806398
 40
1.570806398
 40
2.356209597
 40
2.356209597
 40
2.356209597
 40
3.141612797
 40
3.141612797
 40
3.141612797
 40
3.927015996
 40
3.927015996
 40
3.927015996
 40
4.712419195
 40
4.712419195
 40
4.712419195
 40
5.497822394
 40
5.497822394
 40
5.497822394
 40
6.283225593
 40
6.283225593
 40
6.283225593
 40
6.283225593
 10
0.000000000
 20
-1.400000000
 30
5.849999543
 10
0.367058091
 20
-1.401490846
 30
5.868749440
 10
0.731490213
 20
-1.250530170
 30
5.887499548
 10
0.989942767
 20
-0.989947790
 30
5.906249536
 10
1.250503934
 20
-0.731467556
 30
5.924999542
 10
1.401482445
 20
-0.367032809
 30
5.943749521
 10
1.400007887
 20
-0.000001616
 30
5.962499519
 10
1.401505679
 20
0.367029241
 30
5.981249515
 10
1.250536431
 20
0.731472194
 30
5.999999525
 10
0.989944621
 20
0.989951011
 30
6.018749530
 10
0.731453282
 20
1.250531136
 30
6.037499536
 10
0.367018226
 20
1.401484062
 30
6.056249532
 10
-0.000000000
 20
1.399998497
 30
6.074999526
 10
-0.367018227
 20
1.401484062
 30
6.093749519
 10
-0.731453282
 20
1.250531136
 30
6.112499516
 10
-0.989944621
 20
0.989951011
 30
6.131249522
 10
-1.250536431
 20
0.731472193
 30
6.149999527
 10
-1.401505680
 20
0.367029240
 30
6.168749537
 10
-1.400007887
 20
-0.000001617
 30
6.187499533
 10
-1.401482444
 20
-0.367032809
 30
6.206249531
 10
-1.250503934
 20
-0.731467557
 30
6.224999510
 10
-0.989942766
 20
-0.989947790
 30
6.243749515
 10
-0.731490213
 20
-1.250530170
 30
6.262499504
 10
-0.367058091
 20
-1.401490846
 30
6.281249611
 10
0.000000000
 20
-1.400000000
 30
6.299999508
  0
SPLINE
  5
A2A
330
A02
100
AcDbEntity
  8
Body
100
AcDbSpline
210
0
220
0
230
1
 70
8
 71
1
 72
4
 73
2
 74
0
 40
-1.000000000
 40
-1.000000000
 40
-0.726793570
 40
-0.726793570
 10
0.000000000
 20
-1.400000000
 30
6.299999508
 10
0.000000000
 20
-1.163396292
 30
6.163396292
  0
SPLINE
  5
A2B
330
A02
100
AcDbEntity
  8
Body
100
AcDbSpline
210
0
220
0
230
1
 70
8
 71
2
 72
6
 73
3
 74
0
 40
0.000000000
 40
0.000000000
 40
0.000000000
 40
1.000000000
 40
1.000000000
 40
1.000000000
 10
-0.401953062
 20
-1.023930533
 30
6.100000000
 10
-0.217782527
 20
-1.130976526
 30
6.132030182
 10
0.000000000
 20
-1.163396292
 30
6.163396292
  0
SPLINE
  5
A2C
330
A02
100
AcDbEntity
  8
Body
100
AcDbSpline
210
0
220
0
230
1
 70
8
 71
3
 72
20
 73
16
 74
0
 40
0.000000000
 40
0.000000000
 40
0.000000000
 40
0.000000000
 40
0.240869069
 40
0.240869069
 40
0.240869069
 40
0.485043459
 40
0.485043459
 40
0.485043459
 40
0.706274487
 40
0.706274487
 40
0.706274487
 40
0.849655987
 40
0.849655987
 40
0.849655987
 40
0.999998069
 40
0.999998069
 40
0.999998069
 40
0.999998069
 10
1.100000000
 20
-0.000000000
 30
5.789290945
 10
1.103484029
 20
0.384771313
 30
5.814229624
 10
0.886663290
 20
0.761312923
 30
5.839194441
 10
0.552064545
 20
0.951432992
 30
5.864141027
 10
0.216430514
 20
1.150408439
 30
5.889427693
 10
-0.225345158
 20
1.148692308
 30
5.914717599
 10
-0.559416236
 20
0.947129070
 30
5.940007360
 10
-0.864626574
 20
0.769787593
 30
5.962920027
 10
-1.071870316
 20
0.437315863
 30
5.985820689
 10
-1.096695646
 20
0.085197776
 30
6.008736963
 10
-1.114840087
 20
-0.142286611
 30
6.023589356
 10
-1.059534204
 20
-0.374835728
 30
6.038447710
 10
-0.940920470
 20
-0.569797043
 30
6.053297418
 10
-0.817444175
 20
-0.774790504
 30
6.068868192
 10
-0.624912254
 20
-0.937014711
 30
6.084428492
 10
-0.401953062
 20
-1.023930533
 30
6.100000000
  0
SPLINE
  5
A2D
330
A02
100
AcDbEntity
  8
Body
100
AcDbSpline
210
0
220
0
230
1
 70
8
 71
3
 72
11
 73
7
 74
0
 40
0.000000000
 40
0.000000000
 40
0.000000000
 40
0.000000000
 40
0.373890789
 40
0.373890789
 40
0.373890789
 40
1.000000000
 40
1.000000000
 40
1.000000000
 40
1.000000000
 10
0.000000000
 20
-1.100000000
 30
5.676794461
 10
0.215440803
 20
-1.100376123
 30
5.690813777
 10
0.430404802
 20
-1.035370697
 30
5.704827621
 10
0.609531839
 20
-0.915680587
 30
5.718854707
 10
0.912257133
 20
-0.717490775
 30
5.742346453
 10
1.102764548
 20
-0.361835108
 30
5.765820415
 10
1.100000000
 20
-0.000000000
 30
5.789290945
  0
SPLINE
  5
A2E
330
A02
100
AcDbEntity
  8
Body
100
AcDbSpline
210
0
220
0
230
1
 70
8
 71
1
 72
4
 73
2
 74
0
 40
-1.000000000
 40
-1.000000000
 40
-0.653589838
 40
-0.653589838
 10
0.000000000
 20
-1.400000000
 30
5.849999543
 10
0.000000000
 20
-1.100000000
 30
5.676794461
  0
ARC
  5
A2F
330
A02
100
AcDbEntity
  8
Body
100
AcDbCircle
 10
2.900000000
 20
-0.000000000
 30
1.500000000
 40
0.100000000
100
AcDbArc
 50
0.000000000
 51
-0.000000000
  0
CIRCLE
  5
A30
330
A02
100
AcDbEntity
  8
Body
100
AcDbCircle
 10
0.000000000
 20
0.000000000
 30
1.500000000
 40
3.000000000
  0
CIRCLE
  5
A31
330
A02
100
AcDbEntity
  8
Body
100
AcDbCircle
 10
0.000000000
 20
0.000000000
 30
1.400000000
 40
2.900000000
  0
ARC
  5
A32
330
A02
100
AcDbEntity
  8
Body
100
AcDbCircle
 10
2.900000000
 20
-0.000000000
 30
1.500000000
 40
0.100000000
100
AcDbArc
 50
0.000000000
 51
-0.000000000
  0
SPLINE
  5
A33
330
A02
100
AcDbEntity
  8
Body
100
AcDbSpline
210
0
220
0
230
1
 70
8
 71
3
 72
11
 73
7
 74
0
 40
0.000000000
 40
0.000000000
 40
0.000000000
 40
0.000000000
 40
0.365340402
 40
0.365340402
 40
0.365340402
 40
1.000000000
 40
1.000000000
 40
1.000000000
 40
1.000000000
 10
0.000000000
 20
-1.100000000
 30
5.573204657
 10
0.210506786
 20
-1.100343425
 30
5.586904921
 10
0.420588485
 20
-1.038350957
 30
5.600611671
 10
0.597181306
 20
-0.923782706
 30
5.614307469
 10
0.906830346
 20
-0.727074348
 30
5.638096385
 10
1.102909824
 20
-0.366839099
 30
5.661899062
 10
1.100000000
 20
-0.000000000
 30
5.685708289
  0
SPLINE
  5
A34
330
A02
100
AcDbEntity
  8
Body
100
AcDbSpline
210
0
220
0
230
1
 70
8
 71
3
 72
23
 73
19
 74
0
 40
0.000000000
 40
0.000000000
 40
0.000000000
 40
0.000000000
 40
0.046541791
 40
0.046541791
 40
0.046541791
 40
0.264989684
 40
0.264989684
 40
0.264989684
 40
0.446240747
 40
0.446240747
 40
0.446240747
 40
0.622684086
 40
0.622684086
 40
0.622684086
 40
0.783636851
 40
0.783636851
 40
0.783636851
 40
1.000000000
 40
1.000000000
 40
1.000000000
 40
1.000000000
 10
1.100000000
 20
-0.000000000
 30
5.685708289
 10
1.099972300
 20
0.080731257
 30
5.690945024
 10
1.091190512
 20
0.160498786
 30
5.696181136
 10
1.073654633
 20
0.239302588
 30
5.701416625
 10
0.994398584
 20
0.609985924
 30
5.725995503
 10
0.708624846
 20
0.926694065
 30
5.750563505
 10
0.348008611
 20
1.043498925
 30
5.775147823
 10
0.050881158
 20
1.144291745
 30
5.795539002
 10
-0.288564974
 20
1.108480303
 30
5.815926761
 10
-0.558124258
 20
0.947890981
 30
5.836315049
 10
-0.822043426
 20
0.794181460
 30
5.856164391
 10
-1.015087603
 20
0.525428898
 30
5.876022807
 10
-1.076481269
 20
0.226247823
 30
5.895873344
 10
-1.134748632
 20
-0.046029448
 30
5.913980904
 10
-1.083742809
 20
-0.339522679
 30
5.932075601
 10
-0.937026777
 20
-0.576177767
 30
5.950182721
 10
-0.743155828
 20
-0.897505179
 30
5.974526261
 10
-0.375278397
 20
-1.103162261
 30
5.998876450
 10
0.000000000
 20
-1.100000000
 30
6.023204622
  0
SPLINE
  5
A35
330
A02
100
AcDbEntity
  8
Body
100
AcDbSpline
210
0
220
0
230
1
 70
8
 71
1
 72
4
 73
2
 74
0
 40
-0.346410161
 40
-0.346410161
 40
-0.000000000
 40
-0.000000000
 10
0.000000000
 20
-1.100000000
 30
6.023204622
 10
0.000000000
 20
-1.400000000
 30
5.849999543
  0
SPLINE
  5
A36
330
A02
100
AcDbEntity
  8
Body
100
AcDbSpline
210
0
220
0
230
1
 70
8
 71
3
 72
29
 73
25
 74
0
 40
0.000000000
 40
0.000000000
 40
0.000000000
 40
0.000000000
 40
0.785403199
 40
0.785403199
 40
0.785403199
 40
1.570806398
 40
1.570806398
 40
1.570806398
 40
2.356209597
 40
2.356209597
 40
2.356209597
 40
3.141612797
 40
3.141612797
 40
3.141612797
 40
3.927015996
 40
3.927015996
 40
3.927015996
 40
4.712419195
 40
4.712419195
 40
4.712419195
 40
5.497822394
 40
5.497822394
 40
5.497822394
 40
6.283225593
 40
6.283225593
 40
6.283225593
 40
6.283225593
 10
0.000000000
 20
-1.400000000
 30
5.399999578
 10
0.367058091
 20
-1.401490846
 30
5.418749475
 10
0.731490213
 20
-1.250530170
 30
5.437499583
 10
0.989942767
 20
-0.989947790
 30
5.456249571
 10
1.250503934
 20
-0.731467556
 30
5.474999577
 10
1.401482445
 20
-0.367032809
 30
5.493749556
 10
1.400007887
 20
-0.000001616
 30
5.512499554
 10
1.401505679
 20
0.367029241
 30
5.531249550
 10
1.250536431
 20
0.731472194
 30
5.549999560
 10
0.989944621
 20
0.989951011
 30
5.568749565
 10
0.731453282
 20
1.250531136
 30
5.587499571
 10
0.367018226
 20
1.401484062
 30
5.606249567
 10
-0.000000000
 20
1.399998497
 30
5.624999561
 10
-0.367018227
 20
1.401484062
 30
5.643749555
 10
-0.731453282
 20
1.250531136
 30
5.662499551
 10
-0.989944621
 20
0.989951011
 30
5.681249557
 10
-1.250536431
 20
0.731472193
 30
5.699999562
 10
-1.401505680
 20
0.367029240
 30
5.718749572
 10
-1.400007887
 20
-0.000001617
 30
5.737499568
 10
-1.401482444
 20
-0.367032809
 30
5.756249566
 10
-1.250503934
 20
-0.731467557
 30
5.774999545
 10
-0.989942766
 20
-0.989947790
 30
5.793749551
 10
-0.731490213
 20
-1.250530170
 30
5.812499539
 10
-0.367058091
 20
-1.401490846
 30
5.831249646
 10
0.000000000
 20
-1.400000000
 30
5.849999543
  0
SPLINE
  5
A37
330
A02
100
AcDbEntity
  8
Body
100
AcDbSpline
210
0
220
0
230
1
 70
8
 71
1
 72
4
 73
2
 74
0
 40
-0.346410161
 40
-0.346410161
 40
-0.000000000
 40
-0.000000000
 10
0.000000000
 20
-1.100000000
 30
5.573204657
 10
0.000000000
 20
-1.400000000
 30
5.399999578
  0
SPLINE
  5
A38
330
A02
100
AcDbEntity
  8
Body
100
AcDbSpline
210
0
220
0
230
1
 70
8
 71
3
 72
29
 73
25
 74
0
 40
0.000000000
 40
0.000000000
 40
0.000000000
 40
0.000000000
 40
0.785403199
 40
0.785403199
 40
0.785403199
 40
1.570806398
 40
1.570806398
 40
1.570806398
 40
2.356209597
 40
2.356209597
 40
2.356209597
 40
3.141612797
 40
3.141612797
 40
3.141612797
 40
3.927015996
 40
3.927015996
 40
3.927015996
 40
4.712419195
 40
4.712419195
 40
4.712419195
 40
5.497822394
 40
5.497822394
 40
5.497822394
 40
6.283225593
 40
6.283225593
 40
6.283225593
 40
6.283225593
 10
0.000000000
 20
-1.400000000
 30
5.399999578
 10
0.367058091
 20
-1.401490846
 30
5.418749475
 10
0.731490213
 20
-1.250530170
 30
5.437499583
 10
0.989942767
 20
-0.989947790
 30
5.456249571
 10
1.250503934
 20
-0.731467556
 30
5.474999577
 10
1.401482445
 20
-0.367032809
 30
5.493749556
 10
1.400007887
 20
-0.000001616
 30
5.512499554
 10
1.401505679
 20
0.367029241
 30
5.531249550
 10
1.250536431
 20
0.731472194
 30
5.549999560
 10
0.989944621
 20
0.989951011
 30
5.568749565
 10
0.731453282
 20
1.250531136
 30
5.587499571
 10
0.367018226
 20
1.401484062
 30
5.606249567
 10
-0.000000000
 20
1.399998497
 30
5.624999561
 10
-0.367018227
 20
1.401484062
 30
5.643749555
 10
-0.731453282
 20
1.250531136
 30
5.662499551
 10
-0.989944621
 20
0.989951011
 30
5.681249557
 10
-1.250536431
 20
0.731472193
 30
5.699999562
 10
-1.401505680
 20
0.367029240
 30
5.718749572
 10
-1.400007887
 20
-0.000001617
 30
5.737499568
 10
-1.401482444
 20
-0.367032809
 30
5.756249566
 10
-1.250503934
 20
-0.731467557
 30
5.774999545
 10
-0.989942766
 20
-0.989947790
 30
5.793749551
 10
-0.731490213
 20
-1.250530170
 30
5.812499539
 10
-0.367058091
 20
-1.401490846
 30
5.831249646
 10
0.000000000
 20
-1.400000000
 30
5.849999543
  0
SPLINE
  5
A39
330
A02
100
AcDbEntity
  8
Body
100
AcDbSpline
210
0
220
0
230
1
 70
8
 71
1
 72
4
 73
2
 74
0
 40
-1.000000000
 40
-1.000000000
 40
-0.653589838
 40
-0.653589838
 10
0.000000000
 20
-1.400000000
 30
5.849999543
 10
0.000000000
 20
-1.100000000
 30
5.676794461
  0
SPLINE
  5
A3A
330
A02
100
AcDbEntity
  8
Body
100
AcDbSpline
210
0
220
0
230
1
 70
8
 71
3
 72
20
 73
16
 74
0
 40
0.000000000
 40
0.000000000
 40
0.000000000
 40
0.000000000
 40
0.221744601
 40
0.221744601
 40
0.221744601
 40
0.446504413
 40
0.446504413
 40
0.446504413
 40
0.620601185
 40
0.620601185
 40
0.620601185
 40
0.756144856
 40
0.756144856
 40
0.756144856
 40
1.000000000
 40
1.000000000
 40
1.000000000
 40
1.000000000
 10
1.100000000
 20
-0.000000000
 30
5.339290980
 10
1.103483531
 20
0.384756472
 30
5.364228713
 10
0.886680393
 20
0.761284774
 30
5.389192581
 10
0.552102285
 20
0.951411092
 30
5.414138221
 10
0.216530346
 20
1.150365848
 30
5.439420816
 10
-0.225157541
 20
1.148705261
 30
5.464706644
 10
-0.559217064
 20
0.947246682
 30
5.489992335
 10
-0.819410812
 20
0.795242967
 30
5.509580187
 10
-1.010657906
 20
0.531427272
 30
5.529158051
 10
-1.074195289
 20
0.236863845
 30
5.548745134
 10
-1.125166503
 20
0.008129551
 30
5.563993278
 10
-1.100031344
 20
-0.236637858
 30
5.579249858
 10
-1.003635213
 20
-0.450240334
 30
5.594501094
 10
-0.834630378
 20
-0.839068300
 30
5.621934638
 10
-0.423963217
 20
-1.104949729
 30
5.649351107
 10
0.000000000
 20
-1.100000000
 30
5.676794461
  0
SPLINE
  5
A3B
330
A02
100
AcDbEntity
  8
Body
100
AcDbSpline
210
0
220
0
230
1
 70
8
 71
3
 72
11
 73
7
 74
0
 40
0.000000000
 40
0.000000000
 40
0.000000000
 40
0.000000000
 40
0.373890713
 40
0.373890713
 40
0.373890713
 40
1.000000000
 40
1.000000000
 40
1.000000000
 40
1.000000000
 10
0.000000000
 20
-1.100000000
 30
5.226794496
 10
0.215440760
 20
-1.100376123
 30
5.240813809
 10
0.430404715
 20
-1.035370724
 30
5.254827650
 10
0.609531730
 20
-0.915680660
 30
5.268854734
 10
0.912257085
 20
-0.717490861
 30
5.292346482
 10
1.102764549
 20
-0.361835153
 30
5.315820448
 10
1.100000000
 20
-0.000000000
 30
5.339290980
  0
SPLINE
  5
A3C
330
A02
100
AcDbEntity
  8
Body
100
AcDbSpline
210
0
220
0
230
1
 70
8
 71
1
 72
4
 73
2
 74
0
 40
-1.000000000
 40
-1.000000000
 40
-0.653589838
 40
-0.653589838
 10
0.000000000
 20
-1.400000000
 30
5.399999578
 10
0.000000000
 20
-1.100000000
 30
5.226794496
  0
CIRCLE
  5
A3D
330
A02
100
AcDbEntity
  8
Body
100
AcDbCircle
 10
0.000000000
 20
0.000000000
 30
1.400000000
 40
2.900000000
  0
CIRCLE
  5
A3E
330
A02
100
AcDbEntity
  8
Body
100
AcDbCircle
 10
0.000000000
 20
0.000000000
 30
1.400000000
 40
2.100000000
  0
SPLINE
  5
A3F
330
A02
100
AcDbEntity
  8
Body
100
AcDbSpline
210
0
220
0
230
1
 70
8
 71
3
 72
11
 73
7
 74
0
 40
0.000000000
 40
0.000000000
 40
0.000000000
 40
0.000000000
 40
0.365341218
 40
0.365341218
 40
0.365341218
 40
1.000000000
 40
1.000000000
 40
1.000000000
 40
1.000000000
 10
0.000000000
 20
-1.100000000
 30
5.123204693
 10
0.210507257
 20
-1.100343428
 30
5.136904987
 10
0.420589422
 20
-1.038350676
 30
5.150611767
 10
0.597182490
 20
-0.923781940
 30
5.164307596
 10
0.906830868
 20
-0.727073434
 30
5.188096482
 10
1.102909810
 20
-0.366838621
 30
5.211899128
 10
1.100000000
 20
-0.000000000
 30
5.235708324
  0
SPLINE
  5
A40
330
A02
100
AcDbEntity
  8
Body
100
AcDbSpline
210
0
220
0
230
1
 70
8
 71
3
 72
23
 73
19
 74
0
 40
0.000000000
 40
0.000000000
 40
0.000000000
 40
0.000000000
 40
0.046533961
 40
0.046533961
 40
0.046533961
 40
0.264924104
 40
0.264924104
 40
0.264924104
 40
0.501412387
 40
0.501412387
 40
0.501412387
 40
0.622581992
 40
0.622581992
 40
0.622581992
 40
0.783433614
 40
0.783433614
 40
0.783433614
 40
1.000000000
 40
1.000000000
 40
1.000000000
 40
1.000000000
 10
1.100000000
 20
-0.000000000
 30
5.235708324
 10
1.099972317
 20
0.080718954
 30
5.240944267
 10
1.091193173
 20
0.160474617
 30
5.246179587
 10
1.073662567
 20
0.239266988
 30
5.251414285
 10
0.994436559
 20
0.609859240
 30
5.275987081
 10
0.708800378
 20
0.926517179
 30
5.300548998
 10
0.348309193
 20
1.043398633
 30
5.325127225
 10
-0.039981293
 20
1.177680936
 30
5.351733834
 10
-0.497665840
 20
1.068112269
 30
5.378331839
 10
-0.783055489
 20
0.772543915
 30
5.404937836
 10
-0.930386718
 20
0.623686806
 30
5.418570559
 10
-1.033511972
 20
0.431806568
 30
5.432205967
 10
-1.076365075
 20
0.226799967
 30
5.445836643
 10
-1.134734510
 20
-0.045280718
 30
5.463933158
 10
-1.083982295
 20
-0.338609062
 30
5.482016821
 10
-0.937588715
 20
-0.575262897
 30
5.500112851
 10
-0.743850521
 20
-0.897096221
 30
5.524479642
 10
-0.375643200
 20
-1.103173689
 30
5.548853205
 10
0.000000000
 20
-1.100000000
 30
5.573204657
  0
SPLINE
  5
A41
330
A02
100
AcDbEntity
  8
Body
100
AcDbSpline
210
0
220
0
230
1
 70
8
 71
1
 72
4
 73
2
 74
0
 40
-0.346410161
 40
-0.346410161
 40
-0.000000000
 40
-0.000000000
 10
0.000000000
 20
-1.100000000
 30
5.573204657
 10
0.000000000
 20
-1.400000000
 30
5.399999578
  0
SPLINE
  5
A42
330
A02
100
AcDbEntity
  8
Body
100
AcDbSpline
210
0
220
0
230
1
 70
8
 71
3
 72
29
 73
25
 74
0
 40
0.000000000
 40
0.000000000
 40
0.000000000
 40
0.000000000
 40
0.785403199
 40
0.785403199
 40
0.785403199
 40
1.570806398
 40
1.570806398
 40
1.570806398
 40
2.356209597
 40
2.356209597
 40
2.356209597
 40
3.141612797
 40
3.141612797
 40
3.141612797
 40
3.927015996
 40
3.927015996
 40
3.927015996
 40
4.712419195
 40
4.712419195
 40
4.712419195
 40
5.497822394
 40
5.497822394
 40
5.497822394
 40
6.283225593
 40
6.283225593
 40
6.283225593
 40
6.283225593
 10
0.000000000
 20
-1.400000000
 30
4.949999614
 10
0.367058091
 20
-1.401490846
 30
4.968749510
 10
0.731490213
 20
-1.250530170
 30
4.987499618
 10
0.989942767
 20
-0.989947790
 30
5.006249606
 10
1.250503934
 20
-0.731467557
 30
5.024999612
 10
1.401482445
 20
-0.367032809
 30
5.043749591
 10
1.400007887
 20
-0.000001616
 30
5.062499589
 10
1.401505679
 20
0.367029241
 30
5.081249585
 10
1.250536431
 20
0.731472194
 30
5.099999595
 10
0.989944621
 20
0.989951011
 30
5.118749600
 10
0.731453282
 20
1.250531136
 30
5.137499606
 10
0.367018226
 20
1.401484062
 30
5.156249602
 10
-0.000000000
 20
1.399998497
 30
5.174999596
 10
-0.367018227
 20
1.401484062
 30
5.193749590
 10
-0.731453282
 20
1.250531136
 30
5.212499586
 10
-0.989944621
 20
0.989951011
 30
5.231249592
 10
-1.250536431
 20
0.731472193
 30
5.249999597
 10
-1.401505680
 20
0.367029240
 30
5.268749607
 10
-1.400007887
 20
-0.000001617
 30
5.287499603
 10
-1.401482445
 20
-0.367032809
 30
5.306249601
 10
-1.250503934
 20
-0.731467557
 30
5.324999580
 10
-0.989942766
 20
-0.989947790
 30
5.343749586
 10
-0.731490213
 20
-1.250530170
 30
5.362499574
 10
-0.367058091
 20
-1.401490846
 30
5.381249682
 10
0.000000000
 20
-1.400000000
 30
5.399999578
  0
SPLINE
  5
A43
330
A02
100
AcDbEntity
  8
Body
100
AcDbSpline
210
0
220
0
230
1
 70
8
 71
1
 72
4
 73
2
 74
0
 40
-0.346410161
 40
-0.346410161
 40
-0.000000000
 40
-0.000000000
 10
0.000000000
 20
-1.100000000
 30
5.123204693
 10
0.000000000
 20
-1.400000000
 30
4.949999614
  0
SPLINE
  5
A44
330
A02
100
AcDbEntity
  8
Body
100
AcDbSpline
210
0
220
0
230
1
 70
8
 71
3
 72
29
 73
25
 74
0
 40
0.000000000
 40
0.000000000
 40
0.000000000
 40
0.000000000
 40
0.785403199
 40
0.785403199
 40
0.785403199
 40
1.570806398
 40
1.570806398
 40
1.570806398
 40
2.356209597
 40
2.356209597
 40
2.356209597
 40
3.141612797
 40
3.141612797
 40
3.141612797
 40
3.927015996
 40
3.927015996
 40
3.927015996
 40
4.712419195
 40
4.712419195
 40
4.712419195
 40
5.497822394
 40
5.497822394
 40
5.497822394
 40
6.283225593
 40
6.283225593
 40
6.283225593
 40
6.283225593
 10
0.000000000
 20
-1.400000000
 30
4.949999614
 10
0.367058091
 20
-1.401490846
 30
4.968749510
 10
0.731490213
 20
-1.250530170
 30
4.987499618
 10
0.989942767
 20
-0.989947790
 30
5.006249606
 10
1.250503934
 20
-0.731467557
 30
5.024999612
 10
1.401482445
 20
-0.367032809
 30
5.043749591
 10
1.400007887
 20
-0.000001616
 30
5.062499589
 10
1.401505679
 20
0.367029241
 30
5.081249585
 10
1.250536431
 20
0.731472194
 30
5.099999595
 10
0.989944621
 20
0.989951011
 30
5.118749600
 10
0.731453282
 20
1.250531136
 30
5.137499606
 10
0.367018226
 20
1.401484062
 30
5.156249602
 10
-0.000000000
 20
1.399998497
 30
5.174999596
 10
-0.367018227
 20
1.401484062
 30
5.193749590
 10
-0.731453282
 20
1.250531136
 30
5.212499586
 10
-0.989944621
 20
0.989951011
 30
5.231249592
 10
-1.250536431
 20
0.731472193
 30
5.249999597
 10
-1.401505680
 20
0.367029240
 30
5.268749607
 10
-1.400007887
 20
-0.000001617
 30
5.287499603
 10
-1.401482445
 20
-0.367032809
 30
5.306249601
 10
-1.250503934
 20
-0.731467557
 30
5.324999580
 10
-0.989942766
 20
-0.989947790
 30
5.343749586
 10
-0.731490213
 20
-1.250530170
 30
5.362499574
 10
-0.367058091
 20
-1.401490846
 30
5.381249682
 10
0.000000000
 20
-1.400000000
 30
5.399999578
  0
SPLINE
  5
A45
330
A02
100
AcDbEntity
  8
Body
100
AcDbSpline
210
0
220
0
230
1
 70
8
 71
1
 72
4
 73
2
 74
0
 40
-1.000000000
 40
-1.000000000
 40
-0.653589838
 40
-0.653589838
 10
0.000000000
 20
-1.400000000
 30
5.399999578
 10
0.000000000
 20
-1.100000000
 30
5.226794496
  0
SPLINE
  5
A46
330
A02
100
AcDbEntity
  8
Body
100
AcDbSpline
210
0
220
0
230
1
 70
8
 71
3
 72
20
 73
16
 74
0
 40
0.000000000
 40
0.000000000
 40
0.000000000
 40
0.000000000
 40
0.221840490
 40
0.221840490
 40
0.221840490
 40
0.445399356
 40
0.445399356
 40
0.445399356
 40
0.621195337
 40
0.621195337
 40
0.621195337
 40
0.756583114
 40
0.756583114
 40
0.756583114
 40
1.000000000
 40
1.000000000
 40
1.000000000
 40
1.000000000
 10
1.100000000
 20
-0.000000000
 30
4.889291016
 10
1.103488368
 20
0.384900557
 30
4.914237935
 10
0.886514316
 20
0.761558045
 30
4.939211012
 10
0.551735858
 20
0.951623635
 30
4.964165837
 10
0.217808288
 20
1.149366440
 30
4.989319063
 10
-0.221066748
 20
1.148744135
 30
5.014473993
 10
-0.554432102
 20
0.950055285
 30
5.039631126
 10
-0.817957017
 20
0.797928008
 30
5.059409067
 10
-1.011628343
 20
0.531365946
 30
5.079176763
 10
-1.074881049
 20
0.233732176
 30
5.098953902
 10
-1.125122391
 20
0.005128502
 30
5.114183589
 10
-1.099403122
 20
-0.239249156
 30
5.129421673
 10
-1.002669898
 20
-0.452385981
 30
5.144654341
 10
-0.833135003
 20
-0.840101098
 30
5.172036697
 10
-0.423155442
 20
-1.104915602
 30
5.199402239
 10
0.000000000
 20
-1.100000000
 30
5.226794496
  0
SPLINE
  5
A47
330
A02
100
AcDbEntity
  8
Body
100
AcDbSpline
210
0
220
0
230
1
 70
8
 71
3
 72
11
 73
7
 74
0
 40
0.000000000
 40
0.000000000
 40
0.000000000
 40
0.000000000
 40
0.373891574
 40
0.373891574
 40
0.373891574
 40
1.000000000
 40
1.000000000
 40
1.000000000
 40
1.000000000
 10
0.000000000
 20
-1.100000000
 30
4.776794531
 10
0.215441256
 20
-1.100376126
 30
4.790813877
 10
0.430405703
 20
-1.035370420
 30
4.804827750
 10
0.609532968
 20
-0.915679836
 30
4.818854866
 10
0.912257628
 20
-0.717489895
 30
4.842346582
 10
1.102764535
 20
-0.361834649
 30
4.865820516
 10
1.100000000
 20
-0.000000000
 30
4.889291016
  0
SPLINE
  5
A48
330
A02
100
AcDbEntity
  8
Body
100
AcDbSpline
210
0
220
0
230
1
 70
8
 71
1
 72
4
 73
2
 74
0
 40
-1.000000000
 40
-1.000000000
 40
-0.653589838
 40
-0.653589838
 10
0.000000000
 20
-1.400000000
 30
4.949999614
 10
0.000000000
 20
-1.100000000
 30
4.776794531
  0
LINE
  5
A49
330
A02
100
AcDbEntity
  8
Body
100
AcDbLine
 10
2.100000000
 20
0.000000000
 30
0.100000000
 11
2.100000000
 21
0.000000000
 31
1.400000000
  0
CIRCLE
  5
A4A
330
A02
100
AcDbEntity
  8
Body
100
AcDbCircle
 10
0.000000000
 20
0.000000000
 30
0.100000000
 40
2.100000000
  0
CIRCLE
  5
A4B
330
A02
100
AcDbEntity
  8
Body
100
AcDbCircle
 10
0.000000000
 20
0.000000000
 30
1.400000000
 40
2.100000000
  0
LINE
  5
A4C
330
A02
100
AcDbEntity
  8
Body
100
AcDbLine
 10
2.100000000
 20
0.000000000
 30
0.100000000
 11
2.100000000
 21
0.000000000
 31
1.400000000
  0
SPLINE
  5
A4D
330
A02
100
AcDbEntity
  8
Body
100
AcDbSpline
210
0
220
0
230
1
 70
8
 71
3
 72
11
 73
7
 74
0
 40
0.000000000
 40
0.000000000
 40
0.000000000
 40
0.000000000
 40
0.365341961
 40
0.365341961
 40
0.365341961
 40
1.000000000
 40
1.000000000
 40
1.000000000
 40
1.000000000
 10
0.000000000
 20
-1.100000000
 30
4.673204728
 10
0.210507685
 20
-1.100343430
 30
4.686905050
 10
0.420590275
 20
-1.038350420
 30
4.700611858
 10
0.597183568
 20
-0.923781244
 30
4.714307715
 10
0.906831343
 20
-0.727072602
 30
4.738096573
 10
1.102909797
 20
-0.366838186
 30
4.761899191
 10
1.100000000
 20
-0.000000000
 30
4.785708360
  0
SPLINE
  5
A4E
330
A02
100
AcDbEntity
  8
Body
100
AcDbSpline
210
0
220
0
230
1
 70
8
 71
3
 72
23
 73
19
 74
0
 40
0.000000000
 40
0.000000000
 40
0.000000000
 40
0.000000000
 40
0.046528195
 40
0.046528195
 40
0.046528195
 40
0.264846855
 40
0.264846855
 40
0.264846855
 40
0.446283607
 40
0.446283607
 40
0.446283607
 40
0.622713654
 40
0.622713654
 40
0.622713654
 40
0.783690246
 40
0.783690246
 40
0.783690246
 40
1.000000000
 40
1.000000000
 40
1.000000000
 40
1.000000000
 10
1.100000000
 20
-0.000000000
 30
4.785708360
 10
1.099972333
 20
0.080707509
 30
4.790943566
 10
1.091195648
 20
0.160452133
 30
4.796178150
 10
1.073669947
 20
0.239233870
 30
4.801412111
 10
0.994480056
 20
0.609698229
 30
4.825976446
 10
0.709030304
 20
0.926281945
 30
4.850529900
 10
0.348711279
 20
1.043264321
 30
4.875099657
 10
0.051346516
 20
1.144365962
 30
4.895511733
 10
-0.288512732
 20
1.108591987
 30
4.915920392
 10
-0.558315562
 20
0.947778314
 30
4.936329574
 10
-0.822183554
 20
0.794026907
 30
4.956177426
 10
-1.015165097
 20
0.525264810
 30
4.976034348
 10
-1.076512763
 20
0.226097922
 30
4.995883387
 10
-1.134751301
 20
-0.046227891
 30
5.013993626
 10
-1.083679569
 20
-0.339760334
 30
5.032090999
 10
-0.936881792
 20
-0.576413487
 30
5.050200810
 10
-0.742976760
 20
-0.897610511
 30
5.074538357
 10
-0.375184374
 20
-1.103159321
 30
5.098882522
 10
0.000000000
 20
-1.100000000
 30
5.123204693
  0
SPLINE
  5
A4F
330
A02
100
AcDbEntity
  8
Body
100
AcDbSpline
210
0
220
0
230
1
 70
8
 71
1
 72
4
 73
2
 74
0
 40
-0.346410161
 40
-0.346410161
 40
-0.000000000
 40
-0.000000000
 10
0.000000000
 20
-1.100000000
 30
5.123204693
 10
0.000000000
 20
-1.400000000
 30
4.949999614
  0
SPLINE
  5
A50
330
A02
100
AcDbEntity
  8
Body
100
AcDbSpline
210
0
220
0
230
1
 70
8
 71
3
 72
29
 73
25
 74
0
 40
0.000000000
 40
0.000000000
 40
0.000000000
 40
0.000000000
 40
0.785403199
 40
0.785403199
 40
0.785403199
 40
1.570806398
 40
1.570806398
 40
1.570806398
 40
2.356209597
 40
2.356209597
 40
2.356209597
 40
3.141612797
 40
3.141612797
 40
3.141612797
 40
3.927015996
 40
3.927015996
 40
3.927015996
 40
4.712419195
 40
4.712419195
 40
4.712419195
 40
5.497822394
 40
5.497822394
 40
5.497822394
 40
6.283225593
 40
6.283225593
 40
6.283225593
 40
6.283225593
 10
0.000000000
 20
-1.400000000
 30
4.499999649
 10
0.367058091
 20
-1.401490846
 30
4.518749546
 10
0.731490213
 20
-1.250530170
 30
4.537499653
 10
0.989942767
 20
-0.989947790
 30
4.556249642
 10
1.250503934
 20
-0.731467557
 30
4.574999647
 10
1.401482445
 20
-0.367032809
 30
4.593749626
 10
1.400007887
 20
-0.000001616
 30
4.612499624
 10
1.401505679
 20
0.367029241
 30
4.631249620
 10
1.250536431
 20
0.731472194
 30
4.649999630
 10
0.989944621
 20
0.989951011
 30
4.668749635
 10
0.731453282
 20
1.250531136
 30
4.687499641
 10
0.367018226
 20
1.401484062
 30
4.706249638
 10
-0.000000000
 20
1.399998497
 30
4.724999631
 10
-0.367018227
 20
1.401484062
 30
4.743749625
 10
-0.731453282
 20
1.250531136
 30
4.762499621
 10
-0.989944621
 20
0.989951011
 30
4.781249627
 10
-1.250536431
 20
0.731472193
 30
4.799999632
 10
-1.401505680
 20
0.367029240
 30
4.818749642
 10
-1.400007887
 20
-0.000001617
 30
4.837499638
 10
-1.401482445
 20
-0.367032809
 30
4.856249636
 10
-1.250503934
 20
-0.731467557
 30
4.874999615
 10
-0.989942766
 20
-0.989947790
 30
4.893749621
 10
-0.731490213
 20
-1.250530170
 30
4.912499609
 10
-0.367058091
 20
-1.401490846
 30
4.931249717
 10
0.000000000
 20
-1.400000000
 30
4.949999614
  0
SPLINE
  5
A51
330
A02
100
AcDbEntity
  8
Body
100
AcDbSpline
210
0
220
0
230
1
 70
8
 71
1
 72
4
 73
2
 74
0
 40
-0.346410161
 40
-0.346410161
 40
-0.000000000
 40
-0.000000000
 10
0.000000000
 20
-1.100000000
 30
4.673204728
 10
0.000000000
 20
-1.400000000
 30
4.499999649
  0
SPLINE
  5
A52
330
A02
100
AcDbEntity
  8
Body
100
AcDbSpline
210
0
220
0
230
1
 70
8
 71
3
 72
29
 73
25
 74
0
 40
0.000000000
 40
0.000000000
 40
0.000000000
 40
0.000000000
 40
0.785403199
 40
0.785403199
 40
0.785403199
 40
1.570806398
 40
1.570806398
 40
1.570806398
 40
2.356209597
 40
2.356209597
 40
2.356209597
 40
3.141612797
 40
3.141612797
 40
3.141612797
 40
3.927015996
 40
3.927015996
 40
3.927015996
 40
4.712419195
 40
4.712419195
 40
4.712419195
 40
5.497822394
 40
5.497822394
 40
5.497822394
 40
6.283225593
 40
6.283225593
 40
6.283225593
 40
6.283225593
 10
0.000000000
 20
-1.400000000
 30
4.499999649
 10
0.367058091
 20
-1.401490846
 30
4.518749546
 10
0.731490213
 20
-1.250530170
 30
4.537499653
 10
0.989942767
 20
-0.989947790
 30
4.556249642
 10
1.250503934
 20
-0.731467557
 30
4.574999647
 10
1.401482445
 20
-0.367032809
 30
4.593749626
 10
1.400007887
 20
-0.000001616
 30
4.612499624
 10
1.401505679
 20
0.367029241
 30
4.631249620
 10
1.250536431
 20
0.731472194
 30
4.649999630
 10
0.989944621
 20
0.989951011
 30
4.668749635
 10
0.731453282
 20
1.250531136
 30
4.687499641
 10
0.367018226
 20
1.401484062
 30
4.706249638
 10
-0.000000000
 20
1.399998497
 30
4.724999631
 10
-0.367018227
 20
1.401484062
 30
4.743749625
 10
-0.731453282
 20
1.250531136
 30
4.762499621
 10
-0.989944621
 20
0.989951011
 30
4.781249627
 10
-1.250536431
 20
0.731472193
 30
4.799999632
 10
-1.401505680
 20
0.367029240
 30
4.818749642
 10
-1.400007887
 20
-0.000001617
 30
4.837499638
 10
-1.401482445
 20
-0.367032809
 30
4.856249636
 10
-1.250503934
 20
-0.731467557
 30
4.874999615
 10
-0.989942766
 20
-0.989947790
 30
4.893749621
 10
-0.731490213
 20
-1.250530170
 30
4.912499609
 10
-0.367058091
 20
-1.401490846
 30
4.931249717
 10
0.000000000
 20
-1.400000000
 30
4.949999614
  0
SPLINE
  5
A53
330
A02
100
AcDbEntity
  8
Body
100
AcDbSpline
210
0
220
0
230
1
 70
8
 71
1
 72
4
 73
2
 74
0
 40
-1.000000000
 40
-1.000000000
 40
-0.653589838
 40
-0.653589838
 10
0.000000000
 20
-1.400000000
 30
4.949999614
 10
0.000000000
 20
-1.100000000
 30
4.776794531
  0
SPLINE
  5
A54
330
A02
100
AcDbEntity
  8
Body
100
AcDbSpline
210
0
220
0
230
1
 70
8
 71
3
 72
20
 73
16
 74
0
 40
0.000000000
 40
0.000000000
 40
0.000000000
 40
0.000000000
 40
0.221857806
 40
0.221857806
 40
0.221857806
 40
0.445439652
 40
0.445439652
 40
0.445439652
 40
0.620451871
 40
0.620451871
 40
0.620451871
 40
0.756423087
 40
0.756423087
 40
0.756423087
 40
1.000000000
 40
1.000000000
 40
1.000000000
 40
1.000000000
 10
1.100000000
 20
-0.000000000
 30
4.439291051
 10
1.103489405
 20
0.384931431
 30
4.464239939
 10
0.886478722
 20
0.761616597
 30
4.489214988
 10
0.551657333
 20
0.951669158
 30
4.514171781
 10
0.217678712
 20
1.149406155
 30
4.539327617
 10
-0.221252446
 20
1.148723561
 30
4.564485161
 10
-0.554614351
 20
0.949948905
 30
4.589644901
 10
-0.816918021
 20
0.798438706
 30
4.609334633
 10
-1.010032085
 20
0.533566793
 30
4.629014234
 10
-1.074055818
 20
0.237495473
 30
4.648703089
 10
-1.125324528
 20
0.008083416
 30
4.663998361
 10
-1.100006134
 20
-0.237503319
 30
4.679302130
 10
-1.003009934
 20
-0.451631567
 30
4.694600490
 10
-0.833660406
 20
-0.839738504
 30
4.722000900
 10
-0.423441964
 20
-1.104926364
 30
4.749384121
 10
0.000000000
 20
-1.100000000
 30
4.776794531
  0
SPLINE
  5
A55
330
A02
100
AcDbEntity
  8
Body
100
AcDbSpline
210
0
220
0
230
1
 70
8
 71
3
 72
11
 73
7
 74
0
 40
0.000000000
 40
0.000000000
 40
0.000000000
 40
0.000000000
 40
0.373891750
 40
0.373891750
 40
0.373891750
 40
1.000000000
 40
1.000000000
 40
1.000000000
 40
1.000000000
 10
0.000000000
 20
-1.100000000
 30
4.326794567
 10
0.215441358
 20
-1.100376127
 30
4.340813919
 10
0.430405905
 20
-1.035370358
 30
4.354827799
 10
0.609533221
 20
-0.915679667
 30
4.368854921
 10
0.912257739
 20
-0.717489697
 30
4.392346631
 10
1.102764532
 20
-0.361834545
 30
4.415820557
 10
1.100000000
 20
-0.000000000
 30
4.439291051
  0
SPLINE
  5
A56
330
A02
100
AcDbEntity
  8
Body
100
AcDbSpline
210
0
220
0
230
1
 70
8
 71
1
 72
4
 73
2
 74
0
 40
-1.000000000
 40
-1.000000000
 40
-0.653589838
 40
-0.653589838
 10
0.000000000
 20
-1.400000000
 30
4.499999649
 10
0.000000000
 20
-1.100000000
 30
4.326794567
  0
ARC
  5
A57
330
A02
100
AcDbEntity
  8
Body
100
AcDbCircle
 10
2.000000000
 20
0.000000000
 30
0.100000000
 40
0.100000000
100
AcDbArc
 50
0.000000000
 51
0.000000000
  0
CIRCLE
  5
A58
330
A02
100
AcDbEntity
  8
Body
100
AcDbCircle
 10
0.000000000
 20
0.000000000
 30
0.100000000
 40
2.100000000
  0
CIRCLE
  5
A59
330
A02
100
AcDbEntity
  8
Body
100
AcDbCircle
 10
0.000000000
 20
0.000000000
 30
0.000000000
 40
2.000000000
  0
ARC
  5
A5A
330
A02
100
AcDbEntity
  8
Body
100
AcDbCircle
 10
2.000000000
 20
0.000000000
 30
0.100000000
 40
0.100000000
100
AcDbArc
 50
0.000000000
 51
0.000000000
  0
SPLINE
  5
A5B
330
A02
100
AcDbEntity
  8
Body
100
AcDbSpline
210
0
220
0
230
1
 70
8
 71
3
 72
11
 73
7
 74
0
 40
0.000000000
 40
0.000000000
 40
0.000000000
 40
0.000000000
 40
0.365341766
 40
0.365341766
 40
0.365341766
 40
1.000000000
 40
1.000000000
 40
1.000000000
 40
1.000000000
 10
0.000000000
 20
-1.100000000
 30
4.223204763
 10
0.210507572
 20
-1.100343430
 30
4.236905078
 10
0.420590050
 20
-1.038350488
 30
4.250611879
 10
0.597183284
 20
-0.923781427
 30
4.264307728
 10
0.906831218
 20
-0.727072821
 30
4.288096593
 10
1.102909800
 20
-0.366838301
 30
4.311899219
 10
1.100000000
 20
0.000000000
 30
4.335708395
  0
SPLINE
  5
A5C
330
A02
100
AcDbEntity
  8
Body
100
AcDbSpline
210
0
220
0
230
1
 70
8
 71
3
 72
23
 73
19
 74
0
 40
0.000000000
 40
0.000000000
 40
0.000000000
 40
0.000000000
 40
0.046529044
 40
0.046529044
 40
0.046529044
 40
0.264863099
 40
0.264863099
 40
0.264863099
 40
0.501414217
 40
0.501414217
 40
0.501414217
 40
0.622584720
 40
0.622584720
 40
0.622584720
 40
0.783438952
 40
0.783438952
 40
0.783438952
 40
1.000000000
 40
1.000000000
 40
1.000000000
 40
1.000000000
 10
1.100000000
 20
0.000000000
 30
4.335708395
 10
1.099972329
 20
0.080710364
 30
4.340943785
 10
1.091195031
 20
0.160457740
 30
4.346178552
 10
1.073668107
 20
0.239242129
 30
4.351412697
 10
0.994469101
 20
0.609738953
 30
4.375979179
 10
0.708972089
 20
0.926341546
 30
4.400534781
 10
0.348609391
 20
1.043298372
 30
4.425106687
 10
-0.039746938
 20
1.177731822
 30
4.451720377
 10
-0.497599330
 20
1.068190626
 30
4.478325423
 10
-0.783061839
 20
0.772537479
 30
4.504938495
 10
-0.930392969
 20
0.623678033
 30
4.518571322
 10
-1.033517074
 20
0.431795156
 30
4.532206834
 10
-1.076367922
 20
0.226786458
 30
4.545837612
 10
-1.134734950
 20
-0.045299433
 30
4.563934424
 10
-1.083976289
 20
-0.338632267
 30
4.582018383
 10
-0.937574344
 20
-0.575286320
 30
4.600114711
 10
-0.743832740
 20
-0.897106695
 30
4.624480906
 10
-0.375633860
 20
-1.103173396
 30
4.648853871
 10
0.000000000
 20
-1.100000000
 30
4.673204728
  0
SPLINE
  5
A5D
330
A02
100
AcDbEntity
  8
Body
100
AcDbSpline
210
0
220
0
230
1
 70
8
 71
1
 72
4
 73
2
 74
0
 40
-0.346410161
 40
-0.346410161
 40
-0.000000000
 40
-0.000000000
 10
0.000000000
 20
-1.100000000
 30
4.673204728
 10
0.000000000
 20
-1.400000000
 30
4.499999649
  0
SPLINE
  5
A5E
330
A02
100
AcDbEntity
  8
Body
100
AcDbSpline
210
0
220
0
230
1
 70
8
 71
3
 72
29
 73
25
 74
0
 40
0.000000000
 40
0.000000000
 40
0.000000000
 40
0.000000000
 40
0.785403199
 40
0.785403199
 40
0.785403199
 40
1.570806398
 40
1.570806398
 40
1.570806398
 40
2.356209597
 40
2.356209597
 40
2.356209597
 40
3.141612797
 40
3.141612797
 40
3.141612797
 40
3.927015996
 40
3.927015996
 40
3.927015996
 40
4.712419195
 40
4.712419195
 40
4.712419195
 40
5.497822394
 40
5.497822394
 40
5.497822394
 40
6.283225593
 40
6.283225593
 40
6.283225593
 40
6.283225593
 10
0.000000000
 20
-1.400000000
 30
4.049999684
 10
0.367058091
 20
-1.401490846
 30
4.068749581
 10
0.731490213
 20
-1.250530170
 30
4.087499688
 10
0.989942767
 20
-0.989947790
 30
4.106249677
 10
1.250503934
 20
-0.731467557
 30
4.124999682
 10
1.401482445
 20
-0.367032809
 30
4.143749662
 10
1.400007887
 20
-0.000001616
 30
4.162499659
 10
1.401505679
 20
0.367029241
 30
4.181249655
 10
1.250536431
 20
0.731472194
 30
4.199999665
 10
0.989944621
 20
0.989951011
 30
4.218749671
 10
0.731453282
 20
1.250531136
 30
4.237499676
 10
0.367018226
 20
1.401484062
 30
4.256249673
 10
-0.000000000
 20
1.399998497
 30
4.274999666
 10
-0.367018227
 20
1.401484062
 30
4.293749660
 10
-0.731453282
 20
1.250531136
 30
4.312499656
 10
-0.989944621
 20
0.989951011
 30
4.331249662
 10
-1.250536431
 20
0.731472193
 30
4.349999667
 10
-1.401505680
 20
0.367029240
 30
4.368749677
 10
-1.400007887
 20
-0.000001616
 30
4.387499673
 10
-1.401482445
 20
-0.367032809
 30
4.406249671
 10
-1.250503934
 20
-0.731467557
 30
4.424999650
 10
-0.989942766
 20
-0.989947790
 30
4.443749656
 10
-0.731490213
 20
-1.250530170
 30
4.462499645
 10
-0.367058091
 20
-1.401490846
 30
4.481249752
 10
0.000000000
 20
-1.400000000
 30
4.499999649
  0
SPLINE
  5
A5F
330
A02
100
AcDbEntity
  8
Body
100
AcDbSpline
210
0
220
0
230
1
 70
8
 71
1
 72
4
 73
2
 74
0
 40
-0.346410161
 40
-0.346410161
 40
-0.000000000
 40
-0.000000000
 10
0.000000000
 20
-1.100000000
 30
4.223204763
 10
0.000000000
 20
-1.400000000
 30
4.049999684
  0
SPLINE
  5
A60
330
A02
100
AcDbEntity
  8
Body
100
AcDbSpline
210
0
220
0
230
1
 70
8
 71
3
 72
29
 73
25
 74
0
 40
0.000000000
 40
0.000000000
 40
0.000000000
 40
0.000000000
 40
0.785403199
 40
0.785403199
 40
0.785403199
 40
1.570806398
 40
1.570806398
 40
1.570806398
 40
2.356209597
 40
2.356209597
 40
2.356209597
 40
3.141612797
 40
3.141612797
 40
3.141612797
 40
3.927015996
 40
3.927015996
 40
3.927015996
 40
4.712419195
 40
4.712419195
 40
4.712419195
 40
5.497822394
 40
5.497822394
 40
5.497822394
 40
6.283225593
 40
6.283225593
 40
6.283225593
 40
6.283225593
 10
0.000000000
 20
-1.400000000
 30
4.049999684
 10
0.367058091
 20
-1.401490846
 30
4.068749581
 10
0.731490213
 20
-1.250530170
 30
4.087499688
 10
0.989942767
 20
-0.989947790
 30
4.106249677
 10
1.250503934
 20
-0.731467557
 30
4.124999682
 10
1.401482445
 20
-0.367032809
 30
4.143749662
 10
1.400007887
 20
-0.000001616
 30
4.162499659
 10
1.401505679
 20
0.367029241
 30
4.181249655
 10
1.250536431
 20
0.731472194
 30
4.199999665
 10
0.989944621
 20
0.989951011
 30
4.218749671
 10
0.731453282
 20
1.250531136
 30
4.237499676
 10
0.367018226
 20
1.401484062
 30
4.256249673
 10
-0.000000000
 20
1.399998497
 30
4.274999666
 10
-0.367018227
 20
1.401484062
 30
4.293749660
 10
-0.731453282
 20
1.250531136
 30
4.312499656
 10
-0.989944621
 20
0.989951011
 30
4.331249662
 10
-1.250536431
 20
0.731472193
 30
4.349999667
 10
-1.401505680
 20
0.367029240
 30
4.368749677
 10
-1.400007887
 20
-0.000001616
 30
4.387499673
 10
-1.401482445
 20
-0.367032809
 30
4.406249671
 10
-1.250503934
 20
-0.731467557
 30
4.424999650
 10
-0.989942766
 20
-0.989947790
 30
4.443749656
 10
-0.731490213
 20
-1.250530170
 30
4.462499645
 10
-0.367058091
 20
-1.401490846
 30
4.481249752
 10
0.000000000
 20
-1.400000000
 30
4.499999649
  0
SPLINE
  5
A61
330
A02
100
AcDbEntity
  8
Body
100
AcDbSpline
210
0
220
0
230
1
 70
8
 71
1
 72
4
 73
2
 74
0
 40
-1.000000000
 40
-1.000000000
 40
-0.653589838
 40
-0.653589838
 10
0.000000000
 20
-1.400000000
 30
4.499999649
 10
0.000000000
 20
-1.100000000
 30
4.326794567
  0
SPLINE
  5
A62
330
A02
100
AcDbEntity
  8
Body
100
AcDbSpline
210
0
220
0
230
1
 70
8
 71
3
 72
20
 73
16
 74
0
 40
0.000000000
 40
0.000000000
 40
0.000000000
 40
0.000000000
 40
0.221871036
 40
0.221871036
 40
0.221871036
 40
0.445470041
 40
0.445470041
 40
0.445470041
 40
0.620589077
 40
0.620589077
 40
0.620589077
 40
0.756434562
 40
0.756434562
 40
0.756434562
 40
1.000000000
 40
1.000000000
 40
1.000000000
 40
1.000000000
 10
1.100000000
 20
-0.000000000
 30
3.989291086
 10
1.103490188
 20
0.384954726
 30
4.014241460
 10
0.886451862
 20
0.761660775
 30
4.039217997
 10
0.551598082
 20
0.951703502
 30
4.064176276
 10
0.217581457
 20
1.149435788
 30
4.089334040
 10
-0.221391204
 20
1.148708053
 30
4.114493517
 10
-0.554750299
 20
0.949869520
 30
4.139655186
 10
-0.817194723
 20
0.798230754
 30
4.159356938
 10
-1.010340060
 20
0.533096077
 30
4.179048544
 10
-1.074209166
 20
0.236800901
 30
4.198749436
 10
-1.125280736
 20
0.007568171
 30
4.214030575
 10
-1.099902056
 20
-0.237760738
 30
4.229320190
 10
-1.002985515
 20
-0.451685795
 30
4.244604398
 10
-0.833622605
 20
-0.839764599
 30
4.272003514
 10
-0.423421554
 20
-1.104925500
 30
4.299385447
 10
0.000000000
 20
-1.100000000
 30
4.326794567
  0
SPLINE
  5
A63
330
A02
100
AcDbEntity
  8
Body
100
AcDbSpline
210
0
220
0
230
1
 70
8
 71
3
 72
11
 73
7
 74
0
 40
0.000000000
 40
0.000000000
 40
0.000000000
 40
0.000000000
 40
0.373891887
 40
0.373891887
 40
0.373891887
 40
1.000000000
 40
1.000000000
 40
1.000000000
 40
1.000000000
 10
0.000000000
 20
-1.100000000
 30
3.876794602
 10
0.215441437
 20
-1.100376127
 30
3.890813959
 10
0.430406062
 20
-1.035370310
 30
3.904827844
 10
0.609533418
 20
-0.915679536
 30
3.918854972
 10
0.912257825
 20
-0.717489544
 30
3.942346676
 10
1.102764530
 20
-0.361834465
 30
3.965820598
 10
1.100000000
 20
-0.000000000
 30
3.989291086
  0
SPLINE
  5
A64
330
A02
100
AcDbEntity
  8
Body
100
AcDbSpline
210
0
220
0
230
1
 70
8
 71
1
 72
4
 73
2
 74
0
 40
-1.000000000
 40
-1.000000000
 40
-0.653589838
 40
-0.653589838
 10
0.000000000
 20
-1.400000000
 30
4.049999684
 10
0.000000000
 20
-1.100000000
 30
3.876794602
  0
CIRCLE
  5
A65
330
A02
100
AcDbEntity
  8
Body
100
AcDbCircle
 10
0.000000000
 20
0.000000000
 30
0.000000000
 40
2.000000000
  0
ARC
  5
A66
330
A02
100
AcDbEntity
  8
Body
100
AcDbCircle
 10
0.000000000
 20
0.000000000
 30
0.000000000
 40
1.400000000
100
AcDbArc
 50
0.000000000
 51
-90.000000000
  0
ARC
  5
A67
330
A02
100
AcDbEntity
  8
Body
100
AcDbCircle
 10
0.000000000
 20
0.000000000
 30
0.000000000
 40
1.400000000
100
AcDbArc
 50
-90.000000000
 51
-0.000000000
  0
SPLINE
  5
A68
330
A02
100
AcDbEntity
  8
Body
100
AcDbSpline
210
0
220
0
230
1
 70
8
 71
3
 72
11
 73
7
 74
0
 40
0.000000000
 40
0.000000000
 40
0.000000000
 40
0.000000000
 40
0.365341668
 40
0.365341668
 40
0.365341668
 40
1.000000000
 40
1.000000000
 40
1.000000000
 40
1.000000000
 10
0.000000000
 20
-1.100000000
 30
3.773204799
 10
0.210507516
 20
-1.100343429
 30
3.786905110
 10
0.420589938
 20
-1.038350522
 30
3.800611907
 10
0.597183142
 20
-0.923781519
 30
3.814307752
 10
0.906831156
 20
-0.727072931
 30
3.838096621
 10
1.102909802
 20
-0.366838358
 30
3.861899251
 10
1.100000000
 20
-0.000000000
 30
3.885708430
  0
SPLINE
  5
A69
330
A02
100
AcDbEntity
  8
Body
100
AcDbSpline
210
0
220
0
230
1
 70
8
 71
3
 72
26
 73
22
 74
0
 40
0.000000000
 40
0.000000000
 40
0.000000000
 40
0.000000000
 40
0.046530410
 40
0.046530410
 40
0.046530410
 40
0.264877111
 40
0.264877111
 40
0.264877111
 40
0.446648155
 40
0.446648155
 40
0.446648155
 40
0.621943192
 40
0.621943192
 40
0.621943192
 40
0.745687270
 40
0.745687270
 40
0.745687270
 40
0.874865517
 40
0.874865517
 40
0.874865517
 40
1.000000000
 40
1.000000000
 40
1.000000000
 40
1.000000000
 10
1.100000000
 20
-0.000000000
 30
3.885708430
 10
1.099972327
 20
0.080711958
 30
3.890943923
 10
1.091194686
 20
0.160460872
 30
3.896178793
 10
1.073667079
 20
0.239246742
 30
3.901413040
 10
0.994463028
 20
0.609761459
 30
3.925980705
 10
0.708939943
 20
0.926374442
 30
3.950537491
 10
0.348553161
 20
1.043317159
 30
3.975110583
 10
0.050621586
 20
1.144570157
 30
3.995560414
 10
-0.289935342
 20
1.108398328
 30
4.016006805
 10
-0.559957156
 20
0.946809370
 30
4.036453755
 10
-0.821838821
 20
0.793576433
 30
4.056174035
 10
-1.013639612
 20
0.526987823
 30
4.075903258
 10
-1.075689074
 20
0.229984818
 30
4.095624768
 10
-1.120766274
 20
0.020895534
 30
4.109545456
 10
-1.102755601
 20
-0.201207402
 30
4.123459271
 10
-1.024576714
 20
-0.400303082
 30
4.137376060
 10
-0.943717919
 20
-0.608449333
 30
4.151902953
 10
-0.797504598
 20
-0.790441698
 30
4.166439720
 10
-0.611676814
 20
-0.914249132
 30
4.180976560
 10
-0.432117786
 20
-1.034842546
 30
4.195059703
 10
-0.216305064
 20
-1.100381742
 30
4.209129331
 10
0.000000000
 20
-1.100000000
 30
4.223204763
  0
SPLINE
  5
A6A
330
A02
100
AcDbEntity
  8
Body
100
AcDbSpline
210
0
220
0
230
1
 70
8
 71
1
 72
4
 73
2
 74
0
 40
-0.346410161
 40
-0.346410161
 40
-0.000000000
 40
-0.000000000
 10
0.000000000
 20
-1.100000000
 30
4.223204763
 10
0.000000000
 20
-1.400000000
 30
4.049999684
  0
SPLINE
  5
A6B
330
A02
100
AcDbEntity
  8
Body
100
AcDbSpline
210
0
220
0
230
1
 70
8
 71
3
 72
29
 73
25
 74
0
 40
0.000000000
 40
0.000000000
 40
0.000000000
 40
0.000000000
 40
0.785403199
 40
0.785403199
 40
0.785403199
 40
1.570806398
 40
1.570806398
 40
1.570806398
 40
2.356209597
 40
2.356209597
 40
2.356209597
 40
3.141612797
 40
3.141612797
 40
3.141612797
 40
3.927015996
 40
3.927015996
 40
3.927015996
 40
4.712419195
 40
4.712419195
 40
4.712419195
 40
5.497822394
 40
5.497822394
 40
5.497822394
 40
6.283225593
 40
6.283225593
 40
6.283225593
 40
6.283225593
 10
0.000000000
 20
-1.400000000
 30
3.599999719
 10
0.367058091
 20
-1.401490846
 30
3.618749616
 10
0.731490213
 20
-1.250530170
 30
3.637499723
 10
0.989942767
 20
-0.989947790
 30
3.656249712
 10
1.250503934
 20
-0.731467557
 30
3.674999718
 10
1.401482445
 20
-0.367032809
 30
3.693749697
 10
1.400007887
 20
-0.000001616
 30
3.712499694
 10
1.401505679
 20
0.367029241
 30
3.731249690
 10
1.250536431
 20
0.731472194
 30
3.749999701
 10
0.989944621
 20
0.989951011
 30
3.768749706
 10
0.731453282
 20
1.250531136
 30
3.787499711
 10
0.367018226
 20
1.401484062
 30
3.806249708
 10
-0.000000000
 20
1.399998497
 30
3.824999701
 10
-0.367018227
 20
1.401484062
 30
3.843749695
 10
-0.731453282
 20
1.250531136
 30
3.862499692
 10
-0.989944621
 20
0.989951011
 30
3.881249697
 10
-1.250536431
 20
0.731472193
 30
3.899999702
 10
-1.401505680
 20
0.367029240
 30
3.918749713
 10
-1.400007887
 20
-0.000001616
 30
3.937499709
 10
-1.401482445
 20
-0.367032809
 30
3.956249706
 10
-1.250503934
 20
-0.731467557
 30
3.974999685
 10
-0.989942766
 20
-0.989947790
 30
3.993749691
 10
-0.731490213
 20
-1.250530170
 30
4.012499680
 10
-0.367058091
 20
-1.401490846
 30
4.031249787
 10
0.000000000
 20
-1.400000000
 30
4.049999684
  0
SPLINE
  5
A6C
330
A02
100
AcDbEntity
  8
Body
100
AcDbSpline
210
0
220
0
230
1
 70
8
 71
1
 72
4
 73
2
 74
0
 40
-0.346410161
 40
-0.346410161
 40
-0.000000000
 40
-0.000000000
 10
0.000000000
 20
-1.100000000
 30
3.773204799
 10
0.000000000
 20
-1.400000000
 30
3.599999719
  0
SPLINE
  5
A6D
330
A02
100
AcDbEntity
  8
Body
100
AcDbSpline
210
0
220
0
230
1
 70
8
 71
3
 72
29
 73
25
 74
0
 40
0.000000000
 40
0.000000000
 40
0.000000000
 40
0.000000000
 40
0.785403199
 40
0.785403199
 40
0.785403199
 40
1.570806398
 40
1.570806398
 40
1.570806398
 40
2.356209597
 40
2.356209597
 40
2.356209597
 40
3.141612797
 40
3.141612797
 40
3.141612797
 40
3.927015996
 40
3.927015996
 40
3.927015996
 40
4.712419195
 40
4.712419195
 40
4.712419195
 40
5.497822394
 40
5.497822394
 40
5.497822394
 40
6.283225593
 40
6.283225593
 40
6.283225593
 40
6.283225593
 10
0.000000000
 20
-1.400000000
 30
3.599999719
 10
0.367058091
 20
-1.401490846
 30
3.618749616
 10
0.731490213
 20
-1.250530170
 30
3.637499723
 10
0.989942767
 20
-0.989947790
 30
3.656249712
 10
1.250503934
 20
-0.731467557
 30
3.674999718
 10
1.401482445
 20
-0.367032809
 30
3.693749697
 10
1.400007887
 20
-0.000001616
 30
3.712499694
 10
1.401505679
 20
0.367029241
 30
3.731249690
 10
1.250536431
 20
0.731472194
 30
3.749999701
 10
0.989944621
 20
0.989951011
 30
3.768749706
 10
0.731453282
 20
1.250531136
 30
3.787499711
 10
0.367018226
 20
1.401484062
 30
3.806249708
 10
-0.000000000
 20
1.399998497
 30
3.824999701
 10
-0.367018227
 20
1.401484062
 30
3.843749695
 10
-0.731453282
 20
1.250531136
 30
3.862499692
 10
-0.989944621
 20
0.989951011
 30
3.881249697
 10
-1.250536431
 20
0.731472193
 30
3.899999702
 10
-1.401505680
 20
0.367029240
 30
3.918749713
 10
-1.400007887
 20
-0.000001616
 30
3.937499709
 10
-1.401482445
 20
-0.367032809
 30
3.956249706
 10
-1.250503934
 20
-0.731467557
 30
3.974999685
 10
-0.989942766
 20
-0.989947790
 30
3.993749691
 10
-0.731490213
 20
-1.250530170
 30
4.012499680
 10
-0.367058091
 20
-1.401490846
 30
4.031249787
 10
0.000000000
 20
-1.400000000
 30
4.049999684
  0
SPLINE
  5
A6E
330
A02
100
AcDbEntity
  8
Body
100
AcDbSpline
210
0
220
0
230
1
 70
8
 71
1
 72
4
 73
2
 74
0
 40
-1.000000000
 40
-1.000000000
 40
-0.653589838
 40
-0.653589838
 10
0.000000000
 20
-1.400000000
 30
4.049999684
 10
0.000000000
 20
-1.100000000
 30
3.876794602
  0
SPLINE
  5
A6F
330
A02
100
AcDbEntity
  8
Body
100
AcDbSpline
210
0
220
0
230
1
 70
8
 71
3
 72
20
 73
16
 74
0
 40
0.000000000
 40
0.000000000
 40
0.000000000
 40
0.000000000
 40
0.221855433
 40
0.221855433
 40
0.221855433
 40
0.445434123
 40
0.445434123
 40
0.445434123
 40
0.621062686
 40
0.621062686
 40
0.621062686
 40
0.756588451
 40
0.756588451
 40
0.756588451
 40
1.000000000
 40
1.000000000
 40
1.000000000
 40
1.000000000
 10
1.100000000
 20
0.000000000
 30
3.539291121
 10
1.103489253
 20
0.384926914
 30
3.564239722
 10
0.886483929
 20
0.761608031
 30
3.589214482
 10
0.551668821
 20
0.951662499
 30
3.614170987
 10
0.217697603
 20
1.149400387
 30
3.639326446
 10
-0.221225451
 20
1.148726568
 30
3.664483612
 10
-0.554587885
 20
0.949964356
 30
3.689642976
 10
-0.817833142
 20
0.797936483
 30
3.709402069
 10
-1.011352949
 20
0.531712125
 30
3.729150944
 10
-1.074734689
 20
0.234404243
 30
3.748909224
 10
-1.125171961
 20
0.005598782
 30
3.764154424
 10
-1.099497395
 20
-0.239059524
 30
3.779408043
 10
-1.002658566
 20
-0.452411096
 30
3.794656241
 10
-0.833117512
 20
-0.840113143
 30
3.822037995
 10
-0.423146020
 20
-1.104915199
 30
3.849402941
 10
0.000000000
 20
-1.100000000
 30
3.876794602
  0
SPLINE
  5
A70
330
A02
100
AcDbEntity
  8
Body
100
AcDbSpline
210
0
220
0
230
1
 70
8
 71
3
 72
11
 73
7
 74
0
 40
0.000000000
 40
0.000000000
 40
0.000000000
 40
0.000000000
 40
0.373891722
 40
0.373891722
 40
0.373891722
 40
1.000000000
 40
1.000000000
 40
1.000000000
 40
1.000000000
 10
0.000000000
 20
-1.100000000
 30
3.426794637
 10
0.215441342
 20
-1.100376127
 30
3.440813988
 10
0.430405873
 20
-1.035370368
 30
3.454827867
 10
0.609533181
 20
-0.915679693
 30
3.468854989
 10
0.912257721
 20
-0.717489728
 30
3.492346699
 10
1.102764532
 20
-0.361834562
 30
3.515820627
 10
1.100000000
 20
0.000000000
 30
3.539291121
  0
SPLINE
  5
A71
330
A02
100
AcDbEntity
  8
Body
100
AcDbSpline
210
0
220
0
230
1
 70
8
 71
1
 72
4
 73
2
 74
0
 40
-1.000000000
 40
-1.000000000
 40
-0.653589838
 40
-0.653589838
 10
0.000000000
 20
-1.400000000
 30
3.599999719
 10
0.000000000
 20
-1.100000000
 30
3.426794637
  0
ARC
  5
A72
330
A02
100
AcDbEntity
  8
Body
100
AcDbCircle
 10
0.000000000
 20
0.000000000
 30
0.300000000
 40
1.100000000
100
AcDbArc
 50
-71.432046728
 51
-0.000000000
  0
SPLINE
  5
A73
330
A02
100
AcDbEntity
  8
Body
100
AcDbSpline
210
0
220
0
230
1
 70
8
 71
2
 72
6
 73
3
 74
0
 40
0.000000000
 40
0.000000000
 40
0.000000000
 40
1.000000000
 40
1.000000000
 40
1.000000000
 10
0.000000000
 20
-1.114711454
 30
0.285288546
 10
0.181714398
 20
-1.107055867
 30
0.292626148
 10
0.350272068
 20
-1.042741329
 30
0.300000000
  0
SPLINE
  5
A74
330
A02
100
AcDbEntity
  8
Body
100
AcDbSpline
210
0
220
0
230
1
 70
8
 71
3
 72
26
 73
22
 74
0
 40
0.000000000
 40
0.000000000
 40
0.000000000
 40
0.000000000
 40
0.139068507
 40
0.139068507
 40
0.139068507
 40
0.245513096
 40
0.245513096
 40
0.245513096
 40
0.413012571
 40
0.413012571
 40
0.413012571
 40
0.546602785
 40
0.546602785
 40
0.546602785
 40
0.660434674
 40
0.660434674
 40
0.660434674
 40
0.844954989
 40
0.844954989
 40
0.844954989
 40
1.000000000
 40
1.000000000
 40
1.000000000
 40
1.000000000
 10
1.328680560
 20
0.000000000
 30
0.071319440
 10
1.319731908
 20
0.279835084
 30
0.080872634
 10
1.218995825
 20
0.554052825
 30
0.090479535
 10
1.046790967
 20
0.770633642
 30
0.100135569
 10
0.915575414
 20
0.936767385
 30
0.107526132
 10
0.743591047
 20
1.069076522
 30
0.114944320
 10
0.551223315
 20
1.152579263
 30
0.122390474
 10
0.248782704
 20
1.285653698
 30
0.134108485
 10
-0.103230842
 20
1.292699215
 30
0.145899288
 10
-0.406062871
 20
1.173992578
 30
0.157765872
 10
-0.647976241
 20
1.080879571
 30
0.167229409
 10
-0.857166270
 20
0.910127701
 30
0.176737996
 10
-0.995182247
 20
0.694764860
 30
0.186292492
 10
-1.113404785
 20
0.511713924
 30
0.194433827
 10
-1.179974210
 20
0.297357438
 30
0.202610113
 10
-1.186335877
 20
0.082122588
 30
0.210825104
 10
-1.199128666
 20
-0.267466072
 30
0.224144052
 10
-1.046685828
 20
-0.614532946
 30
0.237559209
 10
-0.786505431
 20
-0.837546003
 30
0.251055223
 10
-0.569877739
 20
-1.026804353
 30
0.262394042
 10
-0.282090686
 20
-1.127249526
 30
0.273808305
 10
0.000000000
 20
-1.114711454
 30
0.285288546
  0
LINE
  5
A75
330
A02
100
AcDbEntity
  8
Body
100
AcDbLine
 10
1.328680560
 20
0.000000000
 30
0.071319440
 11
1.400000000
 21
0.000000000
 31
0.000000000
  0
ARC
  5
A76
330
A02
100
AcDbEntity
  8
Body
100
AcDbCircle
 10
0.000000000
 20
0.000000000
 30
0.000000000
 40
1.400000000
100
AcDbArc
 50
0.000000000
 51
-90.000000000
  0
SPLINE
  5
A77
330
A02
100
AcDbEntity
  8
Body
100
AcDbSpline
210
0
220
0
230
1
 70
8
 71
3
 72
11
 73
7
 74
0
 40
0.000000000
 40
0.000000000
 40
0.000000000
 40
0.000000000
 40
0.544750668
 40
0.544750668
 40
0.544750668
 40
1.000000000
 40
1.000000000
 40
1.000000000
 40
1.000000000
 10
-0.000000000
 20
-1.400000000
 30
0.000000000
 10
0.382904747
 20
-1.355635410
 30
0.046234963
 10
0.731767810
 20
-1.143161522
 30
0.093555441
 10
0.935265642
 20
-0.841280454
 30
0.142035524
 10
1.107478087
 20
-0.590753122
 30
0.182550833
 10
1.177223805
 20
-0.282776212
 30
0.223931945
 10
1.133813288
 20
0.000000000
 30
0.266186712
  0
LINE
  5
A78
330
A02
100
AcDbEntity
  8
Body
100
AcDbLine
 10
1.100000000
 20
0.000000000
 30
0.300000000
 11
1.133813288
 21
0.000000000
 31
0.266186712
  0
SPLINE
  5
A79
330
A02
100
AcDbEntity
  8
Body
100
AcDbSpline
210
0
220
0
230
1
 70
8
 71
3
 72
11
 73
7
 74
0
 40
0.000000000
 40
0.000000000
 40
0.000000000
 40
0.000000000
 40
0.443100185
 40
0.443100185
 40
0.443100185
 40
1.000000000
 40
1.000000000
 40
1.000000000
 40
1.000000000
 10
0.000000000
 20
-1.400000000
 30
-0.000000000
 10
0.321058946
 20
-1.390489564
 30
0.010400575
 10
0.635202472
 20
-1.265601505
 30
0.020856202
 10
0.872390410
 20
-1.054537829
 30
0.031382062
 10
1.173116717
 20
-0.791436354
 30
0.044610503
 10
1.344351864
 20
-0.393130274
 30
0.057916922
 10
1.328680560
 20
0.000000000
 30
0.071319440
  0
ARC
  5
A7A
330
A02
100
AcDbEntity
  8
Body
100
AcDbCircle
 10
0.000000000
 20
0.000000000
 30
0.000000000
 40
1.400000000
100
AcDbArc
 50
-90.000000000
 51
-0.000000000
  0
LINE
  5
A7B
330
A02
100
AcDbEntity
  8
Body
100
AcDbLine
 10
1.328680560
 20
0.000000000
 30
0.071319440
 11
1.400000000
 21
0.000000000
 31
0.000000000
  0
SPLINE
  5
A7C
330
A02
100
AcDbEntity
  8
Body
100
AcDbSpline
210
0
220
0
230
1
 70
8
 71
3
 72
11
 73
7
 74
0
 40
0.000000000
 40
0.000000000
 40
0.000000000
 40
0.000000000
 40
0.365341800
 40
0.365341800
 40
0.365341800
 40
1.000000000
 40
1.000000000
 40
1.000000000
 40
1.000000000
 10
0.000000000
 20
-1.100000000
 30
3.323204834
 10
0.210507592
 20
-1.100343430
 30
3.336905150
 10
0.420590090
 20
-1.038350476
 30
3.350611952
 10
0.597183333
 20
-0.923781395
 30
3.364307802
 10
0.906831240
 20
-0.727072783
 30
3.388096666
 10
1.102909800
 20
-0.366838281
 30
3.411899291
 10
1.100000000
 20
-0.000000000
 30
3.435708465
  0
SPLINE
  5
A7D
330
A02
100
AcDbEntity
  8
Body
100
AcDbSpline
210
0
220
0
230
1
 70
8
 71
3
 72
26
 73
22
 74
0
 40
0.000000000
 40
0.000000000
 40
0.000000000
 40
0.000000000
 40
0.046529276
 40
0.046529276
 40
0.046529276
 40
0.264862859
 40
0.264862859
 40
0.264862859
 40
0.446513943
 40
0.446513943
 40
0.446513943
 40
0.621961467
 40
0.621961467
 40
0.621961467
 40
0.745715449
 40
0.745715449
 40
0.745715449
 40
0.874908086
 40
0.874908086
 40
0.874908086
 40
1.000000000
 40
1.000000000
 40
1.000000000
 40
1.000000000
 10
1.100000000
 20
-0.000000000
 30
3.435708465
 10
1.099972329
 20
0.080709977
 30
3.440943831
 10
1.091195115
 20
0.160456980
 30
3.446178573
 10
1.073668356
 20
0.239241010
 30
3.451412693
 10
0.994470589
 20
0.609733414
 30
3.475978882
 10
0.708980010
 20
0.926333436
 30
3.500534192
 10
0.348623256
 20
1.043293739
 30
3.525105806
 10
0.050895618
 20
1.144496518
 30
3.545542141
 10
-0.289412375
 20
1.108471494
 30
3.565975044
 10
-0.559358224
 20
0.947163332
 30
3.586408495
 10
-0.821568052
 20
0.793964985
 30
3.606145927
 10
-1.013634236
 20
0.527161183
 30
3.625892319
 10
-1.075708940
 20
0.229891880
 30
3.645630991
 10
-1.120771765
 20
0.020781986
 30
3.659552790
 10
-1.102735172
 20
-0.201338149
 30
3.673467714
 10
-1.024523470
 20
-0.400439333
 30
3.687385617
 10
-0.943628108
 20
-0.608598084
 30
3.701914128
 10
-0.797366734
 20
-0.790588063
 30
3.716452520
 10
-0.611493309
 20
-0.914371879
 30
3.730990974
 10
-0.431971106
 20
-1.034887828
 30
3.745069319
 10
-0.216231304
 20
-1.100381233
 30
3.759134155
 10
0.000000000
 20
-1.100000000
 30
3.773204799
  0
SPLINE
  5
A7E
330
A02
100
AcDbEntity
  8
Body
100
AcDbSpline
210
0
220
0
230
1
 70
8
 71
1
 72
4
 73
2
 74
0
 40
-0.346410161
 40
-0.346410161
 40
-0.000000000
 40
-0.000000000
 10
0.000000000
 20
-1.100000000
 30
3.773204799
 10
0.000000000
 20
-1.400000000
 30
3.599999719
  0
SPLINE
  5
A7F
330
A02
100
AcDbEntity
  8
Body
100
AcDbSpline
210
0
220
0
230
1
 70
8
 71
3
 72
29
 73
25
 74
0
 40
0.000000000
 40
0.000000000
 40
0.000000000
 40
0.000000000
 40
0.785403199
 40
0.785403199
 40
0.785403199
 40
1.570806398
 40
1.570806398
 40
1.570806398
 40
2.356209597
 40
2.356209597
 40
2.356209597
 40
3.141612797
 40
3.141612797
 40
3.141612797
 40
3.927015996
 40
3.927015996
 40
3.927015996
 40
4.712419195
 40
4.712419195
 40
4.712419195
 40
5.497822394
 40
5.497822394
 40
5.497822394
 40
6.283225593
 40
6.283225593
 40
6.283225593
 40
6.283225593
 10
0.000000000
 20
-1.400000000
 30
3.149999754
 10
0.367058091
 20
-1.401490846
 30
3.168749651
 10
0.731490213
 20
-1.250530170
 30
3.187499758
 10
0.989942767
 20
-0.989947790
 30
3.206249747
 10
1.250503934
 20
-0.731467557
 30
3.224999753
 10
1.401482445
 20
-0.367032809
 30
3.243749732
 10
1.400007887
 20
-0.000001616
 30
3.262499729
 10
1.401505679
 20
0.367029241
 30
3.281249725
 10
1.250536431
 20
0.731472194
 30
3.299999736
 10
0.989944621
 20
0.989951011
 30
3.318749741
 10
0.731453282
 20
1.250531136
 30
3.337499746
 10
0.367018226
 20
1.401484062
 30
3.356249743
 10
-0.000000000
 20
1.399998497
 30
3.374999737
 10
-0.367018227
 20
1.401484062
 30
3.393749730
 10
-0.731453282
 20
1.250531136
 30
3.412499727
 10
-0.989944621
 20
0.989951011
 30
3.431249732
 10
-1.250536431
 20
0.731472193
 30
3.449999737
 10
-1.401505680
 20
0.367029240
 30
3.468749748
 10
-1.400007887
 20
-0.000001616
 30
3.487499744
 10
-1.401482445
 20
-0.367032809
 30
3.506249741
 10
-1.250503934
 20
-0.731467557
 30
3.524999720
 10
-0.989942766
 20
-0.989947790
 30
3.543749726
 10
-0.731490213
 20
-1.250530170
 30
3.562499715
 10
-0.367058091
 20
-1.401490846
 30
3.581249822
 10
0.000000000
 20
-1.400000000
 30
3.599999719
  0
SPLINE
  5
A80
330
A02
100
AcDbEntity
  8
Body
100
AcDbSpline
210
0
220
0
230
1
 70
8
 71
1
 72
4
 73
2
 74
0
 40
-0.346410161
 40
-0.346410161
 40
-0.000000000
 40
-0.000000000
 10
0.000000000
 20
-1.100000000
 30
3.323204834
 10
0.000000000
 20
-1.400000000
 30
3.149999754
  0
SPLINE
  5
A81
330
A02
100
AcDbEntity
  8
Body
100
AcDbSpline
210
0
220
0
230
1
 70
8
 71
3
 72
29
 73
25
 74
0
 40
0.000000000
 40
0.000000000
 40
0.000000000
 40
0.000000000
 40
0.785403199
 40
0.785403199
 40
0.785403199
 40
1.570806398
 40
1.570806398
 40
1.570806398
 40
2.356209597
 40
2.356209597
 40
2.356209597
 40
3.141612797
 40
3.141612797
 40
3.141612797
 40
3.927015996
 40
3.927015996
 40
3.927015996
 40
4.712419195
 40
4.712419195
 40
4.712419195
 40
5.497822394
 40
5.497822394
 40
5.497822394
 40
6.283225593
 40
6.283225593
 40
6.283225593
 40
6.283225593
 10
0.000000000
 20
-1.400000000
 30
3.149999754
 10
0.367058091
 20
-1.401490846
 30
3.168749651
 10
0.731490213
 20
-1.250530170
 30
3.187499758
 10
0.989942767
 20
-0.989947790
 30
3.206249747
 10
1.250503934
 20
-0.731467557
 30
3.224999753
 10
1.401482445
 20
-0.367032809
 30
3.243749732
 10
1.400007887
 20
-0.000001616
 30
3.262499729
 10
1.401505679
 20
0.367029241
 30
3.281249725
 10
1.250536431
 20
0.731472194
 30
3.299999736
 10
0.989944621
 20
0.989951011
 30
3.318749741
 10
0.731453282
 20
1.250531136
 30
3.337499746
 10
0.367018226
 20
1.401484062
 30
3.356249743
 10
-0.000000000
 20
1.399998497
 30
3.374999737
 10
-0.367018227
 20
1.401484062
 30
3.393749730
 10
-0.731453282
 20
1.250531136
 30
3.412499727
 10
-0.989944621
 20
0.989951011
 30
3.431249732
 10
-1.250536431
 20
0.731472193
 30
3.449999737
 10
-1.401505680
 20
0.367029240
 30
3.468749748
 10
-1.400007887
 20
-0.000001616
 30
3.487499744
 10
-1.401482445
 20
-0.367032809
 30
3.506249741
 10
-1.250503934
 20
-0.731467557
 30
3.524999720
 10
-0.989942766
 20
-0.989947790
 30
3.543749726
 10
-0.731490213
 20
-1.250530170
 30
3.562499715
 10
-0.367058091
 20
-1.401490846
 30
3.581249822
 10
0.000000000
 20
-1.400000000
 30
3.599999719
  0
SPLINE
  5
A82
330
A02
100
AcDbEntity
  8
Body
100
AcDbSpline
210
0
220
0
230
1
 70
8
 71
1
 72
4
 73
2
 74
0
 40
-1.000000000
 40
-1.000000000
 40
-0.653589838
 40
-0.653589838
 10
0.000000000
 20
-1.400000000
 30
3.599999719
 10
0.000000000
 20
-1.100000000
 30
3.426794637
  0
SPLINE
  5
A83
330
A02
100
AcDbEntity
  8
Body
100
AcDbSpline
210
0
220
0
230
1
 70
8
 71
3
 72
20
 73
16
 74
0
 40
0.000000000
 40
0.000000000
 40
0.000000000
 40
0.000000000
 40
0.221877178
 40
0.221877178
 40
0.221877178
 40
0.445483429
 40
0.445483429
 40
0.445483429
 40
0.621012684
 40
0.621012684
 40
0.621012684
 40
0.783511074
 40
0.783511074
 40
0.783511074
 40
1.000000000
 40
1.000000000
 40
1.000000000
 40
1.000000000
 10
1.100000000
 20
-0.000000000
 30
3.089291157
 10
1.103490416
 20
0.384961534
 30
3.114241964
 10
0.886444012
 20
0.761673687
 30
3.139218937
 10
0.551580764
 20
0.951713539
 30
3.164177649
 10
0.217553124
 20
1.149444390
 30
3.189335971
 10
-0.221431518
 20
1.148703524
 30
3.214496006
 10
-0.554789756
 20
0.949846475
 30
3.239658232
 10
-0.817849095
 20
0.797848717
 30
3.259405955
 10
-1.011247256
 20
0.531805982
 30
3.279143476
 10
-1.074672876
 20
0.234687470
 30
3.298890385
 10
-1.135683976
 20
-0.039734305
 30
3.317170269
 10
-1.085375695
 20
-0.336626629
 30
3.335462583
 10
-0.937362770
 20
-0.575630991
 30
3.353742522
 10
-0.743570009
 20
-0.897265356
 30
3.378090246
 10
-0.375482234
 20
-1.103172158
 30
3.402435450
 10
0.000000000
 20
-1.100000000
 30
3.426794637
  0
SPLINE
  5
A84
330
A02
100
AcDbEntity
  8
Body
100
AcDbSpline
210
0
220
0
230
1
 70
8
 71
3
 72
11
 73
7
 74
0
 40
0.000000000
 40
0.000000000
 40
0.000000000
 40
0.000000000
 40
0.373891937
 40
0.373891937
 40
0.373891937
 40
1.000000000
 40
1.000000000
 40
1.000000000
 40
1.000000000
 10
0.000000000
 20
-1.100000000
 30
2.976794672
 10
0.215441466
 20
-1.100376127
 30
2.990814031
 10
0.430406120
 20
-1.035370292
 30
3.004827919
 10
0.609533491
 20
-0.915679487
 30
3.018855048
 10
0.912257857
 20
-0.717489487
 30
3.042346751
 10
1.102764529
 20
-0.361834436
 30
3.065820670
 10
1.100000000
 20
-0.000000000
 30
3.089291157
  0
SPLINE
  5
A85
330
A02
100
AcDbEntity
  8
Body
100
AcDbSpline
210
0
220
0
230
1
 70
8
 71
1
 72
4
 73
2
 74
0
 40
-1.000000000
 40
-1.000000000
 40
-0.653589838
 40
-0.653589838
 10
0.000000000
 20
-1.400000000
 30
3.149999754
 10
0.000000000
 20
-1.100000000
 30
2.976794672
  0
SPLINE
  5
A86
330
A02
100
AcDbEntity
  8
Body
100
AcDbSpline
210
0
220
0
230
1
 70
8
 71
3
 72
29
 73
25
 74
0
 40
0.000000000
 40
0.000000000
 40
0.000000000
 40
0.000000000
 40
0.785403199
 40
0.785403199
 40
0.785403199
 40
1.570806398
 40
1.570806398
 40
1.570806398
 40
2.356209597
 40
2.356209597
 40
2.356209597
 40
3.141612797
 40
3.141612797
 40
3.141612797
 40
3.927015996
 40
3.927015996
 40
3.927015996
 40
4.712419195
 40
4.712419195
 40
4.712419195
 40
5.497822394
 40
5.497822394
 40
5.497822394
 40
6.283225593
 40
6.283225593
 40
6.283225593
 40
6.283225593
 10
0.000000000
 20
-1.400000000
 30
0.449999965
 10
0.367058091
 20
-1.401490846
 30
0.468749862
 10
0.731490213
 20
-1.250530170
 30
0.487499969
 10
0.989942767
 20
-0.989947790
 30
0.506249958
 10
1.250503934
 20
-0.731467557
 30
0.524999963
 10
1.401482445
 20
-0.367032809
 30
0.543749943
 10
1.400007887
 20
-0.000001616
 30
0.562499940
 10
1.401505679
 20
0.367029240
 30
0.581249936
 10
1.250536431
 20
0.731472193
 30
0.599999946
 10
0.989944621
 20
0.989951011
 30
0.618749952
 10
0.731453282
 20
1.250531136
 30
0.637499957
 10
0.367018227
 20
1.401484062
 30
0.656249954
 10
-0.000000000
 20
1.399998497
 30
0.674999947
 10
-0.367018227
 20
1.401484062
 30
0.693749941
 10
-0.731453282
 20
1.250531136
 30
0.712499937
 10
-0.989944621
 20
0.989951011
 30
0.731249943
 10
-1.250536431
 20
0.731472193
 30
0.749999948
 10
-1.401505680
 20
0.367029240
 30
0.768749958
 10
-1.400007887
 20
-0.000001616
 30
0.787499954
 10
-1.401482445
 20
-0.367032809
 30
0.806249952
 10
-1.250503934
 20
-0.731467557
 30
0.824999931
 10
-0.989942766
 20
-0.989947790
 30
0.843749937
 10
-0.731490213
 20
-1.250530170
 30
0.862499926
 10
-0.367058091
 20
-1.401490846
 30
0.881250033
 10
0.000000000
 20
-1.400000000
 30
0.899999930
  0
SPLINE
  5
A87
330
A02
100
AcDbEntity
  8
Body
100
AcDbSpline
210
0
220
0
230
1
 70
8
 71
1
 72
4
 73
2
 74
0
 40
-1.000000000
 40
-1.000000000
 40
-0.653589838
 40
-0.653589838
 10
0.000000000
 20
-1.400000000
 30
0.899999930
 10
0.000000000
 20
-1.100000000
 30
0.726794849
  0
SPLINE
  5
A88
330
A02
100
AcDbEntity
  8
Body
100
AcDbSpline
210
0
220
0
230
1
 70
8
 71
3
 72
20
 73
16
 74
0
 40
0.000000000
 40
0.000000000
 40
0.000000000
 40
0.000000000
 40
0.221835179
 40
0.221835179
 40
0.221835179
 40
0.445386528
 40
0.445386528
 40
0.445386528
 40
0.569532398
 40
0.569532398
 40
0.569532398
 40
0.756081140
 40
0.756081140
 40
0.756081140
 40
1.000000000
 40
1.000000000
 40
1.000000000
 40
1.000000000
 10
1.100000000
 20
-0.000000000
 30
0.389291368
 10
1.103487985
 20
0.384889139
 30
0.414237560
 10
0.886527479
 20
0.761536391
 30
0.439209907
 10
0.551764898
 20
0.951606798
 30
0.464164004
 10
0.217856390
 20
1.149351635
 30
0.489316252
 10
-0.220997598
 20
1.148751748
 30
0.514470202
 10
-0.554364154
 20
0.950094935
 30
0.539626357
 10
-0.739890826
 20
0.842271654
 30
0.553591767
 10
-0.892331816
 20
0.678678086
 30
0.567553105
 10
-0.986809021
 20
0.486012300
 30
0.581515240
 10
-1.131155233
 20
0.197003920
 30
0.602496400
 10
-1.137538347
 20
-0.155979248
 30
0.623493227
 10
-1.003734923
 20
-0.450018005
 30
0.644485614
 10
-0.834785244
 20
-0.838961158
 30
0.671924457
 10
-0.424046949
 20
-1.104953259
 30
0.699346200
 10
0.000000000
 20
-1.100000000
 30
0.726794849
  0
SPLINE
  5
A89
330
A02
100
AcDbEntity
  8
Body
100
AcDbSpline
210
0
220
0
230
1
 70
8
 71
3
 72
11
 73
7
 74
0
 40
0.000006721
 40
0.000006721
 40
0.000006721
 40
0.000006721
 40
0.563925685
 40
0.563925685
 40
0.563925685
 40
1.000000000
 40
1.000000000
 40
1.000000000
 40
1.000000000
 10
0.350272068
 20
-1.042741329
 30
0.300000000
 10
0.595098788
 20
-0.961301097
 30
0.316781321
 10
0.808572680
 20
-0.790224428
 30
0.333579441
 10
0.941394049
 20
-0.569014274
 30
0.350363038
 10
1.044784895
 20
-0.398497659
 30
0.363342463
 10
1.100277419
 20
-0.199412004
 30
0.376315064
 10
1.100000000
 20
-0.000000000
 30
0.389291368
  0
SPLINE
  5
A8A
330
A02
100
AcDbEntity
  8
Body
100
AcDbSpline
210
0
220
0
230
1
 70
8
 71
2
 72
6
 73
3
 74
0
 40
0.000000000
 40
0.000000000
 40
0.000000000
 40
1.000000000
 40
1.000000000
 40
1.000000000
 10
0.000000000
 20
-1.114711454
 30
0.285288546
 10
0.181714398
 20
-1.107055867
 30
0.292626148
 10
0.350272068
 20
-1.042741329
 30
0.300000000
  0
SPLINE
  5
A8B
330
A02
100
AcDbEntity
  8
Body
100
AcDbSpline
210
0
220
0
230
1
 70
8
 71
1
 72
4
 73
2
 74
0
 40
-1.000000000
 40
-1.000000000
 40
-0.670577162
 40
-0.670577162
 10
0.000000000
 20
-1.400000000
 30
0.449999965
 10
0.000000000
 20
-1.114711454
 30
0.285288546
  0
SPLINE
  5
A8C
330
A02
100
AcDbEntity
  8
Body
100
AcDbSpline
210
0
220
0
230
1
 70
8
 71
3
 72
29
 73
25
 74
0
 40
0.000000000
 40
0.000000000
 40
0.000000000
 40
0.000000000
 40
0.785403199
 40
0.785403199
 40
0.785403199
 40
1.570806398
 40
1.570806398
 40
1.570806398
 40
2.356209597
 40
2.356209597
 40
2.356209597
 40
3.141612797
 40
3.141612797
 40
3.141612797
 40
3.927015996
 40
3.927015996
 40
3.927015996
 40
4.712419195
 40
4.712419195
 40
4.712419195
 40
5.497822394
 40
5.497822394
 40
5.497822394
 40
6.283225593
 40
6.283225593
 40
6.283225593
 40
6.283225593
 10
-0.000000000
 20
-1.400000000
 30
0.000000000
 10
0.367058091
 20
-1.401490846
 30
0.018749897
 10
0.731490213
 20
-1.250530170
 30
0.037500004
 10
0.989942766
 20
-0.989947790
 30
0.056249993
 10
1.250503934
 20
-0.731467557
 30
0.074999999
 10
1.401482445
 20
-0.367032809
 30
0.093749978
 10
1.400007887
 20
-0.000001616
 30
0.112499975
 10
1.401505680
 20
0.367029240
 30
0.131249971
 10
1.250536431
 20
0.731472193
 30
0.149999982
 10
0.989944621
 20
0.989951011
 30
0.168749987
 10
0.731453282
 20
1.250531136
 30
0.187499992
 10
0.367018227
 20
1.401484062
 30
0.206249989
 10
-0.000000000
 20
1.399998497
 30
0.224999982
 10
-0.367018227
 20
1.401484062
 30
0.243749976
 10
-0.731453282
 20
1.250531136
 30
0.262499973
 10
-0.989944621
 20
0.989951011
 30
0.281249978
 10
-1.250536431
 20
0.731472193
 30
0.299999983
 10
-1.401505680
 20
0.367029240
 30
0.318749994
 10
-1.400007887
 20
-0.000001616
 30
0.337499990
 10
-1.401482445
 20
-0.367032809
 30
0.356249987
 10
-1.250503934
 20
-0.731467557
 30
0.374999966
 10
-0.989942766
 20
-0.989947790
 30
0.393749972
 10
-0.731490213
 20
-1.250530170
 30
0.412499961
 10
-0.367058091
 20
-1.401490846
 30
0.431250068
 10
0.000000000
 20
-1.400000000
 30
0.449999965
  0
SPLINE
  5
A8D
330
A02
100
AcDbEntity
  8
Body
100
AcDbSpline
210
0
220
0
230
1
 70
8
 71
1
 72
4
 73
2
 74
0
 40
-1.000000000
 40
-1.000000000
 40
-0.670577162
 40
-0.670577162
 10
0.000000000
 20
-1.400000000
 30
0.449999965
 10
0.000000000
 20
-1.114711454
 30
0.285288546
  0
SPLINE
  5
A8E
330
A02
100
AcDbEntity
  8
Body
100
AcDbSpline
210
0
220
0
230
1
 70
8
 71
3
 72
26
 73
22
 74
0
 40
0.000000000
 40
0.000000000
 40
0.000000000
 40
0.000000000
 40
0.139068507
 40
0.139068507
 40
0.139068507
 40
0.245513096
 40
0.245513096
 40
0.245513096
 40
0.413012571
 40
0.413012571
 40
0.413012571
 40
0.546602785
 40
0.546602785
 40
0.546602785
 40
0.660434674
 40
0.660434674
 40
0.660434674
 40
0.844954989
 40
0.844954989
 40
0.844954989
 40
1.000000000
 40
1.000000000
 40
1.000000000
 40
1.000000000
 10
1.328680560
 20
0.000000000
 30
0.071319440
 10
1.319731908
 20
0.279835084
 30
0.080872634
 10
1.218995825
 20
0.554052825
 30
0.090479535
 10
1.046790967
 20
0.770633642
 30
0.100135569
 10
0.915575414
 20
0.936767385
 30
0.107526132
 10
0.743591047
 20
1.069076522
 30
0.114944320
 10
0.551223315
 20
1.152579263
 30
0.122390474
 10
0.248782704
 20
1.285653698
 30
0.134108485
 10
-0.103230842
 20
1.292699215
 30
0.145899288
 10
-0.406062871
 20
1.173992578
 30
0.157765872
 10
-0.647976241
 20
1.080879571
 30
0.167229409
 10
-0.857166270
 20
0.910127701
 30
0.176737996
 10
-0.995182247
 20
0.694764860
 30
0.186292492
 10
-1.113404785
 20
0.511713924
 30
0.194433827
 10
-1.179974210
 20
0.297357438
 30
0.202610113
 10
-1.186335877
 20
0.082122588
 30
0.210825104
 10
-1.199128666
 20
-0.267466072
 30
0.224144052
 10
-1.046685828
 20
-0.614532946
 30
0.237559209
 10
-0.786505431
 20
-0.837546003
 30
0.251055223
 10
-0.569877739
 20
-1.026804353
 30
0.262394042
 10
-0.282090686
 20
-1.127249526
 30
0.273808305
 10
0.000000000
 20
-1.114711454
 30
0.285288546
  0
SPLINE
  5
A8F
330
A02
100
AcDbEntity
  8
Body
100
AcDbSpline
210
0
220
0
230
1
 70
8
 71
3
 72
11
 73
7
 74
0
 40
0.000000000
 40
0.000000000
 40
0.000000000
 40
0.000000000
 40
0.443100185
 40
0.443100185
 40
0.443100185
 40
1.000000000
 40
1.000000000
 40
1.000000000
 40
1.000000000
 10
0.000000000
 20
-1.400000000
 30
-0.000000000
 10
0.321058946
 20
-1.390489564
 30
0.010400575
 10
0.635202472
 20
-1.265601505
 30
0.020856202
 10
0.872390410
 20
-1.054537829
 30
0.031382062
 10
1.173116717
 20
-0.791436354
 30
0.044610503
 10
1.344351864
 20
-0.393130274
 30
0.057916922
 10
1.328680560
 20
0.000000000
 30
0.071319440
  0
SPLINE
  5
A90
330
A02
100
AcDbEntity
  8
Body
100
AcDbSpline
210
0
220
0
230
1
 70
8
 71
3
 72
11
 73
7
 74
0
 40
0.000000000
 40
0.000000000
 40
0.000000000
 40
0.000000000
 40
0.544750668
 40
0.544750668
 40
0.544750668
 40
1.000000000
 40
1.000000000
 40
1.000000000
 40
1.000000000
 10
-0.000000000
 20
-1.400000000
 30
0.000000000
 10
0.382904747
 20
-1.355635410
 30
0.046234963
 10
0.731767810
 20
-1.143161522
 30
0.093555441
 10
0.935265642
 20
-0.841280454
 30
0.142035524
 10
1.107478087
 20
-0.590753122
 30
0.182550833
 10
1.177223805
 20
-0.282776212
 30
0.223931945
 10
1.133813288
 20
0.000000000
 30
0.266186712
  0
SPLINE
  5
A91
330
A02
100
AcDbEntity
  8
Body
100
AcDbSpline
210
0
220
0
230
1
 70
8
 71
2
 72
6
 73
3
 74
0
 40
0.000000000
 40
0.000000000
 40
0.000000000
 40
1.000000000
 40
1.000000000
 40
1.000000000
 10
1.133813288
 20
0.000000000
 30
0.266186712
 10
1.116863105
 20
0.112856504
 30
0.283001297
 10
1.078178873
 20
0.218014488
 30
0.300000000
  0
SPLINE
  5
A92
330
A02
100
AcDbEntity
  8
Body
100
AcDbSpline
210
0
220
0
230
1
 70
8
 71
3
 72
23
 73
19
 74
0
 40
0.000001857
 40
0.000001857
 40
0.000001857
 40
0.000001857
 40
0.232454052
 40
0.232454052
 40
0.232454052
 40
0.303472721
 40
0.303472721
 40
0.303472721
 40
0.376806751
 40
0.376806751
 40
0.376806751
 40
0.604536234
 40
0.604536234
 40
0.604536234
 40
0.772554667
 40
0.772554667
 40
0.772554667
 40
1.000000000
 40
1.000000000
 40
1.000000000
 40
1.000000000
 10
1.078178873
 20
0.218014488
 30
0.300000000
 10
1.005058168
 20
0.597408909
 30
0.325046048
 10
0.715864654
 20
0.924433248
 30
0.350079669
 10
0.348263865
 20
1.043413763
 30
0.375130725
 10
0.235830601
 20
1.080808163
 30
0.382781318
 10
0.120370145
 20
1.099669705
 30
0.390431680
 10
0.001882494
 20
1.099998389
 30
0.398081811
 10
-0.120535763
 20
1.100064783
 30
0.405981170
 10
-0.239691177
 20
1.080379312
 30
0.413880184
 10
-0.355583749
 20
1.040941976
 30
0.421778854
 10
-0.714698919
 20
0.921715745
 30
0.446312263
 10
-0.997842059
 20
0.603875464
 30
0.470857224
 10
-1.074947635
 20
0.233425751
 30
0.495395874
 10
-1.135003653
 20
-0.038332841
 30
0.513495357
 10
-1.086027339
 20
-0.332027868
 30
0.531582648
 10
-0.941045704
 20
-0.569590189
 30
0.549680714
 10
-0.748142165
 20
-0.894558527
 30
0.574191699
 10
-0.377906570
 20
-1.103242546
 30
0.598709179
 10
0.000000000
 20
-1.100000000
 30
0.623205045
  0
SPLINE
  5
A93
330
A02
100
AcDbEntity
  8
Body
100
AcDbSpline
210
0
220
0
230
1
 70
8
 71
1
 72
4
 73
2
 74
0
 40
-0.346410161
 40
-0.346410161
 40
-0.000000000
 40
-0.000000000
 10
0.000000000
 20
-1.100000000
 30
0.623205045
 10
0.000000000
 20
-1.400000000
 30
0.449999965
  0
SPLINE
  5
A94
330
A02
100
AcDbEntity
  8
Body
100
AcDbSpline
210
0
220
0
230
1
 70
8
 71
3
 72
29
 73
25
 74
0
 40
0.000000000
 40
0.000000000
 40
0.000000000
 40
0.000000000
 40
0.785403199
 40
0.785403199
 40
0.785403199
 40
1.570806398
 40
1.570806398
 40
1.570806398
 40
2.356209597
 40
2.356209597
 40
2.356209597
 40
3.141612797
 40
3.141612797
 40
3.141612797
 40
3.927015996
 40
3.927015996
 40
3.927015996
 40
4.712419195
 40
4.712419195
 40
4.712419195
 40
5.497822394
 40
5.497822394
 40
5.497822394
 40
6.283225593
 40
6.283225593
 40
6.283225593
 40
6.283225593
 10
-0.000000000
 20
-1.400000000
 30
0.000000000
 10
0.367058091
 20
-1.401490846
 30
0.018749897
 10
0.731490213
 20
-1.250530170
 30
0.037500004
 10
0.989942766
 20
-0.989947790
 30
0.056249993
 10
1.250503934
 20
-0.731467557
 30
0.074999999
 10
1.401482445
 20
-0.367032809
 30
0.093749978
 10
1.400007887
 20
-0.000001616
 30
0.112499975
 10
1.401505680
 20
0.367029240
 30
0.131249971
 10
1.250536431
 20
0.731472193
 30
0.149999982
 10
0.989944621
 20
0.989951011
 30
0.168749987
 10
0.731453282
 20
1.250531136
 30
0.187499992
 10
0.367018227
 20
1.401484062
 30
0.206249989
 10
-0.000000000
 20
1.399998497
 30
0.224999982
 10
-0.367018227
 20
1.401484062
 30
0.243749976
 10
-0.731453282
 20
1.250531136
 30
0.262499973
 10
-0.989944621
 20
0.989951011
 30
0.281249978
 10
-1.250536431
 20
0.731472193
 30
0.299999983
 10
-1.401505680
 20
0.367029240
 30
0.318749994
 10
-1.400007887
 20
-0.000001616
 30
0.337499990
 10
-1.401482445
 20
-0.367032809
 30
0.356249987
 10
-1.250503934
 20
-0.731467557
 30
0.374999966
 10
-0.989942766
 20
-0.989947790
 30
0.393749972
 10
-0.731490213
 20
-1.250530170
 30
0.412499961
 10
-0.367058091
 20
-1.401490846
 30
0.431250068
 10
0.000000000
 20
-1.400000000
 30
0.449999965
  0
LINE
  5
A95
330
A02
100
AcDbEntity
  8
Body
100
AcDbLine
 10
1.100000000
 20
0.000000000
 30
0.300000000
 11
1.133813288
 21
0.000000000
 31
0.266186712
  0
SPLINE
  5
A96
330
A02
100
AcDbEntity
  8
Body
100
AcDbSpline
210
0
220
0
230
1
 70
8
 71
2
 72
6
 73
3
 74
0
 40
0.000000000
 40
0.000000000
 40
0.000000000
 40
1.000000000
 40
1.000000000
 40
1.000000000
 10
1.133813288
 20
0.000000000
 30
0.266186712
 10
1.116863105
 20
0.112856504
 30
0.283001297
 10
1.078178873
 20
0.218014488
 30
0.300000000
  0
ARC
  5
A97
330
A02
100
AcDbEntity
  8
Body
100
AcDbCircle
 10
0.000000000
 20
0.000000000
 30
0.300000000
 40
1.100000000
100
AcDbArc
 50
0.000000000
 51
11.431426697
  0
SPLINE
  5
A98
330
A02
100
AcDbEntity
  8
Body
100
AcDbSpline
210
0
220
0
230
1
 70
8
 71
3
 72
11
 73
7
 74
0
 40
0.000000000
 40
0.000000000
 40
0.000000000
 40
0.000000000
 40
0.365341611
 40
0.365341611
 40
0.365341611
 40
1.000000000
 40
1.000000000
 40
1.000000000
 40
1.000000000
 10
0.000000000
 20
-1.100000000
 30
2.873204869
 10
0.210507483
 20
-1.100343429
 30
2.886905178
 10
0.420589873
 20
-1.038350541
 30
2.900611973
 10
0.597183059
 20
-0.923781573
 30
2.914307816
 10
0.906831119
 20
-0.727072995
 30
2.938096687
 10
1.102909803
 20
-0.366838391
 30
2.961899319
 10
1.100000000
 20
-0.000000000
 30
2.985708501
  0
SPLINE
  5
A99
330
A02
100
AcDbEntity
  8
Body
100
AcDbSpline
210
0
220
0
230
1
 70
8
 71
3
 72
23
 73
19
 74
0
 40
0.000000000
 40
0.000000000
 40
0.000000000
 40
0.000000000
 40
0.046530479
 40
0.046530479
 40
0.046530479
 40
0.264881038
 40
0.264881038
 40
0.264881038
 40
0.501419858
 40
0.501419858
 40
0.501419858
 40
0.622593312
 40
0.622593312
 40
0.622593312
 40
0.783455946
 40
0.783455946
 40
0.783455946
 40
1.000000000
 40
1.000000000
 40
1.000000000
 40
1.000000000
 10
1.100000000
 20
-0.000000000
 30
2.985708501
 10
1.099972325
 20
0.080712870
 30
2.990944052
 10
1.091194489
 20
0.160462664
 30
2.996178981
 10
1.073666491
 20
0.239249381
 30
3.001413287
 10
0.994459561
 20
0.609774289
 30
3.025981626
 10
0.708921622
 20
0.926393186
 30
3.050539086
 10
0.348521123
 20
1.043327862
 30
3.075112853
 10
-0.039826110
 20
1.177720745
 30
3.101725156
 10
-0.497642597
 20
1.068161201
 30
3.128328826
 10
-0.783082464
 20
0.772516573
 30
3.154940514
 10
-0.930413223
 20
0.623649586
 30
3.168573672
 10
-1.033533574
 20
0.431758215
 30
3.182209515
 10
-1.076377123
 20
0.226742783
 30
3.195840624
 10
-1.134736321
 20
-0.045359715
 30
3.213938379
 10
-1.083956956
 20
-0.338706808
 30
3.232023281
 10
-0.937528235
 20
-0.575361459
 30
3.250120556
 10
-0.743775700
 20
-0.897140295
 30
3.274484843
 10
-0.375603898
 20
-1.103172458
 30
3.298855889
 10
0.000000000
 20
-1.100000000
 30
3.323204834
  0
SPLINE
  5
A9A
330
A02
100
AcDbEntity
  8
Body
100
AcDbSpline
210
0
220
0
230
1
 70
8
 71
1
 72
4
 73
2
 74
0
 40
-0.346410161
 40
-0.346410161
 40
-0.000000000
 40
-0.000000000
 10
0.000000000
 20
-1.100000000
 30
3.323204834
 10
0.000000000
 20
-1.400000000
 30
3.149999754
  0
SPLINE
  5
A9B
330
A02
100
AcDbEntity
  8
Body
100
AcDbSpline
210
0
220
0
230
1
 70
8
 71
3
 72
29
 73
25
 74
0
 40
0.000000000
 40
0.000000000
 40
0.000000000
 40
0.000000000
 40
0.785403199
 40
0.785403199
 40
0.785403199
 40
1.570806398
 40
1.570806398
 40
1.570806398
 40
2.356209597
 40
2.356209597
 40
2.356209597
 40
3.141612797
 40
3.141612797
 40
3.141612797
 40
3.927015996
 40
3.927015996
 40
3.927015996
 40
4.712419195
 40
4.712419195
 40
4.712419195
 40
5.497822394
 40
5.497822394
 40
5.497822394
 40
6.283225593
 40
6.283225593
 40
6.283225593
 40
6.283225593
 10
0.000000000
 20
-1.400000000
 30
2.699999789
 10
0.367058091
 20
-1.401490846
 30
2.718749686
 10
0.731490213
 20
-1.250530170
 30
2.737499793
 10
0.989942767
 20
-0.989947790
 30
2.756249782
 10
1.250503934
 20
-0.731467557
 30
2.774999788
 10
1.401482445
 20
-0.367032809
 30
2.793749767
 10
1.400007887
 20
-0.000001616
 30
2.812499765
 10
1.401505679
 20
0.367029241
 30
2.831249761
 10
1.250536431
 20
0.731472194
 30
2.849999771
 10
0.989944621
 20
0.989951011
 30
2.868749776
 10
0.731453282
 20
1.250531136
 30
2.887499782
 10
0.367018226
 20
1.401484062
 30
2.906249778
 10
-0.000000000
 20
1.399998497
 30
2.924999772
 10
-0.367018227
 20
1.401484062
 30
2.943749765
 10
-0.731453282
 20
1.250531136
 30
2.962499762
 10
-0.989944621
 20
0.989951011
 30
2.981249767
 10
-1.250536431
 20
0.731472193
 30
2.999999773
 10
-1.401505680
 20
0.367029240
 30
3.018749783
 10
-1.400007887
 20
-0.000001616
 30
3.037499779
 10
-1.401482445
 20
-0.367032809
 30
3.056249776
 10
-1.250503934
 20
-0.731467557
 30
3.074999756
 10
-0.989942766
 20
-0.989947790
 30
3.093749761
 10
-0.731490213
 20
-1.250530170
 30
3.112499750
 10
-0.367058091
 20
-1.401490846
 30
3.131249857
 10
0.000000000
 20
-1.400000000
 30
3.149999754
  0
SPLINE
  5
A9C
330
A02
100
AcDbEntity
  8
Body
100
AcDbSpline
210
0
220
0
230
1
 70
8
 71
1
 72
4
 73
2
 74
0
 40
-0.346410161
 40
-0.346410161
 40
-0.000000000
 40
-0.000000000
 10
0.000000000
 20
-1.100000000
 30
2.873204869
 10
0.000000000
 20
-1.400000000
 30
2.699999789
  0
SPLINE
  5
A9D
330
A02
100
AcDbEntity
  8
Body
100
AcDbSpline
210
0
220
0
230
1
 70
8
 71
3
 72
29
 73
25
 74
0
 40
0.000000000
 40
0.000000000
 40
0.000000000
 40
0.000000000
 40
0.785403199
 40
0.785403199
 40
0.785403199
 40
1.570806398
 40
1.570806398
 40
1.570806398
 40
2.356209597
 40
2.356209597
 40
2.356209597
 40
3.141612797
 40
3.141612797
 40
3.141612797
 40
3.927015996
 40
3.927015996
 40
3.927015996
 40
4.712419195
 40
4.712419195
 40
4.712419195
 40
5.497822394
 40
5.497822394
 40
5.497822394
 40
6.283225593
 40
6.283225593
 40
6.283225593
 40
6.283225593
 10
0.000000000
 20
-1.400000000
 30
2.699999789
 10
0.367058091
 20
-1.401490846
 30
2.718749686
 10
0.731490213
 20
-1.250530170
 30
2.737499793
 10
0.989942767
 20
-0.989947790
 30
2.756249782
 10
1.250503934
 20
-0.731467557
 30
2.774999788
 10
1.401482445
 20
-0.367032809
 30
2.793749767
 10
1.400007887
 20
-0.000001616
 30
2.812499765
 10
1.401505679
 20
0.367029241
 30
2.831249761
 10
1.250536431
 20
0.731472194
 30
2.849999771
 10
0.989944621
 20
0.989951011
 30
2.868749776
 10
0.731453282
 20
1.250531136
 30
2.887499782
 10
0.367018226
 20
1.401484062
 30
2.906249778
 10
-0.000000000
 20
1.399998497
 30
2.924999772
 10
-0.367018227
 20
1.401484062
 30
2.943749765
 10
-0.731453282
 20
1.250531136
 30
2.962499762
 10
-0.989944621
 20
0.989951011
 30
2.981249767
 10
-1.250536431
 20
0.731472193
 30
2.999999773
 10
-1.401505680
 20
0.367029240
 30
3.018749783
 10
-1.400007887
 20
-0.000001616
 30
3.037499779
 10
-1.401482445
 20
-0.367032809
 30
3.056249776
 10
-1.250503934
 20
-0.731467557
 30
3.074999756
 10
-0.989942766
 20
-0.989947790
 30
3.093749761
 10
-0.731490213
 20
-1.250530170
 30
3.112499750
 10
-0.367058091
 20
-1.401490846
 30
3.131249857
 10
0.000000000
 20
-1.400000000
 30
3.149999754
  0
SPLINE
  5
A9E
330
A02
100
AcDbEntity
  8
Body
100
AcDbSpline
210
0
220
0
230
1
 70
8
 71
1
 72
4
 73
2
 74
0
 40
-1.000000000
 40
-1.000000000
 40
-0.653589838
 40
-0.653589838
 10
0.000000000
 20
-1.400000000
 30
3.149999754
 10
0.000000000
 20
-1.100000000
 30
2.976794672
  0
SPLINE
  5
A9F
330
A02
100
AcDbEntity
  8
Body
100
AcDbSpline
210
0
220
0
230
1
 70
8
 71
3
 72
20
 73
16
 74
0
 40
0.000000000
 40
0.000000000
 40
0.000000000
 40
0.000000000
 40
0.221854857
 40
0.221854857
 40
0.221854857
 40
0.445432979
 40
0.445432979
 40
0.445432979
 40
0.621054460
 40
0.621054460
 40
0.621054460
 40
0.756548901
 40
0.756548901
 40
0.756548901
 40
1.000000000
 40
1.000000000
 40
1.000000000
 40
1.000000000
 10
1.100000000
 20
-0.000000000
 30
2.639291192
 10
1.103489256
 20
0.384927009
 30
2.664239798
 10
0.886483819
 20
0.761608212
 30
2.689214565
 10
0.551668579
 20
0.951662639
 30
2.714171076
 10
0.217697210
 20
1.149400505
 30
2.739326542
 10
-0.221226006
 20
1.148726505
 30
2.764483716
 10
-0.554588428
 20
0.949964039
 30
2.789643088
 10
-0.817823583
 20
0.797941624
 30
2.809401440
 10
-1.011338995
 20
0.531731678
 30
2.829149574
 10
-1.074727547
 20
0.234436983
 30
2.848907113
 10
-1.125159905
 20
0.005685356
 30
2.864148831
 10
-1.099517046
 20
-0.238914399
 30
2.879398965
 10
-1.002738301
 20
-0.452234342
 30
2.894643684
 10
-0.833235680
 20
-0.840035620
 30
2.922030213
 10
-0.423205293
 20
-1.104918685
 30
2.949399228
 10
0.000000000
 20
-1.100000000
 30
2.976794672
  0
SPLINE
  5
AA0
330
A02
100
AcDbEntity
  8
Body
100
AcDbSpline
210
0
220
0
230
1
 70
8
 71
3
 72
11
 73
7
 74
0
 40
0.000000000
 40
0.000000000
 40
0.000000000
 40
0.000000000
 40
0.373891726
 40
0.373891726
 40
0.373891726
 40
1.000000000
 40
1.000000000
 40
1.000000000
 40
1.000000000
 10
0.000000000
 20
-1.100000000
 30
2.526794708
 10
0.215441344
 20
-1.100376127
 30
2.540814059
 10
0.430405877
 20
-1.035370367
 30
2.554827938
 10
0.609533187
 20
-0.915679690
 30
2.568855060
 10
0.912257724
 20
-0.717489724
 30
2.592346770
 10
1.102764532
 20
-0.361834559
 30
2.615820698
 10
1.100000000
 20
-0.000000000
 30
2.639291192
  0
SPLINE
  5
AA1
330
A02
100
AcDbEntity
  8
Body
100
AcDbSpline
210
0
220
0
230
1
 70
8
 71
1
 72
4
 73
2
 74
0
 40
-1.000000000
 40
-1.000000000
 40
-0.653589838
 40
-0.653589838
 10
0.000000000
 20
-1.400000000
 30
2.699999789
 10
0.000000000
 20
-1.100000000
 30
2.526794708
  0
SPLINE
  5
AA2
330
A02
100
AcDbEntity
  8
Body
100
AcDbSpline
210
0
220
0
230
1
 70
8
 71
3
 72
11
 73
7
 74
0
 40
0.000000000
 40
0.000000000
 40
0.000000000
 40
0.000000000
 40
0.365341433
 40
0.365341433
 40
0.365341433
 40
1.000000000
 40
1.000000000
 40
1.000000000
 40
1.000000000
 10
0.000000000
 20
-1.100000000
 30
0.623205045
 10
0.210507381
 20
-1.100343428
 30
0.636905348
 10
0.420589669
 20
-1.038350602
 30
0.650612136
 10
0.597182802
 20
-0.923781739
 30
0.664307973
 10
0.906831006
 20
-0.727073193
 30
0.688096850
 10
1.102909806
 20
-0.366838495
 30
0.711899489
 10
1.100000000
 20
0.000000000
 30
0.735708677
  0
SPLINE
  5
AA3
330
A02
100
AcDbEntity
  8
Body
100
AcDbSpline
210
0
220
0
230
1
 70
8
 71
3
 72
26
 73
22
 74
0
 40
0.000000000
 40
0.000000000
 40
0.000000000
 40
0.000000000
 40
0.046532407
 40
0.046532407
 40
0.046532407
 40
0.264901902
 40
0.264901902
 40
0.264901902
 40
0.446872139
 40
0.446872139
 40
0.446872139
 40
0.621531340
 40
0.621531340
 40
0.621531340
 40
0.746077650
 40
0.746077650
 40
0.746077650
 40
0.875579073
 40
0.875579073
 40
0.875579073
 40
1.000000000
 40
1.000000000
 40
1.000000000
 40
1.000000000
 10
1.100000000
 20
0.000000000
 30
0.735708677
 10
1.099972322
 20
0.080715417
 30
0.740944392
 10
1.091193938
 20
0.160467668
 30
0.746179485
 10
1.073664848
 20
0.239256753
 30
0.751413955
 10
0.994449879
 20
0.609810129
 30
0.775984178
 10
0.708870441
 20
0.926445546
 30
0.800543521
 10
0.348431621
 20
1.043357755
 30
0.825119174
 10
0.050160978
 20
1.144692598
 30
0.845591408
 10
-0.290809033
 20
1.108274966
 30
0.866060188
 10
-0.560955601
 20
0.946218164
 30
0.886529551
 10
-0.821711916
 20
0.793257371
 30
0.906178278
 10
-1.012828297
 20
0.527868745
 30
0.925835875
 10
-1.075240164
 20
0.232074536
 30
0.945485853
 10
-1.121025819
 20
0.021717300
 30
0.959496834
 10
-1.102900694
 20
-0.201943723
 30
0.973500830
 10
-1.023839451
 20
-0.402185007
 30
0.987507872
 10
-0.942398488
 20
-0.610703457
 30
1.002071021
 10
-0.795312181
 20
-0.792812168
 30
1.016644467
 10
-0.608598948
 20
-0.916300890
 30
1.031217729
 10
-0.429660108
 20
-1.035599046
 30
1.045220481
 10
-0.215069241
 20
-1.100373281
 30
1.059209823
 10
0.000000000
 20
-1.100000000
 30
1.073205010
  0
SPLINE
  5
AA4
330
A02
100
AcDbEntity
  8
Body
100
AcDbSpline
210
0
220
0
230
1
 70
8
 71
1
 72
4
 73
2
 74
0
 40
-0.346410161
 40
-0.346410161
 40
-0.000000000
 40
-0.000000000
 10
0.000000000
 20
-1.100000000
 30
1.073205010
 10
0.000000000
 20
-1.400000000
 30
0.899999930
  0
SPLINE
  5
AA5
330
A02
100
AcDbEntity
  8
Body
100
AcDbSpline
210
0
220
0
230
1
 70
8
 71
3
 72
29
 73
25
 74
0
 40
0.000000000
 40
0.000000000
 40
0.000000000
 40
0.000000000
 40
0.785403199
 40
0.785403199
 40
0.785403199
 40
1.570806398
 40
1.570806398
 40
1.570806398
 40
2.356209597
 40
2.356209597
 40
2.356209597
 40
3.141612797
 40
3.141612797
 40
3.141612797
 40
3.927015996
 40
3.927015996
 40
3.927015996
 40
4.712419195
 40
4.712419195
 40
4.712419195
 40
5.497822394
 40
5.497822394
 40
5.497822394
 40
6.283225593
 40
6.283225593
 40
6.283225593
 40
6.283225593
 10
0.000000000
 20
-1.400000000
 30
0.449999965
 10
0.367058091
 20
-1.401490846
 30
0.468749862
 10
0.731490213
 20
-1.250530170
 30
0.487499969
 10
0.989942767
 20
-0.989947790
 30
0.506249958
 10
1.250503934
 20
-0.731467557
 30
0.524999963
 10
1.401482445
 20
-0.367032809
 30
0.543749943
 10
1.400007887
 20
-0.000001616
 30
0.562499940
 10
1.401505679
 20
0.367029240
 30
0.581249936
 10
1.250536431
 20
0.731472193
 30
0.599999946
 10
0.989944621
 20
0.989951011
 30
0.618749952
 10
0.731453282
 20
1.250531136
 30
0.637499957
 10
0.367018227
 20
1.401484062
 30
0.656249954
 10
-0.000000000
 20
1.399998497
 30
0.674999947
 10
-0.367018227
 20
1.401484062
 30
0.693749941
 10
-0.731453282
 20
1.250531136
 30
0.712499937
 10
-0.989944621
 20
0.989951011
 30
0.731249943
 10
-1.250536431
 20
0.731472193
 30
0.749999948
 10
-1.401505680
 20
0.367029240
 30
0.768749958
 10
-1.400007887
 20
-0.000001616
 30
0.787499954
 10
-1.401482445
 20
-0.367032809
 30
0.806249952
 10
-1.250503934
 20
-0.731467557
 30
0.824999931
 10
-0.989942766
 20
-0.989947790
 30
0.843749937
 10
-0.731490213
 20
-1.250530170
 30
0.862499926
 10
-0.367058091
 20
-1.401490846
 30
0.881250033
 10
0.000000000
 20
-1.400000000
 30
0.899999930
  0
SPLINE
  5
AA6
330
A02
100
AcDbEntity
  8
Body
100
AcDbSpline
210
0
220
0
230
1
 70
8
 71
1
 72
4
 73
2
 74
0
 40
-0.346410161
 40
-0.346410161
 40
-0.000000000
 40
-0.000000000
 10
0.000000000
 20
-1.100000000
 30
0.623205045
 10
0.000000000
 20
-1.400000000
 30
0.449999965
  0
SPLINE
  5
AA7
330
A02
100
AcDbEntity
  8
Body
100
AcDbSpline
210
0
220
0
230
1
 70
8
 71
3
 72
29
 73
25
 74
0
 40
0.000000000
 40
0.000000000
 40
0.000000000
 40
0.000000000
 40
0.785403199
 40
0.785403199
 40
0.785403199
 40
1.570806398
 40
1.570806398
 40
1.570806398
 40
2.356209597
 40
2.356209597
 40
2.356209597
 40
3.141612797
 40
3.141612797
 40
3.141612797
 40
3.927015996
 40
3.927015996
 40
3.927015996
 40
4.712419195
 40
4.712419195
 40
4.712419195
 40
5.497822394
 40
5.497822394
 40
5.497822394
 40
6.283225593
 40
6.283225593
 40
6.283225593
 40
6.283225593
 10
0.000000000
 20
-1.400000000
 30
0.899999930
 10
0.367058091
 20
-1.401490846
 30
0.918749827
 10
0.731490213
 20
-1.250530170
 30
0.937499934
 10
0.989942767
 20
-0.989947790
 30
0.956249922
 10
1.250503934
 20
-0.731467557
 30
0.974999928
 10
1.401482445
 20
-0.367032809
 30
0.993749907
 10
1.400007887
 20
-0.000001616
 30
1.012499905
 10
1.401505679
 20
0.367029240
 30
1.031249901
 10
1.250536431
 20
0.731472193
 30
1.049999911
 10
0.989944621
 20
0.989951011
 30
1.068749916
 10
0.731453282
 20
1.250531136
 30
1.087499922
 10
0.367018227
 20
1.401484062
 30
1.106249919
 10
-0.000000000
 20
1.399998497
 30
1.124999912
 10
-0.367018227
 20
1.401484062
 30
1.143749906
 10
-0.731453282
 20
1.250531136
 30
1.162499902
 10
-0.989944621
 20
0.989951011
 30
1.181249908
 10
-1.250536431
 20
0.731472193
 30
1.199999913
 10
-1.401505680
 20
0.367029240
 30
1.218749923
 10
-1.400007887
 20
-0.000001616
 30
1.237499919
 10
-1.401482445
 20
-0.367032809
 30
1.256249917
 10
-1.250503934
 20
-0.731467557
 30
1.274999896
 10
-0.989942766
 20
-0.989947790
 30
1.293749902
 10
-0.731490213
 20
-1.250530170
 30
1.312499890
 10
-0.367058091
 20
-1.401490846
 30
1.331249998
 10
0.000000000
 20
-1.400000000
 30
1.349999895
  0
SPLINE
  5
AA8
330
A02
100
AcDbEntity
  8
Body
100
AcDbSpline
210
0
220
0
230
1
 70
8
 71
1
 72
4
 73
2
 74
0
 40
-1.000000000
 40
-1.000000000
 40
-0.653589838
 40
-0.653589838
 10
0.000000000
 20
-1.400000000
 30
1.349999895
 10
0.000000000
 20
-1.100000000
 30
1.176794813
  0
SPLINE
  5
AA9
330
A02
100
AcDbEntity
  8
Body
100
AcDbSpline
210
0
220
0
230
1
 70
8
 71
3
 72
20
 73
16
 74
0
 40
0.000000000
 40
0.000000000
 40
0.000000000
 40
0.000000000
 40
0.221875992
 40
0.221875992
 40
0.221875992
 40
0.445481293
 40
0.445481293
 40
0.445481293
 40
0.621033806
 40
0.621033806
 40
0.621033806
 40
0.756091418
 40
0.756091418
 40
0.756091418
 40
1.000000000
 40
1.000000000
 40
1.000000000
 40
1.000000000
 10
1.100000000
 20
-0.000000000
 30
0.839291333
 10
1.103490471
 20
0.384963160
 30
0.864242244
 10
0.886442137
 20
0.761676770
 30
0.889219321
 10
0.551576629
 20
0.951715936
 30
0.914178137
 10
0.217546370
 20
1.149446437
 30
0.939336590
 10
-0.221441116
 20
1.148702443
 30
0.964496758
 10
-0.554799145
 20
0.949840992
 30
0.989659116
 10
-0.817894897
 20
0.797819390
 30
1.009409645
 10
-1.011306495
 20
0.531719767
 30
1.029149968
 10
-1.074702766
 20
0.234550558
 30
1.048899685
 10
-1.124991312
 20
0.006543241
 30
1.064092214
 10
-1.099715960
 20
-0.237220901
 30
1.079293097
 10
-1.003715565
 20
-0.450061178
 30
1.094488660
 10
-0.834755172
 20
-0.838981965
 30
1.121926474
 10
-0.424030691
 20
-1.104952574
 30
1.149347193
 10
0.000000000
 20
-1.100000000
 30
1.176794813
  0
SPLINE
  5
AAA
330
A02
100
AcDbEntity
  8
Body
100
AcDbSpline
210
0
220
0
230
1
 70
8
 71
3
 72
11
 73
7
 74
0
 40
0.000000000
 40
0.000000000
 40
0.000000000
 40
0.000000000
 40
0.373891952
 40
0.373891952
 40
0.373891952
 40
1.000000000
 40
1.000000000
 40
1.000000000
 40
1.000000000
 10
0.000000000
 20
-1.100000000
 30
0.726794849
 10
0.215441475
 20
-1.100376128
 30
0.740814208
 10
0.430406137
 20
-1.035370287
 30
0.754828096
 10
0.609533512
 20
-0.915679473
 30
0.768855226
 10
0.912257866
 20
-0.717489470
 30
0.792346928
 10
1.102764528
 20
-0.361834427
 30
0.815820847
 10
1.100000000
 20
-0.000000000
 30
0.839291333
  0
SPLINE
  5
AAB
330
A02
100
AcDbEntity
  8
Body
100
AcDbSpline
210
0
220
0
230
1
 70
8
 71
1
 72
4
 73
2
 74
0
 40
-1.000000000
 40
-1.000000000
 40
-0.653589838
 40
-0.653589838
 10
0.000000000
 20
-1.400000000
 30
0.899999930
 10
0.000000000
 20
-1.100000000
 30
0.726794849
  0
SPLINE
  5
AAC
330
A02
100
AcDbEntity
  8
Body
100
AcDbSpline
210
0
220
0
230
1
 70
8
 71
3
 72
11
 73
7
 74
0
 40
0.000000000
 40
0.000000000
 40
0.000000000
 40
0.000000000
 40
0.365341702
 40
0.365341702
 40
0.365341702
 40
1.000000000
 40
1.000000000
 40
1.000000000
 40
1.000000000
 10
0.000000000
 20
-1.100000000
 30
2.423204904
 10
0.210507536
 20
-1.100343429
 30
2.436905217
 10
0.420589977
 20
-1.038350510
 30
2.450612015
 10
0.597183191
 20
-0.923781487
 30
2.464307862
 10
0.906831177
 20
-0.727072893
 30
2.488096729
 10
1.102909801
 20
-0.366838338
 30
2.511899358
 10
1.100000000
 20
0.000000000
 30
2.535708536
  0
SPLINE
  5
AAD
330
A02
100
AcDbEntity
  8
Body
100
AcDbSpline
210
0
220
0
230
1
 70
8
 71
3
 72
23
 73
19
 74
0
 40
0.000000000
 40
0.000000000
 40
0.000000000
 40
0.000000000
 40
0.046530547
 40
0.046530547
 40
0.046530547
 40
0.264875611
 40
0.264875611
 40
0.264875611
 40
0.446613691
 40
0.446613691
 40
0.446613691
 40
0.621253426
 40
0.621253426
 40
0.621253426
 40
0.783123081
 40
0.783123081
 40
0.783123081
 40
1.000000000
 40
1.000000000
 40
1.000000000
 40
1.000000000
 10
1.100000000
 20
0.000000000
 30
2.535708536
 10
1.099972327
 20
0.080711374
 30
2.540943991
 10
1.091194813
 20
0.160459725
 30
2.546178823
 10
1.073667455
 20
0.239245052
 30
2.551413033
 10
0.994465250
 20
0.609753226
 30
2.575980266
 10
0.708951702
 20
0.926362409
 30
2.600536618
 10
0.348573728
 20
1.043310287
 30
2.625109277
 10
0.050701346
 20
1.144548783
 30
2.645555192
 10
-0.289783364
 20
1.108419642
 30
2.665997670
 10
-0.559783199
 20
0.946912230
 30
2.686440703
 10
-0.820696641
 20
0.794292759
 30
2.706087032
 10
-1.012128052
 20
0.529187691
 30
2.725742224
 10
-1.074928577
 20
0.233513499
 30
2.745389851
 10
-1.135394143
 20
-0.039916645
 30
2.763600724
 10
-1.085416888
 20
-0.335535934
 30
2.781798481
 10
-0.938426433
 20
-0.573895313
 30
2.800008643
 10
-0.744895132
 20
-0.896476882
 30
2.824409506
 10
-0.376192513
 20
-1.103191464
 30
2.848818412
 10
0.000000000
 20
-1.100000000
 30
2.873204869
  0
SPLINE
  5
AAE
330
A02
100
AcDbEntity
  8
Body
100
AcDbSpline
210
0
220
0
230
1
 70
8
 71
1
 72
4
 73
2
 74
0
 40
-0.346410161
 40
-0.346410161
 40
-0.000000000
 40
-0.000000000
 10
0.000000000
 20
-1.100000000
 30
2.873204869
 10
0.000000000
 20
-1.400000000
 30
2.699999789
  0
SPLINE
  5
AAF
330
A02
100
AcDbEntity
  8
Body
100
AcDbSpline
210
0
220
0
230
1
 70
8
 71
3
 72
29
 73
25
 74
0
 40
0.000000000
 40
0.000000000
 40
0.000000000
 40
0.000000000
 40
0.785403199
 40
0.785403199
 40
0.785403199
 40
1.570806398
 40
1.570806398
 40
1.570806398
 40
2.356209597
 40
2.356209597
 40
2.356209597
 40
3.141612797
 40
3.141612797
 40
3.141612797
 40
3.927015996
 40
3.927015996
 40
3.927015996
 40
4.712419195
 40
4.712419195
 40
4.712419195
 40
5.497822394
 40
5.497822394
 40
5.497822394
 40
6.283225593
 40
6.283225593
 40
6.283225593
 40
6.283225593
 10
0.000000000
 20
-1.400000000
 30
2.249999824
 10
0.367058091
 20
-1.401490846
 30
2.268749721
 10
0.731490213
 20
-1.250530170
 30
2.287499829
 10
0.989942767
 20
-0.989947790
 30
2.306249817
 10
1.250503934
 20
-0.731467557
 30
2.324999823
 10
1.401482445
 20
-0.367032809
 30
2.343749802
 10
1.400007887
 20
-0.000001616
 30
2.362499800
 10
1.401505679
 20
0.367029241
 30
2.381249796
 10
1.250536431
 20
0.731472193
 30
2.399999806
 10
0.989944621
 20
0.989951011
 30
2.418749811
 10
0.731453282
 20
1.250531136
 30
2.437499817
 10
0.367018227
 20
1.401484062
 30
2.456249813
 10
-0.000000000
 20
1.399998497
 30
2.474999807
 10
-0.367018227
 20
1.401484062
 30
2.493749800
 10
-0.731453282
 20
1.250531136
 30
2.512499797
 10
-0.989944621
 20
0.989951011
 30
2.531249803
 10
-1.250536431
 20
0.731472193
 30
2.549999808
 10
-1.401505680
 20
0.367029240
 30
2.568749818
 10
-1.400007887
 20
-0.000001616
 30
2.587499814
 10
-1.401482445
 20
-0.367032809
 30
2.606249812
 10
-1.250503934
 20
-0.731467557
 30
2.624999791
 10
-0.989942766
 20
-0.989947790
 30
2.643749797
 10
-0.731490213
 20
-1.250530170
 30
2.662499785
 10
-0.367058091
 20
-1.401490846
 30
2.681249892
 10
0.000000000
 20
-1.400000000
 30
2.699999789
  0
SPLINE
  5
AB0
330
A02
100
AcDbEntity
  8
Body
100
AcDbSpline
210
0
220
0
230
1
 70
8
 71
1
 72
4
 73
2
 74
0
 40
-0.346410161
 40
-0.346410161
 40
-0.000000000
 40
-0.000000000
 10
0.000000000
 20
-1.100000000
 30
2.423204904
 10
0.000000000
 20
-1.400000000
 30
2.249999824
  0
SPLINE
  5
AB1
330
A02
100
AcDbEntity
  8
Body
100
AcDbSpline
210
0
220
0
230
1
 70
8
 71
3
 72
29
 73
25
 74
0
 40
0.000000000
 40
0.000000000
 40
0.000000000
 40
0.000000000
 40
0.785403199
 40
0.785403199
 40
0.785403199
 40
1.570806398
 40
1.570806398
 40
1.570806398
 40
2.356209597
 40
2.356209597
 40
2.356209597
 40
3.141612797
 40
3.141612797
 40
3.141612797
 40
3.927015996
 40
3.927015996
 40
3.927015996
 40
4.712419195
 40
4.712419195
 40
4.712419195
 40
5.497822394
 40
5.497822394
 40
5.497822394
 40
6.283225593
 40
6.283225593
 40
6.283225593
 40
6.283225593
 10
0.000000000
 20
-1.400000000
 30
2.249999824
 10
0.367058091
 20
-1.401490846
 30
2.268749721
 10
0.731490213
 20
-1.250530170
 30
2.287499829
 10
0.989942767
 20
-0.989947790
 30
2.306249817
 10
1.250503934
 20
-0.731467557
 30
2.324999823
 10
1.401482445
 20
-0.367032809
 30
2.343749802
 10
1.400007887
 20
-0.000001616
 30
2.362499800
 10
1.401505679
 20
0.367029241
 30
2.381249796
 10
1.250536431
 20
0.731472193
 30
2.399999806
 10
0.989944621
 20
0.989951011
 30
2.418749811
 10
0.731453282
 20
1.250531136
 30
2.437499817
 10
0.367018227
 20
1.401484062
 30
2.456249813
 10
-0.000000000
 20
1.399998497
 30
2.474999807
 10
-0.367018227
 20
1.401484062
 30
2.493749800
 10
-0.731453282
 20
1.250531136
 30
2.512499797
 10
-0.989944621
 20
0.989951011
 30
2.531249803
 10
-1.250536431
 20
0.731472193
 30
2.549999808
 10
-1.401505680
 20
0.367029240
 30
2.568749818
 10
-1.400007887
 20
-0.000001616
 30
2.587499814
 10
-1.401482445
 20
-0.367032809
 30
2.606249812
 10
-1.250503934
 20
-0.731467557
 30
2.624999791
 10
-0.989942766
 20
-0.989947790
 30
2.643749797
 10
-0.731490213
 20
-1.250530170
 30
2.662499785
 10
-0.367058091
 20
-1.401490846
 30
2.681249892
 10
0.000000000
 20
-1.400000000
 30
2.699999789
  0
SPLINE
  5
AB2
330
A02
100
AcDbEntity
  8
Body
100
AcDbSpline
210
0
220
0
230
1
 70
8
 71
1
 72
4
 73
2
 74
0
 40
-1.000000000
 40
-1.000000000
 40
-0.653589838
 40
-0.653589838
 10
0.000000000
 20
-1.400000000
 30
2.699999789
 10
0.000000000
 20
-1.100000000
 30
2.526794708
  0
SPLINE
  5
AB3
330
A02
100
AcDbEntity
  8
Body
100
AcDbSpline
210
0
220
0
230
1
 70
8
 71
3
 72
20
 73
16
 74
0
 40
0.000000000
 40
0.000000000
 40
0.000000000
 40
0.000000000
 40
0.221864044
 40
0.221864044
 40
0.221864044
 40
0.445453982
 40
0.445453982
 40
0.445453982
 40
0.620516378
 40
0.620516378
 40
0.620516378
 40
0.756160293
 40
0.756160293
 40
0.756160293
 40
1.000000000
 40
1.000000000
 40
1.000000000
 40
1.000000000
 10
1.100000000
 20
-0.000000000
 30
2.189291227
 10
1.103489766
 20
0.384942179
 30
2.214240801
 10
0.886466329
 20
0.761636980
 30
2.239216537
 10
0.551629996
 20
0.951685004
 30
2.264174015
 10
0.217633780
 20
1.149419866
 30
2.289330745
 10
-0.221316624
 20
1.148716404
 30
2.314489185
 10
-0.554677256
 20
0.949912176
 30
2.339649820
 10
-0.817047040
 20
0.798341942
 30
2.359345186
 10
-1.010176012
 20
0.533347037
 30
2.379030415
 10
-1.074127552
 20
0.237170828
 30
2.398724912
 10
-1.125199721
 20
0.008296348
 30
2.413983358
 10
-1.100063070
 20
-0.236654109
 30
2.429250253
 10
-1.003569484
 20
-0.450386824
 30
2.444511796
 10
-0.834528330
 20
-0.839138882
 30
2.471941849
 10
-0.423908050
 20
-1.104947402
 30
2.499354844
 10
0.000000000
 20
-1.100000000
 30
2.526794708
  0
SPLINE
  5
AB4
330
A02
100
AcDbEntity
  8
Body
100
AcDbSpline
210
0
220
0
230
1
 70
8
 71
3
 72
11
 73
7
 74
0
 40
0.000000000
 40
0.000000000
 40
0.000000000
 40
0.000000000
 40
0.373891812
 40
0.373891812
 40
0.373891812
 40
1.000000000
 40
1.000000000
 40
1.000000000
 40
1.000000000
 10
0.000000000
 20
-1.100000000
 30
2.076794743
 10
0.215441394
 20
-1.100376127
 30
2.090814097
 10
0.430405976
 20
-1.035370336
 30
2.104827980
 10
0.609533311
 20
-0.915679607
 30
2.118855105
 10
0.912257778
 20
-0.717489627
 30
2.142346812
 10
1.102764531
 20
-0.361834509
 30
2.165820736
 10
1.100000000
 20
-0.000000000
 30
2.189291227
  0
SPLINE
  5
AB5
330
A02
100
AcDbEntity
  8
Body
100
AcDbSpline
210
0
220
0
230
1
 70
8
 71
1
 72
4
 73
2
 74
0
 40
-1.000000000
 40
-1.000000000
 40
-0.653589838
 40
-0.653589838
 10
0.000000000
 20
-1.400000000
 30
2.249999824
 10
0.000000000
 20
-1.100000000
 30
2.076794743
  0
SPLINE
  5
AB6
330
A02
100
AcDbEntity
  8
Body
100
AcDbSpline
210
0
220
0
230
1
 70
8
 71
3
 72
11
 73
7
 74
0
 40
0.000000000
 40
0.000000000
 40
0.000000000
 40
0.000000000
 40
0.365341895
 40
0.365341895
 40
0.365341895
 40
1.000000000
 40
1.000000000
 40
1.000000000
 40
1.000000000
 10
0.000000000
 20
-1.100000000
 30
1.073205010
 10
0.210507647
 20
-1.100343430
 30
1.086905330
 10
0.420590199
 20
-1.038350443
 30
1.100612135
 10
0.597183471
 20
-0.923781306
 30
1.114307989
 10
0.906831301
 20
-0.727072677
 30
1.138096850
 10
1.102909798
 20
-0.366838225
 30
1.161899471
 10
1.100000000
 20
-0.000000000
 30
1.185708642
  0
SPLINE
  5
AB7
330
A02
100
AcDbEntity
  8
Body
100
AcDbSpline
210
0
220
0
230
1
 70
8
 71
3
 72
26
 73
22
 74
0
 40
0.000000000
 40
0.000000000
 40
0.000000000
 40
0.000000000
 40
0.046528500
 40
0.046528500
 40
0.046528500
 40
0.264853000
 40
0.264853000
 40
0.264853000
 40
0.446389187
 40
0.446389187
 40
0.446389187
 40
0.621518214
 40
0.621518214
 40
0.621518214
 40
0.746035536
 40
0.746035536
 40
0.746035536
 40
0.875597064
 40
0.875597064
 40
0.875597064
 40
1.000000000
 40
1.000000000
 40
1.000000000
 40
1.000000000
 10
1.100000000
 20
-0.000000000
 30
1.185708642
 10
1.099972331
 20
0.080708613
 30
1.190943919
 10
1.091195410
 20
0.160454300
 30
1.196178574
 10
1.073669236
 20
0.239237062
 30
1.201412606
 10
0.994475822
 20
0.609713968
 30
1.225977770
 10
0.709007806
 20
0.926304980
 30
1.250532055
 10
0.348671902
 20
1.043277482
 30
1.275102643
 10
0.051137828
 20
1.144426859
 30
1.295526049
 10
-0.288931062
 20
1.108536266
 30
1.315946031
 10
-0.558801052
 20
0.947492155
 30
1.336366548
 10
-0.820617561
 20
0.794721609
 30
1.356068123
 10
-1.012637731
 20
0.528733628
 30
1.375778615
 10
-1.075226116
 20
0.232139611
 30
1.395481483
 10
-1.121013557
 20
0.021834219
 30
1.409489198
 10
-1.102921832
 20
-0.201772743
 30
1.423489933
 10
-1.023918800
 20
-0.401982950
 30
1.437493706
 10
-0.942481677
 20
-0.610614615
 30
1.452063608
 10
-0.795331595
 20
-0.792823080
 30
1.466643785
 10
-0.608520890
 20
-0.916352730
 30
1.481223797
 10
-0.429597845
 20
-1.035618150
 30
1.495224512
 10
-0.215037937
 20
-1.100373068
 30
1.509211820
 10
0.000000000
 20
-1.100000000
 30
1.523204975
  0
SPLINE
  5
AB8
330
A02
100
AcDbEntity
  8
Body
100
AcDbSpline
210
0
220
0
230
1
 70
8
 71
1
 72
4
 73
2
 74
0
 40
-0.346410161
 40
-0.346410161
 40
-0.000000000
 40
-0.000000000
 10
0.000000000
 20
-1.100000000
 30
1.523204975
 10
0.000000000
 20
-1.400000000
 30
1.349999895
  0
SPLINE
  5
AB9
330
A02
100
AcDbEntity
  8
Body
100
AcDbSpline
210
0
220
0
230
1
 70
8
 71
3
 72
29
 73
25
 74
0
 40
0.000000000
 40
0.000000000
 40
0.000000000
 40
0.000000000
 40
0.785403199
 40
0.785403199
 40
0.785403199
 40
1.570806398
 40
1.570806398
 40
1.570806398
 40
2.356209597
 40
2.356209597
 40
2.356209597
 40
3.141612797
 40
3.141612797
 40
3.141612797
 40
3.927015996
 40
3.927015996
 40
3.927015996
 40
4.712419195
 40
4.712419195
 40
4.712419195
 40
5.497822394
 40
5.497822394
 40
5.497822394
 40
6.283225593
 40
6.283225593
 40
6.283225593
 40
6.283225593
 10
0.000000000
 20
-1.400000000
 30
0.899999930
 10
0.367058091
 20
-1.401490846
 30
0.918749827
 10
0.731490213
 20
-1.250530170
 30
0.937499934
 10
0.989942767
 20
-0.989947790
 30
0.956249922
 10
1.250503934
 20
-0.731467557
 30
0.974999928
 10
1.401482445
 20
-0.367032809
 30
0.993749907
 10
1.400007887
 20
-0.000001616
 30
1.012499905
 10
1.401505679
 20
0.367029240
 30
1.031249901
 10
1.250536431
 20
0.731472193
 30
1.049999911
 10
0.989944621
 20
0.989951011
 30
1.068749916
 10
0.731453282
 20
1.250531136
 30
1.087499922
 10
0.367018227
 20
1.401484062
 30
1.106249919
 10
-0.000000000
 20
1.399998497
 30
1.124999912
 10
-0.367018227
 20
1.401484062
 30
1.143749906
 10
-0.731453282
 20
1.250531136
 30
1.162499902
 10
-0.989944621
 20
0.989951011
 30
1.181249908
 10
-1.250536431
 20
0.731472193
 30
1.199999913
 10
-1.401505680
 20
0.367029240
 30
1.218749923
 10
-1.400007887
 20
-0.000001616
 30
1.237499919
 10
-1.401482445
 20
-0.367032809
 30
1.256249917
 10
-1.250503934
 20
-0.731467557
 30
1.274999896
 10
-0.989942766
 20
-0.989947790
 30
1.293749902
 10
-0.731490213
 20
-1.250530170
 30
1.312499890
 10
-0.367058091
 20
-1.401490846
 30
1.331249998
 10
0.000000000
 20
-1.400000000
 30
1.349999895
  0
SPLINE
  5
ABA
330
A02
100
AcDbEntity
  8
Body
100
AcDbSpline
210
0
220
0
230
1
 70
8
 71
1
 72
4
 73
2
 74
0
 40
-0.346410161
 40
-0.346410161
 40
-0.000000000
 40
-0.000000000
 10
0.000000000
 20
-1.100000000
 30
1.073205010
 10
0.000000000
 20
-1.400000000
 30
0.899999930
  0
SPLINE
  5
ABB
330
A02
100
AcDbEntity
  8
Body
100
AcDbSpline
210
0
220
0
230
1
 70
8
 71
3
 72
29
 73
25
 74
0
 40
0.000000000
 40
0.000000000
 40
0.000000000
 40
0.000000000
 40
0.785403199
 40
0.785403199
 40
0.785403199
 40
1.570806398
 40
1.570806398
 40
1.570806398
 40
2.356209597
 40
2.356209597
 40
2.356209597
 40
3.141612797
 40
3.141612797
 40
3.141612797
 40
3.927015996
 40
3.927015996
 40
3.927015996
 40
4.712419195
 40
4.712419195
 40
4.712419195
 40
5.497822394
 40
5.497822394
 40
5.497822394
 40
6.283225593
 40
6.283225593
 40
6.283225593
 40
6.283225593
 10
0.000000000
 20
-1.400000000
 30
1.349999895
 10
0.367058091
 20
-1.401490846
 30
1.368749792
 10
0.731490213
 20
-1.250530170
 30
1.387499899
 10
0.989942767
 20
-0.989947790
 30
1.406249887
 10
1.250503934
 20
-0.731467557
 30
1.424999893
 10
1.401482445
 20
-0.367032809
 30
1.443749872
 10
1.400007887
 20
-0.000001616
 30
1.462499870
 10
1.401505679
 20
0.367029240
 30
1.481249866
 10
1.250536431
 20
0.731472193
 30
1.499999876
 10
0.989944621
 20
0.989951011
 30
1.518749881
 10
0.731453282
 20
1.250531136
 30
1.537499887
 10
0.367018227
 20
1.401484062
 30
1.556249883
 10
-0.000000000
 20
1.399998497
 30
1.574999877
 10
-0.367018227
 20
1.401484062
 30
1.593749871
 10
-0.731453282
 20
1.250531136
 30
1.612499867
 10
-0.989944621
 20
0.989951011
 30
1.631249873
 10
-1.250536431
 20
0.731472193
 30
1.649999878
 10
-1.401505680
 20
0.367029240
 30
1.668749888
 10
-1.400007887
 20
-0.000001616
 30
1.687499884
 10
-1.401482445
 20
-0.367032809
 30
1.706249882
 10
-1.250503934
 20
-0.731467557
 30
1.724999861
 10
-0.989942766
 20
-0.989947790
 30
1.743749867
 10
-0.731490213
 20
-1.250530170
 30
1.762499855
 10
-0.367058091
 20
-1.401490846
 30
1.781249963
 10
0.000000000
 20
-1.400000000
 30
1.799999859
  0
SPLINE
  5
ABC
330
A02
100
AcDbEntity
  8
Body
100
AcDbSpline
210
0
220
0
230
1
 70
8
 71
1
 72
4
 73
2
 74
0
 40
-1.000000000
 40
-1.000000000
 40
-0.653589838
 40
-0.653589838
 10
0.000000000
 20
-1.400000000
 30
1.799999859
 10
0.000000000
 20
-1.100000000
 30
1.626794778
  0
SPLINE
  5
ABD
330
A02
100
AcDbEntity
  8
Body
100
AcDbSpline
210
0
220
0
230
1
 70
8
 71
3
 72
20
 73
16
 74
0
 40
0.000000000
 40
0.000000000
 40
0.000000000
 40
0.000000000
 40
0.221863267
 40
0.221863267
 40
0.221863267
 40
0.445452383
 40
0.445452383
 40
0.445452383
 40
0.620513216
 40
0.620513216
 40
0.620513216
 40
0.756055135
 40
0.756055135
 40
0.756055135
 40
1.000000000
 40
1.000000000
 40
1.000000000
 40
1.000000000
 10
1.100000000
 20
-0.000000000
 30
1.289291298
 10
1.103489758
 20
0.384941952
 30
1.314240857
 10
0.886466591
 20
0.761636550
 30
1.339216578
 10
0.551630573
 20
0.951684670
 30
1.364174042
 10
0.217634729
 20
1.149419576
 30
1.389330753
 10
-0.221315268
 20
1.148716555
 30
1.414489175
 10
-0.554675926
 20
0.949912952
 30
1.439649790
 10
-0.817044324
 20
0.798343982
 30
1.459345038
 10
-1.010172985
 20
0.533351661
 30
1.479030149
 10
-1.074126045
 20
0.237177656
 30
1.498724528
 10
-1.125160200
 20
0.008475133
 30
1.513971543
 10
-1.100104333
 20
-0.236280431
 30
1.529226993
 10
-1.003787885
 20
-0.449899859
 30
1.544477113
 10
-0.834862403
 20
-0.838911802
 30
1.571919331
 10
-0.424084154
 20
-1.104955785
 30
1.599343741
 10
0.000000000
 20
-1.100000000
 30
1.626794778
  0
SPLINE
  5
ABE
330
A02
100
AcDbEntity
  8
Body
100
AcDbSpline
210
0
220
0
230
1
 70
8
 71
3
 72
11
 73
7
 74
0
 40
0.000000000
 40
0.000000000
 40
0.000000000
 40
0.000000000
 40
0.373891814
 40
0.373891814
 40
0.373891814
 40
1.000000000
 40
1.000000000
 40
1.000000000
 40
1.000000000
 10
0.000000000
 20
-1.100000000
 30
1.176794813
 10
0.215441395
 20
-1.100376127
 30
1.190814168
 10
0.430405978
 20
-1.035370336
 30
1.204828050
 10
0.609533313
 20
-0.915679606
 30
1.218855175
 10
0.912257779
 20
-0.717489625
 30
1.242346882
 10
1.102764531
 20
-0.361834508
 30
1.265820807
 10
1.100000000
 20
-0.000000000
 30
1.289291298
  0
SPLINE
  5
ABF
330
A02
100
AcDbEntity
  8
Body
100
AcDbSpline
210
0
220
0
230
1
 70
8
 71
1
 72
4
 73
2
 74
0
 40
-1.000000000
 40
-1.000000000
 40
-0.653589838
 40
-0.653589838
 10
0.000000000
 20
-1.400000000
 30
1.349999895
 10
0.000000000
 20
-1.100000000
 30
1.176794813
  0
SPLINE
  5
AC0
330
A02
100
AcDbEntity
  8
Body
100
AcDbSpline
210
0
220
0
230
1
 70
8
 71
3
 72
11
 73
7
 74
0
 40
0.000000000
 40
0.000000000
 40
0.000000000
 40
0.000000000
 40
0.365341953
 40
0.365341953
 40
0.365341953
 40
1.000000000
 40
1.000000000
 40
1.000000000
 40
1.000000000
 10
0.000000000
 20
-1.100000000
 30
1.973204940
 10
0.210507681
 20
-1.100343430
 30
1.986905261
 10
0.420590266
 20
-1.038350423
 30
2.000612069
 10
0.597183556
 20
-0.923781251
 30
2.014307925
 10
0.906831338
 20
-0.727072611
 30
2.038096784
 10
1.102909797
 20
-0.366838191
 30
2.061899403
 10
1.100000000
 20
-0.000000000
 30
2.085708571
  0
SPLINE
  5
AC1
330
A02
100
AcDbEntity
  8
Body
100
AcDbSpline
210
0
220
0
230
1
 70
8
 71
3
 72
23
 73
19
 74
0
 40
0.000000000
 40
0.000000000
 40
0.000000000
 40
0.000000000
 40
0.046528272
 40
0.046528272
 40
0.046528272
 40
0.264847937
 40
0.264847937
 40
0.264847937
 40
0.446299213
 40
0.446299213
 40
0.446299213
 40
0.621786327
 40
0.621786327
 40
0.621786327
 40
0.783588385
 40
0.783588385
 40
0.783588385
 40
1.000000000
 40
1.000000000
 40
1.000000000
 40
1.000000000
 10
1.100000000
 20
-0.000000000
 30
2.085708571
 10
1.099972333
 20
0.080707664
 30
2.090943787
 10
1.091195615
 20
0.160452435
 30
2.096178381
 10
1.073669848
 20
0.239234316
 30
2.101412353
 10
0.994479457
 20
0.609700468
 30
2.125976805
 10
0.709027099
 20
0.926285228
 30
2.150530378
 10
0.348705664
 20
1.043266198
 30
2.175100254
 10
0.051316424
 20
1.144374766
 30
2.195513969
 10
-0.288573145
 20
1.108583959
 30
2.215924265
 10
-0.558385710
 20
0.947736988
 30
2.236335087
 10
-0.820810830
 20
0.794774982
 30
2.256076821
 10
-1.013175144
 20
0.528083900
 30
2.275827512
 10
-1.075514115
 20
0.230801620
 30
2.295570522
 10
-1.135263705
 20
-0.042666263
 30
2.313773772
 10
-1.084611626
 20
-0.338027642
 30
2.331963951
 10
-0.937158452
 20
-0.575963571
 30
2.350166633
 10
-0.743318514
 20
-0.897409457
 30
2.374515618
 10
-0.375363816
 20
-1.103164936
 30
2.398871281
 10
0.000000000
 20
-1.100000000
 30
2.423204904
  0
SPLINE
  5
AC2
330
A02
100
AcDbEntity
  8
Body
100
AcDbSpline
210
0
220
0
230
1
 70
8
 71
1
 72
4
 73
2
 74
0
 40
-0.346410161
 40
-0.346410161
 40
-0.000000000
 40
-0.000000000
 10
0.000000000
 20
-1.100000000
 30
2.423204904
 10
0.000000000
 20
-1.400000000
 30
2.249999824
  0
SPLINE
  5
AC3
330
A02
100
AcDbEntity
  8
Body
100
AcDbSpline
210
0
220
0
230
1
 70
8
 71
3
 72
29
 73
25
 74
0
 40
0.000000000
 40
0.000000000
 40
0.000000000
 40
0.000000000
 40
0.785403199
 40
0.785403199
 40
0.785403199
 40
1.570806398
 40
1.570806398
 40
1.570806398
 40
2.356209597
 40
2.356209597
 40
2.356209597
 40
3.141612797
 40
3.141612797
 40
3.141612797
 40
3.927015996
 40
3.927015996
 40
3.927015996
 40
4.712419195
 40
4.712419195
 40
4.712419195
 40
5.497822394
 40
5.497822394
 40
5.497822394
 40
6.283225593
 40
6.283225593
 40
6.283225593
 40
6.283225593
 10
0.000000000
 20
-1.400000000
 30
1.799999859
 10
0.367058091
 20
-1.401490846
 30
1.818749756
 10
0.731490213
 20
-1.250530170
 30
1.837499864
 10
0.989942767
 20
-0.989947790
 30
1.856249852
 10
1.250503934
 20
-0.731467557
 30
1.874999858
 10
1.401482445
 20
-0.367032809
 30
1.893749837
 10
1.400007887
 20
-0.000001616
 30
1.912499835
 10
1.401505679
 20
0.367029241
 30
1.931249831
 10
1.250536431
 20
0.731472193
 30
1.949999841
 10
0.989944621
 20
0.989951011
 30
1.968749846
 10
0.731453282
 20
1.250531136
 30
1.987499852
 10
0.367018227
 20
1.401484062
 30
2.006249848
 10
-0.000000000
 20
1.399998497
 30
2.024999842
 10
-0.367018227
 20
1.401484062
 30
2.043749836
 10
-0.731453282
 20
1.250531136
 30
2.062499832
 10
-0.989944621
 20
0.989951011
 30
2.081249838
 10
-1.250536431
 20
0.731472193
 30
2.099999843
 10
-1.401505680
 20
0.367029240
 30
2.118749853
 10
-1.400007887
 20
-0.000001616
 30
2.137499849
 10
-1.401482445
 20
-0.367032809
 30
2.156249847
 10
-1.250503934
 20
-0.731467557
 30
2.174999826
 10
-0.989942766
 20
-0.989947790
 30
2.193749832
 10
-0.731490213
 20
-1.250530170
 30
2.212499820
 10
-0.367058091
 20
-1.401490846
 30
2.231249927
 10
0.000000000
 20
-1.400000000
 30
2.249999824
  0
SPLINE
  5
AC4
330
A02
100
AcDbEntity
  8
Body
100
AcDbSpline
210
0
220
0
230
1
 70
8
 71
1
 72
4
 73
2
 74
0
 40
-0.346410161
 40
-0.346410161
 40
-0.000000000
 40
-0.000000000
 10
0.000000000
 20
-1.100000000
 30
1.973204940
 10
0.000000000
 20
-1.400000000
 30
1.799999859
  0
SPLINE
  5
AC5
330
A02
100
AcDbEntity
  8
Body
100
AcDbSpline
210
0
220
0
230
1
 70
8
 71
3
 72
29
 73
25
 74
0
 40
0.000000000
 40
0.000000000
 40
0.000000000
 40
0.000000000
 40
0.785403199
 40
0.785403199
 40
0.785403199
 40
1.570806398
 40
1.570806398
 40
1.570806398
 40
2.356209597
 40
2.356209597
 40
2.356209597
 40
3.141612797
 40
3.141612797
 40
3.141612797
 40
3.927015996
 40
3.927015996
 40
3.927015996
 40
4.712419195
 40
4.712419195
 40
4.712419195
 40
5.497822394
 40
5.497822394
 40
5.497822394
 40
6.283225593
 40
6.283225593
 40
6.283225593
 40
6.283225593
 10
0.000000000
 20
-1.400000000
 30
1.799999859
 10
0.367058091
 20
-1.401490846
 30
1.818749756
 10
0.731490213
 20
-1.250530170
 30
1.837499864
 10
0.989942767
 20
-0.989947790
 30
1.856249852
 10
1.250503934
 20
-0.731467557
 30
1.874999858
 10
1.401482445
 20
-0.367032809
 30
1.893749837
 10
1.400007887
 20
-0.000001616
 30
1.912499835
 10
1.401505679
 20
0.367029241
 30
1.931249831
 10
1.250536431
 20
0.731472193
 30
1.949999841
 10
0.989944621
 20
0.989951011
 30
1.968749846
 10
0.731453282
 20
1.250531136
 30
1.987499852
 10
0.367018227
 20
1.401484062
 30
2.006249848
 10
-0.000000000
 20
1.399998497
 30
2.024999842
 10
-0.367018227
 20
1.401484062
 30
2.043749836
 10
-0.731453282
 20
1.250531136
 30
2.062499832
 10
-0.989944621
 20
0.989951011
 30
2.081249838
 10
-1.250536431
 20
0.731472193
 30
2.099999843
 10
-1.401505680
 20
0.367029240
 30
2.118749853
 10
-1.400007887
 20
-0.000001616
 30
2.137499849
 10
-1.401482445
 20
-0.367032809
 30
2.156249847
 10
-1.250503934
 20
-0.731467557
 30
2.174999826
 10
-0.989942766
 20
-0.989947790
 30
2.193749832
 10
-0.731490213
 20
-1.250530170
 30
2.212499820
 10
-0.367058091
 20
-1.401490846
 30
2.231249927
 10
0.000000000
 20
-1.400000000
 30
2.249999824
  0
SPLINE
  5
AC6
330
A02
100
AcDbEntity
  8
Body
100
AcDbSpline
210
0
220
0
230
1
 70
8
 71
1
 72
4
 73
2
 74
0
 40
-1.000000000
 40
-1.000000000
 40
-0.653589838
 40
-0.653589838
 10
0.000000000
 20
-1.400000000
 30
2.249999824
 10
0.000000000
 20
-1.100000000
 30
2.076794743
  0
SPLINE
  5
AC7
330
A02
100
AcDbEntity
  8
Body
100
AcDbSpline
210
0
220
0
230
1
 70
8
 71
3
 72
20
 73
16
 74
0
 40
0.000000000
 40
0.000000000
 40
0.000000000
 40
0.000000000
 40
0.221886453
 40
0.221886453
 40
0.221886453
 40
0.445504714
 40
0.445504714
 40
0.445504714
 40
0.621284801
 40
0.621284801
 40
0.621284801
 40
0.783437948
 40
0.783437948
 40
0.783437948
 40
1.000000000
 40
1.000000000
 40
1.000000000
 40
1.000000000
 10
1.100000000
 20
-0.000000000
 30
1.739291262
 10
1.103491017
 20
0.384979407
 30
1.764243210
 10
0.886423403
 20
0.761707582
 30
1.789221325
 10
0.551535303
 20
0.951739886
 30
1.814181176
 10
0.217478914
 20
1.149466863
 30
1.839340947
 10
-0.221536908
 20
1.148691639
 30
1.864502435
 10
-0.554892829
 20
0.949786265
 30
1.889666110
 10
-0.818318253
 20
0.797545577
 30
1.909442143
 10
-1.011849424
 20
0.530926872
 30
1.929207937
 10
-1.074975726
 20
0.233296355
 30
1.948983187
 10
-1.135496017
 20
-0.040620291
 30
1.967224325
 10
-1.085165918
 20
-0.336774584
 30
1.985477817
 10
-0.937552758
 20
-0.575321498
 30
2.003718984
 10
-0.743805525
 20
-0.897123240
 30
2.028074453
 10
-0.375618115
 20
-1.103173317
 30
2.052426852
 10
0.000000000
 20
-1.100000000
 30
2.076794743
  0
SPLINE
  5
AC8
330
A02
100
AcDbEntity
  8
Body
100
AcDbSpline
210
0
220
0
230
1
 70
8
 71
3
 72
11
 73
7
 74
0
 40
0.000000000
 40
0.000000000
 40
0.000000000
 40
0.000000000
 40
0.373892049
 40
0.373892049
 40
0.373892049
 40
1.000000000
 40
1.000000000
 40
1.000000000
 40
1.000000000
 10
0.000000000
 20
-1.100000000
 30
1.626794778
 10
0.215441531
 20
-1.100376128
 30
1.640814141
 10
0.430406249
 20
-1.035370253
 30
1.654828033
 10
0.609533652
 20
-0.915679380
 30
1.668855167
 10
0.912257928
 20
-0.717489361
 30
1.692346865
 10
1.102764527
 20
-0.361834370
 30
1.715820780
 10
1.100000000
 20
-0.000000000
 30
1.739291262
  0
SPLINE
  5
AC9
330
A02
100
AcDbEntity
  8
Body
100
AcDbSpline
210
0
220
0
230
1
 70
8
 71
1
 72
4
 73
2
 74
0
 40
-1.000000000
 40
-1.000000000
 40
-0.653589838
 40
-0.653589838
 10
0.000000000
 20
-1.400000000
 30
1.799999859
 10
0.000000000
 20
-1.100000000
 30
1.626794778
  0
SPLINE
  5
ACA
330
A02
100
AcDbEntity
  8
Body
100
AcDbSpline
210
0
220
0
230
1
 70
8
 71
3
 72
11
 73
7
 74
0
 40
0.000000000
 40
0.000000000
 40
0.000000000
 40
0.000000000
 40
0.365341748
 40
0.365341748
 40
0.365341748
 40
1.000000000
 40
1.000000000
 40
1.000000000
 40
1.000000000
 10
0.000000000
 20
-1.100000000
 30
1.523204975
 10
0.210507562
 20
-1.100343430
 30
1.536905289
 10
0.420590030
 20
-1.038350494
 30
1.550612089
 10
0.597183258
 20
-0.923781444
 30
1.564307938
 10
0.906831207
 20
-0.727072841
 30
1.588096803
 10
1.102909800
 20
-0.366838311
 30
1.611899430
 10
1.100000000
 20
-0.000000000
 30
1.635708607
  0
SPLINE
  5
ACB
330
A02
100
AcDbEntity
  8
Body
100
AcDbSpline
210
0
220
0
230
1
 70
8
 71
3
 72
26
 73
22
 74
0
 40
0.000000000
 40
0.000000000
 40
0.000000000
 40
0.000000000
 40
0.046529689
 40
0.046529689
 40
0.046529689
 40
0.264868180
 40
0.264868180
 40
0.264868180
 40
0.446565337
 40
0.446565337
 40
0.446565337
 40
0.620881688
 40
0.620881688
 40
0.620881688
 40
0.745736322
 40
0.745736322
 40
0.745736322
 40
0.874939137
 40
0.874939137
 40
0.874939137
 40
1.000000000
 40
1.000000000
 40
1.000000000
 40
1.000000000
 10
1.100000000
 20
-0.000000000
 30
1.635708607
 10
1.099972328
 20
0.080710731
 30
1.640944020
 10
1.091194952
 20
0.160458461
 30
1.646178811
 10
1.073667870
 20
0.239243192
 30
1.651412980
 10
0.994467710
 20
0.609744097
 30
1.675979731
 10
0.708964747
 20
0.926349058
 30
1.700535603
 10
0.348596552
 20
1.043302662
 30
1.725107781
 10
0.050790488
 20
1.144524836
 30
1.745549307
 10
-0.289613276
 20
1.108443445
 30
1.765987399
 10
-0.559588418
 20
0.947027351
 30
1.786426043
 10
-0.820045690
 20
0.794738151
 30
1.806036181
 10
-1.011325733
 20
0.530379840
 30
1.825655143
 10
-1.074524958
 20
0.235363793
 30
1.845266619
 10
-1.121071959
 20
0.024626717
 30
1.859312349
 10
-1.103421617
 20
-0.199675308
 30
1.873351055
 10
-1.024484331
 20
-0.400539455
 30
1.887392756
 10
-0.943562289
 20
-0.608706879
 30
1.901922421
 10
-0.797266122
 20
-0.790694725
 30
1.916461971
 10
-0.611359797
 20
-0.914461152
 30
1.931001576
 10
-0.431864401
 20
-1.034920759
 30
1.945076430
 10
-0.216177645
 20
-1.100380863
 30
1.959137781
 10
0.000000000
 20
-1.100000000
 30
1.973204940
  0
SPLINE
  5
ACC
330
A02
100
AcDbEntity
  8
Body
100
AcDbSpline
210
0
220
0
230
1
 70
8
 71
1
 72
4
 73
2
 74
0
 40
-0.346410161
 40
-0.346410161
 40
-0.000000000
 40
-0.000000000
 10
0.000000000
 20
-1.100000000
 30
1.973204940
 10
0.000000000
 20
-1.400000000
 30
1.799999859
  0
SPLINE
  5
ACD
330
A02
100
AcDbEntity
  8
Body
100
AcDbSpline
210
0
220
0
230
1
 70
8
 71
3
 72
29
 73
25
 74
0
 40
0.000000000
 40
0.000000000
 40
0.000000000
 40
0.000000000
 40
0.785403199
 40
0.785403199
 40
0.785403199
 40
1.570806398
 40
1.570806398
 40
1.570806398
 40
2.356209597
 40
2.356209597
 40
2.356209597
 40
3.141612797
 40
3.141612797
 40
3.141612797
 40
3.927015996
 40
3.927015996
 40
3.927015996
 40
4.712419195
 40
4.712419195
 40
4.712419195
 40
5.497822394
 40
5.497822394
 40
5.497822394
 40
6.283225593
 40
6.283225593
 40
6.283225593
 40
6.283225593
 10
0.000000000
 20
-1.400000000
 30
1.349999895
 10
0.367058091
 20
-1.401490846
 30
1.368749792
 10
0.731490213
 20
-1.250530170
 30
1.387499899
 10
0.989942767
 20
-0.989947790
 30
1.406249887
 10
1.250503934
 20
-0.731467557
 30
1.424999893
 10
1.401482445
 20
-0.367032809
 30
1.443749872
 10
1.400007887
 20
-0.000001616
 30
1.462499870
 10
1.401505679
 20
0.367029240
 30
1.481249866
 10
1.250536431
 20
0.731472193
 30
1.499999876
 10
0.989944621
 20
0.989951011
 30
1.518749881
 10
0.731453282
 20
1.250531136
 30
1.537499887
 10
0.367018227
 20
1.401484062
 30
1.556249883
 10
-0.000000000
 20
1.399998497
 30
1.574999877
 10
-0.367018227
 20
1.401484062
 30
1.593749871
 10
-0.731453282
 20
1.250531136
 30
1.612499867
 10
-0.989944621
 20
0.989951011
 30
1.631249873
 10
-1.250536431
 20
0.731472193
 30
1.649999878
 10
-1.401505680
 20
0.367029240
 30
1.668749888
 10
-1.400007887
 20
-0.000001616
 30
1.687499884
 10
-1.401482445
 20
-0.367032809
 30
1.706249882
 10
-1.250503934
 20
-0.731467557
 30
1.724999861
 10
-0.989942766
 20
-0.989947790
 30
1.743749867
 10
-0.731490213
 20
-1.250530170
 30
1.762499855
 10
-0.367058091
 20
-1.401490846
 30
1.781249963
 10
0.000000000
 20
-1.400000000
 30
1.799999859
  0
SPLINE
  5
ACE
330
A02
100
AcDbEntity
  8
Body
100
AcDbSpline
210
0
220
0
230
1
 70
8
 71
1
 72
4
 73
2
 74
0
 40
-0.346410161
 40
-0.346410161
 40
-0.000000000
 40
-0.000000000
 10
0.000000000
 20
-1.100000000
 30
1.523204975
 10
0.000000000
 20
-1.400000000
 30
1.349999895
  0
ARC
  5
ACF
330
A02
100
AcDbEntity
  8
Body
100
AcDbCircle
 10
0.000000000
 20
0.000000000
 30
0.300000000
 40
1.100000000
100
AcDbArc
 50
-71.432046728
 51
-0.000000000
  0
SPLINE
  5
AD0
330
A02
100
AcDbEntity
  8
Body
100
AcDbSpline
210
0
220
0
230
1
 70
8
 71
3
 72
11
 73
7
 74
0
 40
0.000006721
 40
0.000006721
 40
0.000006721
 40
0.000006721
 40
0.563925685
 40
0.563925685
 40
0.563925685
 40
1.000000000
 40
1.000000000
 40
1.000000000
 40
1.000000000
 10
0.350272068
 20
-1.042741329
 30
0.300000000
 10
0.595098788
 20
-0.961301097
 30
0.316781321
 10
0.808572680
 20
-0.790224428
 30
0.333579441
 10
0.941394049
 20
-0.569014274
 30
0.350363038
 10
1.044784895
 20
-0.398497659
 30
0.363342463
 10
1.100277419
 20
-0.199412004
 30
0.376315064
 10
1.100000000
 20
-0.000000000
 30
0.389291368
  0
SPLINE
  5
AD1
330
A02
100
AcDbEntity
  8
Body
100
AcDbSpline
210
0
220
0
230
1
 70
8
 71
3
 72
20
 73
16
 74
0
 40
0.000000000
 40
0.000000000
 40
0.000000000
 40
0.000000000
 40
0.221835179
 40
0.221835179
 40
0.221835179
 40
0.445386528
 40
0.445386528
 40
0.445386528
 40
0.569532398
 40
0.569532398
 40
0.569532398
 40
0.756081140
 40
0.756081140
 40
0.756081140
 40
1.000000000
 40
1.000000000
 40
1.000000000
 40
1.000000000
 10
1.100000000
 20
-0.000000000
 30
0.389291368
 10
1.103487985
 20
0.384889139
 30
0.414237560
 10
0.886527479
 20
0.761536391
 30
0.439209907
 10
0.551764898
 20
0.951606798
 30
0.464164004
 10
0.217856390
 20
1.149351635
 30
0.489316252
 10
-0.220997598
 20
1.148751748
 30
0.514470202
 10
-0.554364154
 20
0.950094935
 30
0.539626357
 10
-0.739890826
 20
0.842271654
 30
0.553591767
 10
-0.892331816
 20
0.678678086
 30
0.567553105
 10
-0.986809021
 20
0.486012300
 30
0.581515240
 10
-1.131155233
 20
0.197003920
 30
0.602496400
 10
-1.137538347
 20
-0.155979248
 30
0.623493227
 10
-1.003734923
 20
-0.450018005
 30
0.644485614
 10
-0.834785244
 20
-0.838961158
 30
0.671924457
 10
-0.424046949
 20
-1.104953259
 30
0.699346200
 10
0.000000000
 20
-1.100000000
 30
0.726794849
  0
SPLINE
  5
AD2
330
A02
100
AcDbEntity
  8
Body
100
AcDbSpline
210
0
220
0
230
1
 70
8
 71
3
 72
11
 73
7
 74
0
 40
0.000000000
 40
0.000000000
 40
0.000000000
 40
0.000000000
 40
0.373891952
 40
0.373891952
 40
0.373891952
 40
1.000000000
 40
1.000000000
 40
1.000000000
 40
1.000000000
 10
0.000000000
 20
-1.100000000
 30
0.726794849
 10
0.215441475
 20
-1.100376128
 30
0.740814208
 10
0.430406137
 20
-1.035370287
 30
0.754828096
 10
0.609533512
 20
-0.915679473
 30
0.768855226
 10
0.912257866
 20
-0.717489470
 30
0.792346928
 10
1.102764528
 20
-0.361834427
 30
0.815820847
 10
1.100000000
 20
-0.000000000
 30
0.839291333
  0
SPLINE
  5
AD3
330
A02
100
AcDbEntity
  8
Body
100
AcDbSpline
210
0
220
0
230
1
 70
8
 71
3
 72
20
 73
16
 74
0
 40
0.000000000
 40
0.000000000
 40
0.000000000
 40
0.000000000
 40
0.221875992
 40
0.221875992
 40
0.221875992
 40
0.445481293
 40
0.445481293
 40
0.445481293
 40
0.621033806
 40
0.621033806
 40
0.621033806
 40
0.756091418
 40
0.756091418
 40
0.756091418
 40
1.000000000
 40
1.000000000
 40
1.000000000
 40
1.000000000
 10
1.100000000
 20
-0.000000000
 30
0.839291333
 10
1.103490471
 20
0.384963160
 30
0.864242244
 10
0.886442137
 20
0.761676770
 30
0.889219321
 10
0.551576629
 20
0.951715936
 30
0.914178137
 10
0.217546370
 20
1.149446437
 30
0.939336590
 10
-0.221441116
 20
1.148702443
 30
0.964496758
 10
-0.554799145
 20
0.949840992
 30
0.989659116
 10
-0.817894897
 20
0.797819390
 30
1.009409645
 10
-1.011306495
 20
0.531719767
 30
1.029149968
 10
-1.074702766
 20
0.234550558
 30
1.048899685
 10
-1.124991312
 20
0.006543241
 30
1.064092214
 10
-1.099715960
 20
-0.237220901
 30
1.079293097
 10
-1.003715565
 20
-0.450061178
 30
1.094488660
 10
-0.834755172
 20
-0.838981965
 30
1.121926474
 10
-0.424030691
 20
-1.104952574
 30
1.149347193
 10
0.000000000
 20
-1.100000000
 30
1.176794813
  0
SPLINE
  5
AD4
330
A02
100
AcDbEntity
  8
Body
100
AcDbSpline
210
0
220
0
230
1
 70
8
 71
3
 72
11
 73
7
 74
0
 40
0.000000000
 40
0.000000000
 40
0.000000000
 40
0.000000000
 40
0.373891814
 40
0.373891814
 40
0.373891814
 40
1.000000000
 40
1.000000000
 40
1.000000000
 40
1.000000000
 10
0.000000000
 20
-1.100000000
 30
1.176794813
 10
0.215441395
 20
-1.100376127
 30
1.190814168
 10
0.430405978
 20
-1.035370336
 30
1.204828050
 10
0.609533313
 20
-0.915679606
 30
1.218855175
 10
0.912257779
 20
-0.717489625
 30
1.242346882
 10
1.102764531
 20
-0.361834508
 30
1.265820807
 10
1.100000000
 20
-0.000000000
 30
1.289291298
  0
SPLINE
  5
AD5
330
A02
100
AcDbEntity
  8
Body
100
AcDbSpline
210
0
220
0
230
1
 70
8
 71
3
 72
20
 73
16
 74
0
 40
0.000000000
 40
0.000000000
 40
0.000000000
 40
0.000000000
 40
0.221863267
 40
0.221863267
 40
0.221863267
 40
0.445452383
 40
0.445452383
 40
0.445452383
 40
0.620513216
 40
0.620513216
 40
0.620513216
 40
0.756055135
 40
0.756055135
 40
0.756055135
 40
1.000000000
 40
1.000000000
 40
1.000000000
 40
1.000000000
 10
1.100000000
 20
-0.000000000
 30
1.289291298
 10
1.103489758
 20
0.384941952
 30
1.314240857
 10
0.886466591
 20
0.761636550
 30
1.339216578
 10
0.551630573
 20
0.951684670
 30
1.364174042
 10
0.217634729
 20
1.149419576
 30
1.389330753
 10
-0.221315268
 20
1.148716555
 30
1.414489175
 10
-0.554675926
 20
0.949912952
 30
1.439649790
 10
-0.817044324
 20
0.798343982
 30
1.459345038
 10
-1.010172985
 20
0.533351661
 30
1.479030149
 10
-1.074126045
 20
0.237177656
 30
1.498724528
 10
-1.125160200
 20
0.008475133
 30
1.513971543
 10
-1.100104333
 20
-0.236280431
 30
1.529226993
 10
-1.003787885
 20
-0.449899859
 30
1.544477113
 10
-0.834862403
 20
-0.838911802
 30
1.571919331
 10
-0.424084154
 20
-1.104955785
 30
1.599343741
 10
0.000000000
 20
-1.100000000
 30
1.626794778
  0
SPLINE
  5
AD6
330
A02
100
AcDbEntity
  8
Body
100
AcDbSpline
210
0
220
0
230
1
 70
8
 71
3
 72
11
 73
7
 74
0
 40
0.000000000
 40
0.000000000
 40
0.000000000
 40
0.000000000
 40
0.373892049
 40
0.373892049
 40
0.373892049
 40
1.000000000
 40
1.000000000
 40
1.000000000
 40
1.000000000
 10
0.000000000
 20
-1.100000000
 30
1.626794778
 10
0.215441531
 20
-1.100376128
 30
1.640814141
 10
0.430406249
 20
-1.035370253
 30
1.654828033
 10
0.609533652
 20
-0.915679380
 30
1.668855167
 10
0.912257928
 20
-0.717489361
 30
1.692346865
 10
1.102764527
 20
-0.361834370
 30
1.715820780
 10
1.100000000
 20
-0.000000000
 30
1.739291262
  0
SPLINE
  5
AD7
330
A02
100
AcDbEntity
  8
Body
100
AcDbSpline
210
0
220
0
230
1
 70
8
 71
3
 72
20
 73
16
 74
0
 40
0.000000000
 40
0.000000000
 40
0.000000000
 40
0.000000000
 40
0.221886453
 40
0.221886453
 40
0.221886453
 40
0.445504714
 40
0.445504714
 40
0.445504714
 40
0.621284801
 40
0.621284801
 40
0.621284801
 40
0.783437948
 40
0.783437948
 40
0.783437948
 40
1.000000000
 40
1.000000000
 40
1.000000000
 40
1.000000000
 10
1.100000000
 20
-0.000000000
 30
1.739291262
 10
1.103491017
 20
0.384979407
 30
1.764243210
 10
0.886423403
 20
0.761707582
 30
1.789221325
 10
0.551535303
 20
0.951739886
 30
1.814181176
 10
0.217478914
 20
1.149466863
 30
1.839340947
 10
-0.221536908
 20
1.148691639
 30
1.864502435
 10
-0.554892829
 20
0.949786265
 30
1.889666110
 10
-0.818318253
 20
0.797545577
 30
1.909442143
 10
-1.011849424
 20
0.530926872
 30
1.929207937
 10
-1.074975726
 20
0.233296355
 30
1.948983187
 10
-1.135496017
 20
-0.040620291
 30
1.967224325
 10
-1.085165918
 20
-0.336774584
 30
1.985477817
 10
-0.937552758
 20
-0.575321498
 30
2.003718984
 10
-0.743805525
 20
-0.897123240
 30
2.028074453
 10
-0.375618115
 20
-1.103173317
 30
2.052426852
 10
0.000000000
 20
-1.100000000
 30
2.076794743
  0
SPLINE
  5
AD8
330
A02
100
AcDbEntity
  8
Body
100
AcDbSpline
210
0
220
0
230
1
 70
8
 71
3
 72
11
 73
7
 74
0
 40
0.000000000
 40
0.000000000
 40
0.000000000
 40
0.000000000
 40
0.373891812
 40
0.373891812
 40
0.373891812
 40
1.000000000
 40
1.000000000
 40
1.000000000
 40
1.000000000
 10
0.000000000
 20
-1.100000000
 30
2.076794743
 10
0.215441394
 20
-1.100376127
 30
2.090814097
 10
0.430405976
 20
-1.035370336
 30
2.104827980
 10
0.609533311
 20
-0.915679607
 30
2.118855105
 10
0.912257778
 20
-0.717489627
 30
2.142346812
 10
1.102764531
 20
-0.361834509
 30
2.165820736
 10
1.100000000
 20
-0.000000000
 30
2.189291227
  0
SPLINE
  5
AD9
330
A02
100
AcDbEntity
  8
Body
100
AcDbSpline
210
0
220
0
230
1
 70
8
 71
3
 72
20
 73
16
 74
0
 40
0.000000000
 40
0.000000000
 40
0.000000000
 40
0.000000000
 40
0.221864044
 40
0.221864044
 40
0.221864044
 40
0.445453982
 40
0.445453982
 40
0.445453982
 40
0.620516378
 40
0.620516378
 40
0.620516378
 40
0.756160293
 40
0.756160293
 40
0.756160293
 40
1.000000000
 40
1.000000000
 40
1.000000000
 40
1.000000000
 10
1.100000000
 20
-0.000000000
 30
2.189291227
 10
1.103489766
 20
0.384942179
 30
2.214240801
 10
0.886466329
 20
0.761636980
 30
2.239216537
 10
0.551629996
 20
0.951685004
 30
2.264174015
 10
0.217633780
 20
1.149419866
 30
2.289330745
 10
-0.221316624
 20
1.148716404
 30
2.314489185
 10
-0.554677256
 20
0.949912176
 30
2.339649820
 10
-0.817047040
 20
0.798341942
 30
2.359345186
 10
-1.010176012
 20
0.533347037
 30
2.379030415
 10
-1.074127552
 20
0.237170828
 30
2.398724912
 10
-1.125199721
 20
0.008296348
 30
2.413983358
 10
-1.100063070
 20
-0.236654109
 30
2.429250253
 10
-1.003569484
 20
-0.450386824
 30
2.444511796
 10
-0.834528330
 20
-0.839138882
 30
2.471941849
 10
-0.423908050
 20
-1.104947402
 30
2.499354844
 10
0.000000000
 20
-1.100000000
 30
2.526794708
  0
SPLINE
  5
ADA
330
A02
100
AcDbEntity
  8
Body
100
AcDbSpline
210
0
220
0
230
1
 70
8
 71
3
 72
11
 73
7
 74
0
 40
0.000000000
 40
0.000000000
 40
0.000000000
 40
0.000000000
 40
0.373891726
 40
0.373891726
 40
0.373891726
 40
1.000000000
 40
1.000000000
 40
1.000000000
 40
1.000000000
 10
0.000000000
 20
-1.100000000
 30
2.526794708
 10
0.215441344
 20
-1.100376127
 30
2.540814059
 10
0.430405877
 20
-1.035370367
 30
2.554827938
 10
0.609533187
 20
-0.915679690
 30
2.568855060
 10
0.912257724
 20
-0.717489724
 30
2.592346770
 10
1.102764532
 20
-0.361834559
 30
2.615820698
 10
1.100000000
 20
-0.000000000
 30
2.639291192
  0
SPLINE
  5
ADB
330
A02
100
AcDbEntity
  8
Body
100
AcDbSpline
210
0
220
0
230
1
 70
8
 71
3
 72
20
 73
16
 74
0
 40
0.000000000
 40
0.000000000
 40
0.000000000
 40
0.000000000
 40
0.221854857
 40
0.221854857
 40
0.221854857
 40
0.445432979
 40
0.445432979
 40
0.445432979
 40
0.621054460
 40
0.621054460
 40
0.621054460
 40
0.756548901
 40
0.756548901
 40
0.756548901
 40
1.000000000
 40
1.000000000
 40
1.000000000
 40
1.000000000
 10
1.100000000
 20
-0.000000000
 30
2.639291192
 10
1.103489256
 20
0.384927009
 30
2.664239798
 10
0.886483819
 20
0.761608212
 30
2.689214565
 10
0.551668579
 20
0.951662639
 30
2.714171076
 10
0.217697210
 20
1.149400505
 30
2.739326542
 10
-0.221226006
 20
1.148726505
 30
2.764483716
 10
-0.554588428
 20
0.949964039
 30
2.789643088
 10
-0.817823583
 20
0.797941624
 30
2.809401440
 10
-1.011338995
 20
0.531731678
 30
2.829149574
 10
-1.074727547
 20
0.234436983
 30
2.848907113
 10
-1.125159905
 20
0.005685356
 30
2.864148831
 10
-1.099517046
 20
-0.238914399
 30
2.879398965
 10
-1.002738301
 20
-0.452234342
 30
2.894643684
 10
-0.833235680
 20
-0.840035620
 30
2.922030213
 10
-0.423205293
 20
-1.104918685
 30
2.949399228
 10
0.000000000
 20
-1.100000000
 30
2.976794672
  0
SPLINE
  5
ADC
330
A02
100
AcDbEntity
  8
Body
100
AcDbSpline
210
0
220
0
230
1
 70
8
 71
3
 72
11
 73
7
 74
0
 40
0.000000000
 40
0.000000000
 40
0.000000000
 40
0.000000000
 40
0.373891937
 40
0.373891937
 40
0.373891937
 40
1.000000000
 40
1.000000000
 40
1.000000000
 40
1.000000000
 10
0.000000000
 20
-1.100000000
 30
2.976794672
 10
0.215441466
 20
-1.100376127
 30
2.990814031
 10
0.430406120
 20
-1.035370292
 30
3.004827919
 10
0.609533491
 20
-0.915679487
 30
3.018855048
 10
0.912257857
 20
-0.717489487
 30
3.042346751
 10
1.102764529
 20
-0.361834436
 30
3.065820670
 10
1.100000000
 20
-0.000000000
 30
3.089291157
  0
SPLINE
  5
ADD
330
A02
100
AcDbEntity
  8
Body
100
AcDbSpline
210
0
220
0
230
1
 70
8
 71
3
 72
20
 73
16
 74
0
 40
0.000000000
 40
0.000000000
 40
0.000000000
 40
0.000000000
 40
0.221877178
 40
0.221877178
 40
0.221877178
 40
0.445483429
 40
0.445483429
 40
0.445483429
 40
0.621012684
 40
0.621012684
 40
0.621012684
 40
0.783511074
 40
0.783511074
 40
0.783511074
 40
1.000000000
 40
1.000000000
 40
1.000000000
 40
1.000000000
 10
1.100000000
 20
-0.000000000
 30
3.089291157
 10
1.103490416
 20
0.384961534
 30
3.114241964
 10
0.886444012
 20
0.761673687
 30
3.139218937
 10
0.551580764
 20
0.951713539
 30
3.164177649
 10
0.217553124
 20
1.149444390
 30
3.189335971
 10
-0.221431518
 20
1.148703524
 30
3.214496006
 10
-0.554789756
 20
0.949846475
 30
3.239658232
 10
-0.817849095
 20
0.797848717
 30
3.259405955
 10
-1.011247256
 20
0.531805982
 30
3.279143476
 10
-1.074672876
 20
0.234687470
 30
3.298890385
 10
-1.135683976
 20
-0.039734305
 30
3.317170269
 10
-1.085375695
 20
-0.336626629
 30
3.335462583
 10
-0.937362770
 20
-0.575630991
 30
3.353742522
 10
-0.743570009
 20
-0.897265356
 30
3.378090246
 10
-0.375482234
 20
-1.103172158
 30
3.402435450
 10
0.000000000
 20
-1.100000000
 30
3.426794637
  0
SPLINE
  5
ADE
330
A02
100
AcDbEntity
  8
Body
100
AcDbSpline
210
0
220
0
230
1
 70
8
 71
3
 72
11
 73
7
 74
0
 40
0.000000000
 40
0.000000000
 40
0.000000000
 40
0.000000000
 40
0.373891722
 40
0.373891722
 40
0.373891722
 40
1.000000000
 40
1.000000000
 40
1.000000000
 40
1.000000000
 10
0.000000000
 20
-1.100000000
 30
3.426794637
 10
0.215441342
 20
-1.100376127
 30
3.440813988
 10
0.430405873
 20
-1.035370368
 30
3.454827867
 10
0.609533181
 20
-0.915679693
 30
3.468854989
 10
0.912257721
 20
-0.717489728
 30
3.492346699
 10
1.102764532
 20
-0.361834562
 30
3.515820627
 10
1.100000000
 20
0.000000000
 30
3.539291121
  0
SPLINE
  5
ADF
330
A02
100
AcDbEntity
  8
Body
100
AcDbSpline
210
0
220
0
230
1
 70
8
 71
3
 72
20
 73
16
 74
0
 40
0.000000000
 40
0.000000000
 40
0.000000000
 40
0.000000000
 40
0.221855433
 40
0.221855433
 40
0.221855433
 40
0.445434123
 40
0.445434123
 40
0.445434123
 40
0.621062686
 40
0.621062686
 40
0.621062686
 40
0.756588451
 40
0.756588451
 40
0.756588451
 40
1.000000000
 40
1.000000000
 40
1.000000000
 40
1.000000000
 10
1.100000000
 20
0.000000000
 30
3.539291121
 10
1.103489253
 20
0.384926914
 30
3.564239722
 10
0.886483929
 20
0.761608031
 30
3.589214482
 10
0.551668821
 20
0.951662499
 30
3.614170987
 10
0.217697603
 20
1.149400387
 30
3.639326446
 10
-0.221225451
 20
1.148726568
 30
3.664483612
 10
-0.554587885
 20
0.949964356
 30
3.689642976
 10
-0.817833142
 20
0.797936483
 30
3.709402069
 10
-1.011352949
 20
0.531712125
 30
3.729150944
 10
-1.074734689
 20
0.234404243
 30
3.748909224
 10
-1.125171961
 20
0.005598782
 30
3.764154424
 10
-1.099497395
 20
-0.239059524
 30
3.779408043
 10
-1.002658566
 20
-0.452411096
 30
3.794656241
 10
-0.833117512
 20
-0.840113143
 30
3.822037995
 10
-0.423146020
 20
-1.104915199
 30
3.849402941
 10
0.000000000
 20
-1.100000000
 30
3.876794602
  0
SPLINE
  5
AE0
330
A02
100
AcDbEntity
  8
Body
100
AcDbSpline
210
0
220
0
230
1
 70
8
 71
3
 72
11
 73
7
 74
0
 40
0.000000000
 40
0.000000000
 40
0.000000000
 40
0.000000000
 40
0.373891887
 40
0.373891887
 40
0.373891887
 40
1.000000000
 40
1.000000000
 40
1.000000000
 40
1.000000000
 10
0.000000000
 20
-1.100000000
 30
3.876794602
 10
0.215441437
 20
-1.100376127
 30
3.890813959
 10
0.430406062
 20
-1.035370310
 30
3.904827844
 10
0.609533418
 20
-0.915679536
 30
3.918854972
 10
0.912257825
 20
-0.717489544
 30
3.942346676
 10
1.102764530
 20
-0.361834465
 30
3.965820598
 10
1.100000000
 20
-0.000000000
 30
3.989291086
  0
SPLINE
  5
AE1
330
A02
100
AcDbEntity
  8
Body
100
AcDbSpline
210
0
220
0
230
1
 70
8
 71
3
 72
20
 73
16
 74
0
 40
0.000000000
 40
0.000000000
 40
0.000000000
 40
0.000000000
 40
0.221871036
 40
0.221871036
 40
0.221871036
 40
0.445470041
 40
0.445470041
 40
0.445470041
 40
0.620589077
 40
0.620589077
 40
0.620589077
 40
0.756434562
 40
0.756434562
 40
0.756434562
 40
1.000000000
 40
1.000000000
 40
1.000000000
 40
1.000000000
 10
1.100000000
 20
-0.000000000
 30
3.989291086
 10
1.103490188
 20
0.384954726
 30
4.014241460
 10
0.886451862
 20
0.761660775
 30
4.039217997
 10
0.551598082
 20
0.951703502
 30
4.064176276
 10
0.217581457
 20
1.149435788
 30
4.089334040
 10
-0.221391204
 20
1.148708053
 30
4.114493517
 10
-0.554750299
 20
0.949869520
 30
4.139655186
 10
-0.817194723
 20
0.798230754
 30
4.159356938
 10
-1.010340060
 20
0.533096077
 30
4.179048544
 10
-1.074209166
 20
0.236800901
 30
4.198749436
 10
-1.125280736
 20
0.007568171
 30
4.214030575
 10
-1.099902056
 20
-0.237760738
 30
4.229320190
 10
-1.002985515
 20
-0.451685795
 30
4.244604398
 10
-0.833622605
 20
-0.839764599
 30
4.272003514
 10
-0.423421554
 20
-1.104925500
 30
4.299385447
 10
0.000000000
 20
-1.100000000
 30
4.326794567
  0
SPLINE
  5
AE2
330
A02
100
AcDbEntity
  8
Body
100
AcDbSpline
210
0
220
0
230
1
 70
8
 71
3
 72
11
 73
7
 74
0
 40
0.000000000
 40
0.000000000
 40
0.000000000
 40
0.000000000
 40
0.373891750
 40
0.373891750
 40
0.373891750
 40
1.000000000
 40
1.000000000
 40
1.000000000
 40
1.000000000
 10
0.000000000
 20
-1.100000000
 30
4.326794567
 10
0.215441358
 20
-1.100376127
 30
4.340813919
 10
0.430405905
 20
-1.035370358
 30
4.354827799
 10
0.609533221
 20
-0.915679667
 30
4.368854921
 10
0.912257739
 20
-0.717489697
 30
4.392346631
 10
1.102764532
 20
-0.361834545
 30
4.415820557
 10
1.100000000
 20
-0.000000000
 30
4.439291051
  0
SPLINE
  5
AE3
330
A02
100
AcDbEntity
  8
Body
100
AcDbSpline
210
0
220
0
230
1
 70
8
 71
3
 72
20
 73
16
 74
0
 40
0.000000000
 40
0.000000000
 40
0.000000000
 40
0.000000000
 40
0.221857806
 40
0.221857806
 40
0.221857806
 40
0.445439652
 40
0.445439652
 40
0.445439652
 40
0.620451871
 40
0.620451871
 40
0.620451871
 40
0.756423087
 40
0.756423087
 40
0.756423087
 40
1.000000000
 40
1.000000000
 40
1.000000000
 40
1.000000000
 10
1.100000000
 20
-0.000000000
 30
4.439291051
 10
1.103489405
 20
0.384931431
 30
4.464239939
 10
0.886478722
 20
0.761616597
 30
4.489214988
 10
0.551657333
 20
0.951669158
 30
4.514171781
 10
0.217678712
 20
1.149406155
 30
4.539327617
 10
-0.221252446
 20
1.148723561
 30
4.564485161
 10
-0.554614351
 20
0.949948905
 30
4.589644901
 10
-0.816918021
 20
0.798438706
 30
4.609334633
 10
-1.010032085
 20
0.533566793
 30
4.629014234
 10
-1.074055818
 20
0.237495473
 30
4.648703089
 10
-1.125324528
 20
0.008083416
 30
4.663998361
 10
-1.100006134
 20
-0.237503319
 30
4.679302130
 10
-1.003009934
 20
-0.451631567
 30
4.694600490
 10
-0.833660406
 20
-0.839738504
 30
4.722000900
 10
-0.423441964
 20
-1.104926364
 30
4.749384121
 10
0.000000000
 20
-1.100000000
 30
4.776794531
  0
SPLINE
  5
AE4
330
A02
100
AcDbEntity
  8
Body
100
AcDbSpline
210
0
220
0
230
1
 70
8
 71
3
 72
11
 73
7
 74
0
 40
0.000000000
 40
0.000000000
 40
0.000000000
 40
0.000000000
 40
0.373891574
 40
0.373891574
 40
0.373891574
 40
1.000000000
 40
1.000000000
 40
1.000000000
 40
1.000000000
 10
0.000000000
 20
-1.100000000
 30
4.776794531
 10
0.215441256
 20
-1.100376126
 30
4.790813877
 10
0.430405703
 20
-1.035370420
 30
4.804827750
 10
0.609532968
 20
-0.915679836
 30
4.818854866
 10
0.912257628
 20
-0.717489895
 30
4.842346582
 10
1.102764535
 20
-0.361834649
 30
4.865820516
 10
1.100000000
 20
-0.000000000
 30
4.889291016
  0
SPLINE
  5
AE5
330
A02
100
AcDbEntity
  8
Body
100
AcDbSpline
210
0
220
0
230
1
 70
8
 71
3
 72
20
 73
16
 74
0
 40
0.000000000
 40
0.000000000
 40
0.000000000
 40
0.000000000
 40
0.221840490
 40
0.221840490
 40
0.221840490
 40
0.445399356
 40
0.445399356
 40
0.445399356
 40
0.621195337
 40
0.621195337
 40
0.621195337
 40
0.756583114
 40
0.756583114
 40
0.756583114
 40
1.000000000
 40
1.000000000
 40
1.000000000
 40
1.000000000
 10
1.100000000
 20
-0.000000000
 30
4.889291016
 10
1.103488368
 20
0.384900557
 30
4.914237935
 10
0.886514316
 20
0.761558045
 30
4.939211012
 10
0.551735858
 20
0.951623635
 30
4.964165837
 10
0.217808288
 20
1.149366440
 30
4.989319063
 10
-0.221066748
 20
1.148744135
 30
5.014473993
 10
-0.554432102
 20
0.950055285
 30
5.039631126
 10
-0.817957017
 20
0.797928008
 30
5.059409067
 10
-1.011628343
 20
0.531365946
 30
5.079176763
 10
-1.074881049
 20
0.233732176
 30
5.098953902
 10
-1.125122391
 20
0.005128502
 30
5.114183589
 10
-1.099403122
 20
-0.239249156
 30
5.129421673
 10
-1.002669898
 20
-0.452385981
 30
5.144654341
 10
-0.833135003
 20
-0.840101098
 30
5.172036697
 10
-0.423155442
 20
-1.104915602
 30
5.199402239
 10
0.000000000
 20
-1.100000000
 30
5.226794496
  0
SPLINE
  5
AE6
330
A02
100
AcDbEntity
  8
Body
100
AcDbSpline
210
0
220
0
230
1
 70
8
 71
3
 72
11
 73
7
 74
0
 40
0.000000000
 40
0.000000000
 40
0.000000000
 40
0.000000000
 40
0.373890713
 40
0.373890713
 40
0.373890713
 40
1.000000000
 40
1.000000000
 40
1.000000000
 40
1.000000000
 10
0.000000000
 20
-1.100000000
 30
5.226794496
 10
0.215440760
 20
-1.100376123
 30
5.240813809
 10
0.430404715
 20
-1.035370724
 30
5.254827650
 10
0.609531730
 20
-0.915680660
 30
5.268854734
 10
0.912257085
 20
-0.717490861
 30
5.292346482
 10
1.102764549
 20
-0.361835153
 30
5.315820448
 10
1.100000000
 20
-0.000000000
 30
5.339290980
  0
SPLINE
  5
AE7
330
A02
100
AcDbEntity
  8
Body
100
AcDbSpline
210
0
220
0
230
1
 70
8
 71
3
 72
20
 73
16
 74
0
 40
0.000000000
 40
0.000000000
 40
0.000000000
 40
0.000000000
 40
0.221744601
 40
0.221744601
 40
0.221744601
 40
0.446504413
 40
0.446504413
 40
0.446504413
 40
0.620601185
 40
0.620601185
 40
0.620601185
 40
0.756144856
 40
0.756144856
 40
0.756144856
 40
1.000000000
 40
1.000000000
 40
1.000000000
 40
1.000000000
 10
1.100000000
 20
-0.000000000
 30
5.339290980
 10
1.103483531
 20
0.384756472
 30
5.364228713
 10
0.886680393
 20
0.761284774
 30
5.389192581
 10
0.552102285
 20
0.951411092
 30
5.414138221
 10
0.216530346
 20
1.150365848
 30
5.439420816
 10
-0.225157541
 20
1.148705261
 30
5.464706644
 10
-0.559217064
 20
0.947246682
 30
5.489992335
 10
-0.819410812
 20
0.795242967
 30
5.509580187
 10
-1.010657906
 20
0.531427272
 30
5.529158051
 10
-1.074195289
 20
0.236863845
 30
5.548745134
 10
-1.125166503
 20
0.008129551
 30
5.563993278
 10
-1.100031344
 20
-0.236637858
 30
5.579249858
 10
-1.003635213
 20
-0.450240334
 30
5.594501094
 10
-0.834630378
 20
-0.839068300
 30
5.621934638
 10
-0.423963217
 20
-1.104949729
 30
5.649351107
 10
0.000000000
 20
-1.100000000
 30
5.676794461
  0
SPLINE
  5
AE8
330
A02
100
AcDbEntity
  8
Body
100
AcDbSpline
210
0
220
0
230
1
 70
8
 71
3
 72
11
 73
7
 74
0
 40
0.000000000
 40
0.000000000
 40
0.000000000
 40
0.000000000
 40
0.373890789
 40
0.373890789
 40
0.373890789
 40
1.000000000
 40
1.000000000
 40
1.000000000
 40
1.000000000
 10
0.000000000
 20
-1.100000000
 30
5.676794461
 10
0.215440803
 20
-1.100376123
 30
5.690813777
 10
0.430404802
 20
-1.035370697
 30
5.704827621
 10
0.609531839
 20
-0.915680587
 30
5.718854707
 10
0.912257133
 20
-0.717490775
 30
5.742346453
 10
1.102764548
 20
-0.361835108
 30
5.765820415
 10
1.100000000
 20
-0.000000000
 30
5.789290945
  0
SPLINE
  5
AE9
330
A02
100
AcDbEntity
  8
Body
100
AcDbSpline
210
0
220
0
230
1
 70
8
 71
3
 72
20
 73
16
 74
0
 40
0.000000000
 40
0.000000000
 40
0.000000000
 40
0.000000000
 40
0.240869069
 40
0.240869069
 40
0.240869069
 40
0.485043459
 40
0.485043459
 40
0.485043459
 40
0.706274487
 40
0.706274487
 40
0.706274487
 40
0.849655987
 40
0.849655987
 40
0.849655987
 40
0.999998069
 40
0.999998069
 40
0.999998069
 40
0.999998069
 10
1.100000000
 20
-0.000000000
 30
5.789290945
 10
1.103484029
 20
0.384771313
 30
5.814229624
 10
0.886663290
 20
0.761312923
 30
5.839194441
 10
0.552064545
 20
0.951432992
 30
5.864141027
 10
0.216430514
 20
1.150408439
 30
5.889427693
 10
-0.225345158
 20
1.148692308
 30
5.914717599
 10
-0.559416236
 20
0.947129070
 30
5.940007360
 10
-0.864626574
 20
0.769787593
 30
5.962920027
 10
-1.071870316
 20
0.437315863
 30
5.985820689
 10
-1.096695646
 20
0.085197776
 30
6.008736963
 10
-1.114840087
 20
-0.142286611
 30
6.023589356
 10
-1.059534204
 20
-0.374835728
 30
6.038447710
 10
-0.940920470
 20
-0.569797043
 30
6.053297418
 10
-0.817444175
 20
-0.774790504
 30
6.068868192
 10
-0.624912254
 20
-0.937014711
 30
6.084428492
 10
-0.401953062
 20
-1.023930533
 30
6.100000000
  0
ARC
  5
AEA
330
A02
100
AcDbEntity
  8
Body
100
AcDbCircle
 10
0.000000000
 20
0.000000000
 30
6.100000000
 40
1.100000000
100
AcDbArc
 50
-111.432932337
 51
-28.559371677
  0
SPLINE
  5
AEB
330
A02
100
AcDbEntity
  8
Body
100
AcDbSpline
210
0
220
0
230
1
 70
8
 71
3
 72
8
 73
4
 74
0
 40
0.000000000
 40
0.000000000
 40
0.000000000
 40
0.000000000
 40
0.999992188
 40
0.999992188
 40
0.999992188
 40
0.999992188
 10
0.000000000
 20
-1.100000000
 30
6.023204622
 10
0.395062729
 20
-1.103825742
 30
6.048813471
 10
0.780653944
 20
-0.874688328
 30
6.074402756
 10
0.966154414
 20
-0.525876078
 30
6.100000000
  0
SPLINE
  5
AEC
330
A02
100
AcDbEntity
  8
Body
100
AcDbSpline
210
0
220
0
230
1
 70
8
 71
3
 72
23
 73
19
 74
0
 40
0.000000000
 40
0.000000000
 40
0.000000000
 40
0.000000000
 40
0.046541791
 40
0.046541791
 40
0.046541791
 40
0.264989684
 40
0.264989684
 40
0.264989684
 40
0.446240747
 40
0.446240747
 40
0.446240747
 40
0.622684086
 40
0.622684086
 40
0.622684086
 40
0.783636851
 40
0.783636851
 40
0.783636851
 40
1.000000000
 40
1.000000000
 40
1.000000000
 40
1.000000000
 10
1.100000000
 20
-0.000000000
 30
5.685708289
 10
1.099972300
 20
0.080731257
 30
5.690945024
 10
1.091190512
 20
0.160498786
 30
5.696181136
 10
1.073654633
 20
0.239302588
 30
5.701416625
 10
0.994398584
 20
0.609985924
 30
5.725995503
 10
0.708624846
 20
0.926694065
 30
5.750563505
 10
0.348008611
 20
1.043498925
 30
5.775147823
 10
0.050881158
 20
1.144291745
 30
5.795539002
 10
-0.288564974
 20
1.108480303
 30
5.815926761
 10
-0.558124258
 20
0.947890981
 30
5.836315049
 10
-0.822043426
 20
0.794181460
 30
5.856164391
 10
-1.015087603
 20
0.525428898
 30
5.876022807
 10
-1.076481269
 20
0.226247823
 30
5.895873344
 10
-1.134748632
 20
-0.046029448
 30
5.913980904
 10
-1.083742809
 20
-0.339522679
 30
5.932075601
 10
-0.937026777
 20
-0.576177767
 30
5.950182721
 10
-0.743155828
 20
-0.897505179
 30
5.974526261
 10
-0.375278397
 20
-1.103162261
 30
5.998876450
 10
0.000000000
 20
-1.100000000
 30
6.023204622
  0
SPLINE
  5
AED
330
A02
100
AcDbEntity
  8
Body
100
AcDbSpline
210
0
220
0
230
1
 70
8
 71
3
 72
11
 73
7
 74
0
 40
0.000000000
 40
0.000000000
 40
0.000000000
 40
0.000000000
 40
0.365340402
 40
0.365340402
 40
0.365340402
 40
1.000000000
 40
1.000000000
 40
1.000000000
 40
1.000000000
 10
0.000000000
 20
-1.100000000
 30
5.573204657
 10
0.210506786
 20
-1.100343425
 30
5.586904921
 10
0.420588485
 20
-1.038350957
 30
5.600611671
 10
0.597181306
 20
-0.923782706
 30
5.614307469
 10
0.906830346
 20
-0.727074348
 30
5.638096385
 10
1.102909824
 20
-0.366839099
 30
5.661899062
 10
1.100000000
 20
-0.000000000
 30
5.685708289
  0
SPLINE
  5
AEE
330
A02
100
AcDbEntity
  8
Body
100
AcDbSpline
210
0
220
0
230
1
 70
8
 71
3
 72
23
 73
19
 74
0
 40
0.000000000
 40
0.000000000
 40
0.000000000
 40
0.000000000
 40
0.046533961
 40
0.046533961
 40
0.046533961
 40
0.264924104
 40
0.264924104
 40
0.264924104
 40
0.501412387
 40
0.501412387
 40
0.501412387
 40
0.622581992
 40
0.622581992
 40
0.622581992
 40
0.783433614
 40
0.783433614
 40
0.783433614
 40
1.000000000
 40
1.000000000
 40
1.000000000
 40
1.000000000
 10
1.100000000
 20
-0.000000000
 30
5.235708324
 10
1.099972317
 20
0.080718954
 30
5.240944267
 10
1.091193173
 20
0.160474617
 30
5.246179587
 10
1.073662567
 20
0.239266988
 30
5.251414285
 10
0.994436559
 20
0.609859240
 30
5.275987081
 10
0.708800378
 20
0.926517179
 30
5.300548998
 10
0.348309193
 20
1.043398633
 30
5.325127225
 10
-0.039981293
 20
1.177680936
 30
5.351733834
 10
-0.497665840
 20
1.068112269
 30
5.378331839
 10
-0.783055489
 20
0.772543915
 30
5.404937836
 10
-0.930386718
 20
0.623686806
 30
5.418570559
 10
-1.033511972
 20
0.431806568
 30
5.432205967
 10
-1.076365075
 20
0.226799967
 30
5.445836643
 10
-1.134734510
 20
-0.045280718
 30
5.463933158
 10
-1.083982295
 20
-0.338609062
 30
5.482016821
 10
-0.937588715
 20
-0.575262897
 30
5.500112851
 10
-0.743850521
 20
-0.897096221
 30
5.524479642
 10
-0.375643200
 20
-1.103173689
 30
5.548853205
 10
0.000000000
 20
-1.100000000
 30
5.573204657
  0
SPLINE
  5
AEF
330
A02
100
AcDbEntity
  8
Body
100
AcDbSpline
210
0
220
0
230
1
 70
8
 71
3
 72
11
 73
7
 74
0
 40
0.000000000
 40
0.000000000
 40
0.000000000
 40
0.000000000
 40
0.365341218
 40
0.365341218
 40
0.365341218
 40
1.000000000
 40
1.000000000
 40
1.000000000
 40
1.000000000
 10
0.000000000
 20
-1.100000000
 30
5.123204693
 10
0.210507257
 20
-1.100343428
 30
5.136904987
 10
0.420589422
 20
-1.038350676
 30
5.150611767
 10
0.597182490
 20
-0.923781940
 30
5.164307596
 10
0.906830868
 20
-0.727073434
 30
5.188096482
 10
1.102909810
 20
-0.366838621
 30
5.211899128
 10
1.100000000
 20
-0.000000000
 30
5.235708324
  0
SPLINE
  5
AF0
330
A02
100
AcDbEntity
  8
Body
100
AcDbSpline
210
0
220
0
230
1
 70
8
 71
3
 72
23
 73
19
 74
0
 40
0.000000000
 40
0.000000000
 40
0.000000000
 40
0.000000000
 40
0.046528195
 40
0.046528195
 40
0.046528195
 40
0.264846855
 40
0.264846855
 40
0.264846855
 40
0.446283607
 40
0.446283607
 40
0.446283607
 40
0.622713654
 40
0.622713654
 40
0.622713654
 40
0.783690246
 40
0.783690246
 40
0.783690246
 40
1.000000000
 40
1.000000000
 40
1.000000000
 40
1.000000000
 10
1.100000000
 20
-0.000000000
 30
4.785708360
 10
1.099972333
 20
0.080707509
 30
4.790943566
 10
1.091195648
 20
0.160452133
 30
4.796178150
 10
1.073669947
 20
0.239233870
 30
4.801412111
 10
0.994480056
 20
0.609698229
 30
4.825976446
 10
0.709030304
 20
0.926281945
 30
4.850529900
 10
0.348711279
 20
1.043264321
 30
4.875099657
 10
0.051346516
 20
1.144365962
 30
4.895511733
 10
-0.288512732
 20
1.108591987
 30
4.915920392
 10
-0.558315562
 20
0.947778314
 30
4.936329574
 10
-0.822183554
 20
0.794026907
 30
4.956177426
 10
-1.015165097
 20
0.525264810
 30
4.976034348
 10
-1.076512763
 20
0.226097922
 30
4.995883387
 10
-1.134751301
 20
-0.046227891
 30
5.013993626
 10
-1.083679569
 20
-0.339760334
 30
5.032090999
 10
-0.936881792
 20
-0.576413487
 30
5.050200810
 10
-0.742976760
 20
-0.897610511
 30
5.074538357
 10
-0.375184374
 20
-1.103159321
 30
5.098882522
 10
0.000000000
 20
-1.100000000
 30
5.123204693
  0
SPLINE
  5
AF1
330
A02
100
AcDbEntity
  8
Body
100
AcDbSpline
210
0
220
0
230
1
 70
8
 71
3
 72
11
 73
7
 74
0
 40
0.000000000
 40
0.000000000
 40
0.000000000
 40
0.000000000
 40
0.365341961
 40
0.365341961
 40
0.365341961
 40
1.000000000
 40
1.000000000
 40
1.000000000
 40
1.000000000
 10
0.000000000
 20
-1.100000000
 30
4.673204728
 10
0.210507685
 20
-1.100343430
 30
4.686905050
 10
0.420590275
 20
-1.038350420
 30
4.700611858
 10
0.597183568
 20
-0.923781244
 30
4.714307715
 10
0.906831343
 20
-0.727072602
 30
4.738096573
 10
1.102909797
 20
-0.366838186
 30
4.761899191
 10
1.100000000
 20
-0.000000000
 30
4.785708360
  0
SPLINE
  5
AF2
330
A02
100
AcDbEntity
  8
Body
100
AcDbSpline
210
0
220
0
230
1
 70
8
 71
3
 72
23
 73
19
 74
0
 40
0.000000000
 40
0.000000000
 40
0.000000000
 40
0.000000000
 40
0.046529044
 40
0.046529044
 40
0.046529044
 40
0.264863099
 40
0.264863099
 40
0.264863099
 40
0.501414217
 40
0.501414217
 40
0.501414217
 40
0.622584720
 40
0.622584720
 40
0.622584720
 40
0.783438952
 40
0.783438952
 40
0.783438952
 40
1.000000000
 40
1.000000000
 40
1.000000000
 40
1.000000000
 10
1.100000000
 20
0.000000000
 30
4.335708395
 10
1.099972329
 20
0.080710364
 30
4.340943785
 10
1.091195031
 20
0.160457740
 30
4.346178552
 10
1.073668107
 20
0.239242129
 30
4.351412697
 10
0.994469101
 20
0.609738953
 30
4.375979179
 10
0.708972089
 20
0.926341546
 30
4.400534781
 10
0.348609391
 20
1.043298372
 30
4.425106687
 10
-0.039746938
 20
1.177731822
 30
4.451720377
 10
-0.497599330
 20
1.068190626
 30
4.478325423
 10
-0.783061839
 20
0.772537479
 30
4.504938495
 10
-0.930392969
 20
0.623678033
 30
4.518571322
 10
-1.033517074
 20
0.431795156
 30
4.532206834
 10
-1.076367922
 20
0.226786458
 30
4.545837612
 10
-1.134734950
 20
-0.045299433
 30
4.563934424
 10
-1.083976289
 20
-0.338632267
 30
4.582018383
 10
-0.937574344
 20
-0.575286320
 30
4.600114711
 10
-0.743832740
 20
-0.897106695
 30
4.624480906
 10
-0.375633860
 20
-1.103173396
 30
4.648853871
 10
0.000000000
 20
-1.100000000
 30
4.673204728
  0
SPLINE
  5
AF3
330
A02
100
AcDbEntity
  8
Body
100
AcDbSpline
210
0
220
0
230
1
 70
8
 71
3
 72
11
 73
7
 74
0
 40
0.000000000
 40
0.000000000
 40
0.000000000
 40
0.000000000
 40
0.365341766
 40
0.365341766
 40
0.365341766
 40
1.000000000
 40
1.000000000
 40
1.000000000
 40
1.000000000
 10
0.000000000
 20
-1.100000000
 30
4.223204763
 10
0.210507572
 20
-1.100343430
 30
4.236905078
 10
0.420590050
 20
-1.038350488
 30
4.250611879
 10
0.597183284
 20
-0.923781427
 30
4.264307728
 10
0.906831218
 20
-0.727072821
 30
4.288096593
 10
1.102909800
 20
-0.366838301
 30
4.311899219
 10
1.100000000
 20
0.000000000
 30
4.335708395
  0
SPLINE
  5
AF4
330
A02
100
AcDbEntity
  8
Body
100
AcDbSpline
210
0
220
0
230
1
 70
8
 71
3
 72
26
 73
22
 74
0
 40
0.000000000
 40
0.000000000
 40
0.000000000
 40
0.000000000
 40
0.046530410
 40
0.046530410
 40
0.046530410
 40
0.264877111
 40
0.264877111
 40
0.264877111
 40
0.446648155
 40
0.446648155
 40
0.446648155
 40
0.621943192
 40
0.621943192
 40
0.621943192
 40
0.745687270
 40
0.745687270
 40
0.745687270
 40
0.874865517
 40
0.874865517
 40
0.874865517
 40
1.000000000
 40
1.000000000
 40
1.000000000
 40
1.000000000
 10
1.100000000
 20
-0.000000000
 30
3.885708430
 10
1.099972327
 20
0.080711958
 30
3.890943923
 10
1.091194686
 20
0.160460872
 30
3.896178793
 10
1.073667079
 20
0.239246742
 30
3.901413040
 10
0.994463028
 20
0.609761459
 30
3.925980705
 10
0.708939943
 20
0.926374442
 30
3.950537491
 10
0.348553161
 20
1.043317159
 30
3.975110583
 10
0.050621586
 20
1.144570157
 30
3.995560414
 10
-0.289935342
 20
1.108398328
 30
4.016006805
 10
-0.559957156
 20
0.946809370
 30
4.036453755
 10
-0.821838821
 20
0.793576433
 30
4.056174035
 10
-1.013639612
 20
0.526987823
 30
4.075903258
 10
-1.075689074
 20
0.229984818
 30
4.095624768
 10
-1.120766274
 20
0.020895534
 30
4.109545456
 10
-1.102755601
 20
-0.201207402
 30
4.123459271
 10
-1.024576714
 20
-0.400303082
 30
4.137376060
 10
-0.943717919
 20
-0.608449333
 30
4.151902953
 10
-0.797504598
 20
-0.790441698
 30
4.166439720
 10
-0.611676814
 20
-0.914249132
 30
4.180976560
 10
-0.432117786
 20
-1.034842546
 30
4.195059703
 10
-0.216305064
 20
-1.100381742
 30
4.209129331
 10
0.000000000
 20
-1.100000000
 30
4.223204763
  0
SPLINE
  5
AF5
330
A02
100
AcDbEntity
  8
Body
100
AcDbSpline
210
0
220
0
230
1
 70
8
 71
3
 72
11
 73
7
 74
0
 40
0.000000000
 40
0.000000000
 40
0.000000000
 40
0.000000000
 40
0.365341668
 40
0.365341668
 40
0.365341668
 40
1.000000000
 40
1.000000000
 40
1.000000000
 40
1.000000000
 10
0.000000000
 20
-1.100000000
 30
3.773204799
 10
0.210507516
 20
-1.100343429
 30
3.786905110
 10
0.420589938
 20
-1.038350522
 30
3.800611907
 10
0.597183142
 20
-0.923781519
 30
3.814307752
 10
0.906831156
 20
-0.727072931
 30
3.838096621
 10
1.102909802
 20
-0.366838358
 30
3.861899251
 10
1.100000000
 20
-0.000000000
 30
3.885708430
  0
SPLINE
  5
AF6
330
A02
100
AcDbEntity
  8
Body
100
AcDbSpline
210
0
220
0
230
1
 70
8
 71
3
 72
26
 73
22
 74
0
 40
0.000000000
 40
0.000000000
 40
0.000000000
 40
0.000000000
 40
0.046529276
 40
0.046529276
 40
0.046529276
 40
0.264862859
 40
0.264862859
 40
0.264862859
 40
0.446513943
 40
0.446513943
 40
0.446513943
 40
0.621961467
 40
0.621961467
 40
0.621961467
 40
0.745715449
 40
0.745715449
 40
0.745715449
 40
0.874908086
 40
0.874908086
 40
0.874908086
 40
1.000000000
 40
1.000000000
 40
1.000000000
 40
1.000000000
 10
1.100000000
 20
-0.000000000
 30
3.435708465
 10
1.099972329
 20
0.080709977
 30
3.440943831
 10
1.091195115
 20
0.160456980
 30
3.446178573
 10
1.073668356
 20
0.239241010
 30
3.451412693
 10
0.994470589
 20
0.609733414
 30
3.475978882
 10
0.708980010
 20
0.926333436
 30
3.500534192
 10
0.348623256
 20
1.043293739
 30
3.525105806
 10
0.050895618
 20
1.144496518
 30
3.545542141
 10
-0.289412375
 20
1.108471494
 30
3.565975044
 10
-0.559358224
 20
0.947163332
 30
3.586408495
 10
-0.821568052
 20
0.793964985
 30
3.606145927
 10
-1.013634236
 20
0.527161183
 30
3.625892319
 10
-1.075708940
 20
0.229891880
 30
3.645630991
 10
-1.120771765
 20
0.020781986
 30
3.659552790
 10
-1.102735172
 20
-0.201338149
 30
3.673467714
 10
-1.024523470
 20
-0.400439333
 30
3.687385617
 10
-0.943628108
 20
-0.608598084
 30
3.701914128
 10
-0.797366734
 20
-0.790588063
 30
3.716452520
 10
-0.611493309
 20
-0.914371879
 30
3.730990974
 10
-0.431971106
 20
-1.034887828
 30
3.745069319
 10
-0.216231304
 20
-1.100381233
 30
3.759134155
 10
0.000000000
 20
-1.100000000
 30
3.773204799
  0
SPLINE
  5
AF7
330
A02
100
AcDbEntity
  8
Body
100
AcDbSpline
210
0
220
0
230
1
 70
8
 71
3
 72
11
 73
7
 74
0
 40
0.000000000
 40
0.000000000
 40
0.000000000
 40
0.000000000
 40
0.365341800
 40
0.365341800
 40
0.365341800
 40
1.000000000
 40
1.000000000
 40
1.000000000
 40
1.000000000
 10
0.000000000
 20
-1.100000000
 30
3.323204834
 10
0.210507592
 20
-1.100343430
 30
3.336905150
 10
0.420590090
 20
-1.038350476
 30
3.350611952
 10
0.597183333
 20
-0.923781395
 30
3.364307802
 10
0.906831240
 20
-0.727072783
 30
3.388096666
 10
1.102909800
 20
-0.366838281
 30
3.411899291
 10
1.100000000
 20
-0.000000000
 30
3.435708465
  0
SPLINE
  5
AF8
330
A02
100
AcDbEntity
  8
Body
100
AcDbSpline
210
0
220
0
230
1
 70
8
 71
3
 72
23
 73
19
 74
0
 40
0.000000000
 40
0.000000000
 40
0.000000000
 40
0.000000000
 40
0.046530479
 40
0.046530479
 40
0.046530479
 40
0.264881038
 40
0.264881038
 40
0.264881038
 40
0.501419858
 40
0.501419858
 40
0.501419858
 40
0.622593312
 40
0.622593312
 40
0.622593312
 40
0.783455946
 40
0.783455946
 40
0.783455946
 40
1.000000000
 40
1.000000000
 40
1.000000000
 40
1.000000000
 10
1.100000000
 20
-0.000000000
 30
2.985708501
 10
1.099972325
 20
0.080712870
 30
2.990944052
 10
1.091194489
 20
0.160462664
 30
2.996178981
 10
1.073666491
 20
0.239249381
 30
3.001413287
 10
0.994459561
 20
0.609774289
 30
3.025981626
 10
0.708921622
 20
0.926393186
 30
3.050539086
 10
0.348521123
 20
1.043327862
 30
3.075112853
 10
-0.039826110
 20
1.177720745
 30
3.101725156
 10
-0.497642597
 20
1.068161201
 30
3.128328826
 10
-0.783082464
 20
0.772516573
 30
3.154940514
 10
-0.930413223
 20
0.623649586
 30
3.168573672
 10
-1.033533574
 20
0.431758215
 30
3.182209515
 10
-1.076377123
 20
0.226742783
 30
3.195840624
 10
-1.134736321
 20
-0.045359715
 30
3.213938379
 10
-1.083956956
 20
-0.338706808
 30
3.232023281
 10
-0.937528235
 20
-0.575361459
 30
3.250120556
 10
-0.743775700
 20
-0.897140295
 30
3.274484843
 10
-0.375603898
 20
-1.103172458
 30
3.298855889
 10
0.000000000
 20
-1.100000000
 30
3.323204834
  0
SPLINE
  5
AF9
330
A02
100
AcDbEntity
  8
Body
100
AcDbSpline
210
0
220
0
230
1
 70
8
 71
3
 72
11
 73
7
 74
0
 40
0.000000000
 40
0.000000000
 40
0.000000000
 40
0.000000000
 40
0.365341611
 40
0.365341611
 40
0.365341611
 40
1.000000000
 40
1.000000000
 40
1.000000000
 40
1.000000000
 10
0.000000000
 20
-1.100000000
 30
2.873204869
 10
0.210507483
 20
-1.100343429
 30
2.886905178
 10
0.420589873
 20
-1.038350541
 30
2.900611973
 10
0.597183059
 20
-0.923781573
 30
2.914307816
 10
0.906831119
 20
-0.727072995
 30
2.938096687
 10
1.102909803
 20
-0.366838391
 30
2.961899319
 10
1.100000000
 20
-0.000000000
 30
2.985708501
  0
SPLINE
  5
AFA
330
A02
100
AcDbEntity
  8
Body
100
AcDbSpline
210
0
220
0
230
1
 70
8
 71
3
 72
23
 73
19
 74
0
 40
0.000000000
 40
0.000000000
 40
0.000000000
 40
0.000000000
 40
0.046530547
 40
0.046530547
 40
0.046530547
 40
0.264875611
 40
0.264875611
 40
0.264875611
 40
0.446613691
 40
0.446613691
 40
0.446613691
 40
0.621253426
 40
0.621253426
 40
0.621253426
 40
0.783123081
 40
0.783123081
 40
0.783123081
 40
1.000000000
 40
1.000000000
 40
1.000000000
 40
1.000000000
 10
1.100000000
 20
0.000000000
 30
2.535708536
 10
1.099972327
 20
0.080711374
 30
2.540943991
 10
1.091194813
 20
0.160459725
 30
2.546178823
 10
1.073667455
 20
0.239245052
 30
2.551413033
 10
0.994465250
 20
0.609753226
 30
2.575980266
 10
0.708951702
 20
0.926362409
 30
2.600536618
 10
0.348573728
 20
1.043310287
 30
2.625109277
 10
0.050701346
 20
1.144548783
 30
2.645555192
 10
-0.289783364
 20
1.108419642
 30
2.665997670
 10
-0.559783199
 20
0.946912230
 30
2.686440703
 10
-0.820696641
 20
0.794292759
 30
2.706087032
 10
-1.012128052
 20
0.529187691
 30
2.725742224
 10
-1.074928577
 20
0.233513499
 30
2.745389851
 10
-1.135394143
 20
-0.039916645
 30
2.763600724
 10
-1.085416888
 20
-0.335535934
 30
2.781798481
 10
-0.938426433
 20
-0.573895313
 30
2.800008643
 10
-0.744895132
 20
-0.896476882
 30
2.824409506
 10
-0.376192513
 20
-1.103191464
 30
2.848818412
 10
0.000000000
 20
-1.100000000
 30
2.873204869
  0
SPLINE
  5
AFB
330
A02
100
AcDbEntity
  8
Body
100
AcDbSpline
210
0
220
0
230
1
 70
8
 71
3
 72
11
 73
7
 74
0
 40
0.000000000
 40
0.000000000
 40
0.000000000
 40
0.000000000
 40
0.365341702
 40
0.365341702
 40
0.365341702
 40
1.000000000
 40
1.000000000
 40
1.000000000
 40
1.000000000
 10
0.000000000
 20
-1.100000000
 30
2.423204904
 10
0.210507536
 20
-1.100343429
 30
2.436905217
 10
0.420589977
 20
-1.038350510
 30
2.450612015
 10
0.597183191
 20
-0.923781487
 30
2.464307862
 10
0.906831177
 20
-0.727072893
 30
2.488096729
 10
1.102909801
 20
-0.366838338
 30
2.511899358
 10
1.100000000
 20
0.000000000
 30
2.535708536
  0
SPLINE
  5
AFC
330
A02
100
AcDbEntity
  8
Body
100
AcDbSpline
210
0
220
0
230
1
 70
8
 71
3
 72
23
 73
19
 74
0
 40
0.000000000
 40
0.000000000
 40
0.000000000
 40
0.000000000
 40
0.046528272
 40
0.046528272
 40
0.046528272
 40
0.264847937
 40
0.264847937
 40
0.264847937
 40
0.446299213
 40
0.446299213
 40
0.446299213
 40
0.621786327
 40
0.621786327
 40
0.621786327
 40
0.783588385
 40
0.783588385
 40
0.783588385
 40
1.000000000
 40
1.000000000
 40
1.000000000
 40
1.000000000
 10
1.100000000
 20
-0.000000000
 30
2.085708571
 10
1.099972333
 20
0.080707664
 30
2.090943787
 10
1.091195615
 20
0.160452435
 30
2.096178381
 10
1.073669848
 20
0.239234316
 30
2.101412353
 10
0.994479457
 20
0.609700468
 30
2.125976805
 10
0.709027099
 20
0.926285228
 30
2.150530378
 10
0.348705664
 20
1.043266198
 30
2.175100254
 10
0.051316424
 20
1.144374766
 30
2.195513969
 10
-0.288573145
 20
1.108583959
 30
2.215924265
 10
-0.558385710
 20
0.947736988
 30
2.236335087
 10
-0.820810830
 20
0.794774982
 30
2.256076821
 10
-1.013175144
 20
0.528083900
 30
2.275827512
 10
-1.075514115
 20
0.230801620
 30
2.295570522
 10
-1.135263705
 20
-0.042666263
 30
2.313773772
 10
-1.084611626
 20
-0.338027642
 30
2.331963951
 10
-0.937158452
 20
-0.575963571
 30
2.350166633
 10
-0.743318514
 20
-0.897409457
 30
2.374515618
 10
-0.375363816
 20
-1.103164936
 30
2.398871281
 10
0.000000000
 20
-1.100000000
 30
2.423204904
  0
SPLINE
  5
AFD
330
A02
100
AcDbEntity
  8
Body
100
AcDbSpline
210
0
220
0
230
1
 70
8
 71
3
 72
11
 73
7
 74
0
 40
0.000000000
 40
0.000000000
 40
0.000000000
 40
0.000000000
 40
0.365341953
 40
0.365341953
 40
0.365341953
 40
1.000000000
 40
1.000000000
 40
1.000000000
 40
1.000000000
 10
0.000000000
 20
-1.100000000
 30
1.973204940
 10
0.210507681
 20
-1.100343430
 30
1.986905261
 10
0.420590266
 20
-1.038350423
 30
2.000612069
 10
0.597183556
 20
-0.923781251
 30
2.014307925
 10
0.906831338
 20
-0.727072611
 30
2.038096784
 10
1.102909797
 20
-0.366838191
 30
2.061899403
 10
1.100000000
 20
-0.000000000
 30
2.085708571
  0
SPLINE
  5
AFE
330
A02
100
AcDbEntity
  8
Body
100
AcDbSpline
210
0
220
0
230
1
 70
8
 71
3
 72
26
 73
22
 74
0
 40
0.000000000
 40
0.000000000
 40
0.000000000
 40
0.000000000
 40
0.046529689
 40
0.046529689
 40
0.046529689
 40
0.264868180
 40
0.264868180
 40
0.264868180
 40
0.446565337
 40
0.446565337
 40
0.446565337
 40
0.620881688
 40
0.620881688
 40
0.620881688
 40
0.745736322
 40
0.745736322
 40
0.745736322
 40
0.874939137
 40
0.874939137
 40
0.874939137
 40
1.000000000
 40
1.000000000
 40
1.000000000
 40
1.000000000
 10
1.100000000
 20
-0.000000000
 30
1.635708607
 10
1.099972328
 20
0.080710731
 30
1.640944020
 10
1.091194952
 20
0.160458461
 30
1.646178811
 10
1.073667870
 20
0.239243192
 30
1.651412980
 10
0.994467710
 20
0.609744097
 30
1.675979731
 10
0.708964747
 20
0.926349058
 30
1.700535603
 10
0.348596552
 20
1.043302662
 30
1.725107781
 10
0.050790488
 20
1.144524836
 30
1.745549307
 10
-0.289613276
 20
1.108443445
 30
1.765987399
 10
-0.559588418
 20
0.947027351
 30
1.786426043
 10
-0.820045690
 20
0.794738151
 30
1.806036181
 10
-1.011325733
 20
0.530379840
 30
1.825655143
 10
-1.074524958
 20
0.235363793
 30
1.845266619
 10
-1.121071959
 20
0.024626717
 30
1.859312349
 10
-1.103421617
 20
-0.199675308
 30
1.873351055
 10
-1.024484331
 20
-0.400539455
 30
1.887392756
 10
-0.943562289
 20
-0.608706879
 30
1.901922421
 10
-0.797266122
 20
-0.790694725
 30
1.916461971
 10
-0.611359797
 20
-0.914461152
 30
1.931001576
 10
-0.431864401
 20
-1.034920759
 30
1.945076430
 10
-0.216177645
 20
-1.100380863
 30
1.959137781
 10
0.000000000
 20
-1.100000000
 30
1.973204940
  0
SPLINE
  5
AFF
330
A02
100
AcDbEntity
  8
Body
100
AcDbSpline
210
0
220
0
230
1
 70
8
 71
3
 72
11
 73
7
 74
0
 40
0.000000000
 40
0.000000000
 40
0.000000000
 40
0.000000000
 40
0.365341748
 40
0.365341748
 40
0.365341748
 40
1.000000000
 40
1.000000000
 40
1.000000000
 40
1.000000000
 10
0.000000000
 20
-1.100000000
 30
1.523204975
 10
0.210507562
 20
-1.100343430
 30
1.536905289
 10
0.420590030
 20
-1.038350494
 30
1.550612089
 10
0.597183258
 20
-0.923781444
 30
1.564307938
 10
0.906831207
 20
-0.727072841
 30
1.588096803
 10
1.102909800
 20
-0.366838311
 30
1.611899430
 10
1.100000000
 20
-0.000000000
 30
1.635708607
  0
SPLINE
  5
B00
330
A02
100
AcDbEntity
  8
Body
100
AcDbSpline
210
0
220
0
230
1
 70
8
 71
3
 72
26
 73
22
 74
0
 40
0.000000000
 40
0.000000000
 40
0.000000000
 40
0.000000000
 40
0.046528500
 40
0.046528500
 40
0.046528500
 40
0.264853000
 40
0.264853000
 40
0.264853000
 40
0.446389187
 40
0.446389187
 40
0.446389187
 40
0.621518214
 40
0.621518214
 40
0.621518214
 40
0.746035536
 40
0.746035536
 40
0.746035536
 40
0.875597064
 40
0.875597064
 40
0.875597064
 40
1.000000000
 40
1.000000000
 40
1.000000000
 40
1.000000000
 10
1.100000000
 20
-0.000000000
 30
1.185708642
 10
1.099972331
 20
0.080708613
 30
1.190943919
 10
1.091195410
 20
0.160454300
 30
1.196178574
 10
1.073669236
 20
0.239237062
 30
1.201412606
 10
0.994475822
 20
0.609713968
 30
1.225977770
 10
0.709007806
 20
0.926304980
 30
1.250532055
 10
0.348671902
 20
1.043277482
 30
1.275102643
 10
0.051137828
 20
1.144426859
 30
1.295526049
 10
-0.288931062
 20
1.108536266
 30
1.315946031
 10
-0.558801052
 20
0.947492155
 30
1.336366548
 10
-0.820617561
 20
0.794721609
 30
1.356068123
 10
-1.012637731
 20
0.528733628
 30
1.375778615
 10
-1.075226116
 20
0.232139611
 30
1.395481483
 10
-1.121013557
 20
0.021834219
 30
1.409489198
 10
-1.102921832
 20
-0.201772743
 30
1.423489933
 10
-1.023918800
 20
-0.401982950
 30
1.437493706
 10
-0.942481677
 20
-0.610614615
 30
1.452063608
 10
-0.795331595
 20
-0.792823080
 30
1.466643785
 10
-0.608520890
 20
-0.916352730
 30
1.481223797
 10
-0.429597845
 20
-1.035618150
 30
1.495224512
 10
-0.215037937
 20
-1.100373068
 30
1.509211820
 10
0.000000000
 20
-1.100000000
 30
1.523204975
  0
SPLINE
  5
B01
330
A02
100
AcDbEntity
  8
Body
100
AcDbSpline
210
0
220
0
230
1
 70
8
 71
3
 72
11
 73
7
 74
0
 40
0.000000000
 40
0.000000000
 40
0.000000000
 40
0.000000000
 40
0.365341895
 40
0.365341895
 40
0.365341895
 40
1.000000000
 40
1.000000000
 40
1.000000000
 40
1.000000000
 10
0.000000000
 20
-1.100000000
 30
1.073205010
 10
0.210507647
 20
-1.100343430
 30
1.086905330
 10
0.420590199
 20
-1.038350443
 30
1.100612135
 10
0.597183471
 20
-0.923781306
 30
1.114307989
 10
0.906831301
 20
-0.727072677
 30
1.138096850
 10
1.102909798
 20
-0.366838225
 30
1.161899471
 10
1.100000000
 20
-0.000000000
 30
1.185708642
  0
SPLINE
  5
B02
330
A02
100
AcDbEntity
  8
Body
100
AcDbSpline
210
0
220
0
230
1
 70
8
 71
3
 72
26
 73
22
 74
0
 40
0.000000000
 40
0.000000000
 40
0.000000000
 40
0.000000000
 40
0.046532407
 40
0.046532407
 40
0.046532407
 40
0.264901902
 40
0.264901902
 40
0.264901902
 40
0.446872139
 40
0.446872139
 40
0.446872139
 40
0.621531340
 40
0.621531340
 40
0.621531340
 40
0.746077650
 40
0.746077650
 40
0.746077650
 40
0.875579073
 40
0.875579073
 40
0.875579073
 40
1.000000000
 40
1.000000000
 40
1.000000000
 40
1.000000000
 10
1.100000000
 20
0.000000000
 30
0.735708677
 10
1.099972322
 20
0.080715417
 30
0.740944392
 10
1.091193938
 20
0.160467668
 30
0.746179485
 10
1.073664848
 20
0.239256753
 30
0.751413955
 10
0.994449879
 20
0.609810129
 30
0.775984178
 10
0.708870441
 20
0.926445546
 30
0.800543521
 10
0.348431621
 20
1.043357755
 30
0.825119174
 10
0.050160978
 20
1.144692598
 30
0.845591408
 10
-0.290809033
 20
1.108274966
 30
0.866060188
 10
-0.560955601
 20
0.946218164
 30
0.886529551
 10
-0.821711916
 20
0.793257371
 30
0.906178278
 10
-1.012828297
 20
0.527868745
 30
0.925835875
 10
-1.075240164
 20
0.232074536
 30
0.945485853
 10
-1.121025819
 20
0.021717300
 30
0.959496834
 10
-1.102900694
 20
-0.201943723
 30
0.973500830
 10
-1.023839451
 20
-0.402185007
 30
0.987507872
 10
-0.942398488
 20
-0.610703457
 30
1.002071021
 10
-0.795312181
 20
-0.792812168
 30
1.016644467
 10
-0.608598948
 20
-0.916300890
 30
1.031217729
 10
-0.429660108
 20
-1.035599046
 30
1.045220481
 10
-0.215069241
 20
-1.100373281
 30
1.059209823
 10
0.000000000
 20
-1.100000000
 30
1.073205010
  0
SPLINE
  5
B03
330
A02
100
AcDbEntity
  8
Body
100
AcDbSpline
210
0
220
0
230
1
 70
8
 71
3
 72
11
 73
7
 74
0
 40
0.000000000
 40
0.000000000
 40
0.000000000
 40
0.000000000
 40
0.365341433
 40
0.365341433
 40
0.365341433
 40
1.000000000
 40
1.000000000
 40
1.000000000
 40
1.000000000
 10
0.000000000
 20
-1.100000000
 30
0.623205045
 10
0.210507381
 20
-1.100343428
 30
0.636905348
 10
0.420589669
 20
-1.038350602
 30
0.650612136
 10
0.597182802
 20
-0.923781739
 30
0.664307973
 10
0.906831006
 20
-0.727073193
 30
0.688096850
 10
1.102909806
 20
-0.366838495
 30
0.711899489
 10
1.100000000
 20
0.000000000
 30
0.735708677
  0
SPLINE
  5
B04
330
A02
100
AcDbEntity
  8
Body
100
AcDbSpline
210
0
220
0
230
1
 70
8
 71
3
 72
23
 73
19
 74
0
 40
0.000001857
 40
0.000001857
 40
0.000001857
 40
0.000001857
 40
0.232454052
 40
0.232454052
 40
0.232454052
 40
0.303472721
 40
0.303472721
 40
0.303472721
 40
0.376806751
 40
0.376806751
 40
0.376806751
 40
0.604536234
 40
0.604536234
 40
0.604536234
 40
0.772554667
 40
0.772554667
 40
0.772554667
 40
1.000000000
 40
1.000000000
 40
1.000000000
 40
1.000000000
 10
1.078178873
 20
0.218014488
 30
0.300000000
 10
1.005058168
 20
0.597408909
 30
0.325046048
 10
0.715864654
 20
0.924433248
 30
0.350079669
 10
0.348263865
 20
1.043413763
 30
0.375130725
 10
0.235830601
 20
1.080808163
 30
0.382781318
 10
0.120370145
 20
1.099669705
 30
0.390431680
 10
0.001882494
 20
1.099998389
 30
0.398081811
 10
-0.120535763
 20
1.100064783
 30
0.405981170
 10
-0.239691177
 20
1.080379312
 30
0.413880184
 10
-0.355583749
 20
1.040941976
 30
0.421778854
 10
-0.714698919
 20
0.921715745
 30
0.446312263
 10
-0.997842059
 20
0.603875464
 30
0.470857224
 10
-1.074947635
 20
0.233425751
 30
0.495395874
 10
-1.135003653
 20
-0.038332841
 30
0.513495357
 10
-1.086027339
 20
-0.332027868
 30
0.531582648
 10
-0.941045704
 20
-0.569590189
 30
0.549680714
 10
-0.748142165
 20
-0.894558527
 30
0.574191699
 10
-0.377906570
 20
-1.103242546
 30
0.598709179
 10
0.000000000
 20
-1.100000000
 30
0.623205045
  0
ARC
  5
B05
330
A02
100
AcDbEntity
  8
Body
100
AcDbCircle
 10
0.000000000
 20
0.000000000
 30
0.300000000
 40
1.100000000
100
AcDbArc
 50
0.000000000
 51
11.431426697
  0
ENDSEC
  0
SECTION
  2
OBJECTS
  0
DICTIONARY
  5
F000
330
0
100
AcDbDictionary
  3
ACAD_GROUP
350
F001
  0
DICTIONARY
  5
F001
330
F000
100
AcDbDictionary
  0
ENDSEC
  0
EOF